<?xml version="1.0" encoding="utf-8"?>
<svg xmlns="http://www.w3.org/2000/svg" width="164" height="35" viewBox="0 0 164 35">
  <g fill="red">
    <path d="M19.8,18.9 L14,18.9 L13.3,16.5 L6.6,16.5 L5.9,18.9 L0.2,18.9 L7,0.7 L12.9,0.7 L19.8,18.9 Z M12.1,12.7 L10,6.4 L7.8,12.7 L12.1,12.7 L12.1,12.7 Z M41.2,18.9 L34.1,18.9 L29.1,11.6 L27.2,13.1 L27.2,18.9 L21.5,18.9 L21.5,0.7 L27.2,0.7 L27.2,6.7 L33.4,0.7 L40.4,0.7 L33.3,7.4 L41.2,18.9 Z M59.4,18.9 L53.5,18.9 C53.4,18.5 53.3,18.1 53.3,17.6 C53.3,17.1 53.2,16.7 53.2,16.2 C53.2,14.9 53.1,14.1 52.9,13.7 C52.5,13 51.8,12.7 50.5,12.7 L48,12.7 L48,19 L42.3,19 L42.3,0.7 L51.1,0.7 C53.1,0.7 54.6,0.9 55.7,1.2 C57.4,1.8 58.3,2.9 58.6,4.4 C58.7,5 58.7,5.5 58.7,5.9 C58.7,7.9 57.7,9.4 55.7,10.3 C56.8,10.6 57.6,11.1 58,11.7 C58.4,12.3 58.7,13.2 58.7,14.4 L58.8,16.9 C58.8,17.3 58.8,17.6 58.9,17.7 C59,17.9 59.1,18 59.4,18 L59.4,18.9 L59.4,18.9 Z M53.3,6.9 L53.3,6.8 C53.3,6.1 53,5.6 52.4,5.4 C52.1,5.3 51.4,5.2 50.6,5.2 L48,5.2 L48,8.6 L50.8,8.6 C51.6,8.6 52.2,8.5 52.6,8.3 C53.1,8 53.3,7.6 53.3,6.9 L53.3,6.9 Z M79.9,9.8 C79.9,12.8 79,15.1 77.3,16.8 C75.6,18.5 73.3,19.4 70.4,19.4 C67.5,19.4 65.2,18.5 63.5,16.8 C61.8,15.1 60.9,12.8 60.9,9.8 C60.9,6.9 61.8,4.6 63.5,2.8 C65.2,1.1 67.5,0.2 70.4,0.2 C73.3,0.2 75.6,1.1 77.3,2.8 C79,4.6 79.9,6.9 79.9,9.8 L79.9,9.8 Z M74,9.8 C74,8.3 73.8,7.1 73.3,6.3 C72.7,5.3 71.7,4.8 70.3,4.8 C68.9,4.8 68,5.3 67.4,6.3 C66.9,7.1 66.7,8.3 66.7,9.8 C66.7,11.3 66.9,12.5 67.4,13.3 C68,14.3 69,14.8 70.4,14.8 C71.8,14.8 72.8,14.3 73.4,13.3 C73.8,12.5 74,11.4 74,9.8 L74,9.8 Z M98.3,7.1 C98.3,9.2 97.7,10.8 96.4,11.9 C95.2,12.9 93.6,13.4 91.5,13.4 L88.3,13.4 L88.3,19 L82.5,19 L82.5,0.7 L89.8,0.7 C91.2,0.7 92.3,0.7 93,0.9 C94.2,1.1 95.2,1.4 96,2 C96.8,2.6 97.4,3.3 97.8,4.2 C98.1,5 98.3,6 98.3,7.1 L98.3,7.1 Z M92.8,7.1 C92.8,6.3 92.5,5.8 92,5.5 C91.6,5.3 91,5.1 90.2,5.1 L88.2,5.2 L88.2,8.9 L90.1,8.9 C90.9,8.9 91.5,8.8 91.9,8.6 C92.5,8.3 92.8,7.8 92.8,7.1 L92.8,7.1 Z M118.8,9.8 C118.8,12.8 118,15.1 116.2,16.8 C114.5,18.5 112.2,19.4 109.3,19.4 C106.4,19.4 104.1,18.5 102.4,16.8 C100.7,15.1 99.8,12.8 99.8,9.8 C99.8,6.9 100.7,4.6 102.4,2.8 C104.1,1.1 106.4,0.2 109.3,0.2 C112.2,0.2 114.5,1.1 116.2,2.8 C117.9,4.6 118.8,6.9 118.8,9.8 L118.8,9.8 Z M112.9,9.8 C112.9,8.3 112.7,7.1 112.2,6.3 C111.6,5.3 110.6,4.8 109.2,4.8 C107.8,4.8 106.9,5.3 106.3,6.3 C105.8,7.1 105.6,8.3 105.6,9.8 C105.6,11.3 105.8,12.5 106.3,13.3 C106.9,14.3 107.9,14.8 109.3,14.8 C110.7,14.8 111.7,14.3 112.3,13.3 C112.7,12.5 112.9,11.4 112.9,9.8 L112.9,9.8 Z M135.7,18.9 L121.5,18.9 L121.5,0.7 L127.3,0.7 L127.3,14.1 L135.7,14.1 L135.7,18.9 L135.7,18.9 Z M144.2,18.9 L138.3,18.9 L138.3,0.7 L144.2,0.7 L144.2,18.9 Z M163.3,13.3 C163.3,14.7 162.9,15.9 162.1,16.9 C161.3,17.9 160.2,18.6 158.8,19 C157.6,19.3 156.4,19.5 155.1,19.5 C154.1,19.5 153.1,19.4 152.2,19.2 C151.3,19 150.4,18.6 149.7,18.1 C148.9,17.6 148.3,16.9 147.9,16.1 C147.5,15.3 147.2,14.4 147.1,13.4 L152.7,13.4 C152.8,13.9 153,14.3 153.2,14.6 C153.4,14.9 153.8,15 154.2,15.2 C154.6,15.3 155,15.4 155.5,15.4 C156.3,15.4 156.8,15.2 157.3,14.9 C157.6,14.7 157.8,14.4 157.8,14 C157.8,13.7 157.7,13.4 157.4,13.3 C157.1,13 156.5,12.8 155.6,12.6 C154.9,12.4 154.3,12.3 153.6,12.1 C152.3,11.7 151.4,11.5 150.9,11.3 C149.9,10.9 149.2,10.5 148.7,9.9 C148,9.2 147.6,8.4 147.5,7.4 L147.4,6.4 C147.4,5.2 147.8,4.1 148.5,3.1 C149.2,2.2 150.2,1.5 151.4,1 C152.5,0.6 153.7,0.4 155,0.4 C156.1,0.4 157.1,0.5 158,0.7 C158.9,0.9 159.7,1.3 160.5,1.8 C161.2,2.3 161.8,2.9 162.2,3.6 C162.6,4.3 162.8,5.1 163,6.1 L157.5,6.1 C157.3,5.2 156.7,4.7 155.8,4.6 L154.9,4.5 C154.6,4.5 154.2,4.5 154,4.6 C153.7,4.7 153.5,4.8 153.4,5 C153.2,5.2 153.1,5.4 153.1,5.7 C153.1,6 153.2,6.2 153.4,6.4 C153.7,6.7 154.5,7 155.8,7.3 C157.1,7.6 157.9,7.8 158.1,7.9 C159.5,8.2 160.6,8.7 161.5,9.3 C162.6,10.1 163.2,11.1 163.4,12.3 L163.3,13.3 Z"/>
    <g transform="translate(0 21)">
      <path d="M.4 4.4L3.7 4.4C4.5 4.4 5.2 4.5 5.8 4.8 6.4 5 6.9 5.4 7.4 5.8 7.8 6.2 8.1 6.7 8.4 7.3 8.6 7.9 8.7 8.5 8.7 9.1 8.7 9.7 8.6 10.3 8.4 10.8 8.2 11.3 7.9 11.9 7.5 12.3 7.1 12.7 6.6 13.1 5.9 13.3 5.3 13.6 4.5 13.7 3.7 13.7L.5 13.7.5 4.4.4 4.4zM2.5 6.2L2.5 12 3.6 12C4 12 4.4 11.9 4.8 11.8 5.2 11.7 5.5 11.5 5.7 11.2 6 11 6.2 10.6 6.3 10.3 6.4 9.9 6.5 9.5 6.5 9 6.5 8.5 6.4 8.1 6.3 7.8 6.2 7.4 5.9 7.2 5.7 6.9 5.4 6.7 5.1 6.5 4.8 6.4 4.5 6.3 4.1 6.2 3.7 6.2L2.5 6.2 2.5 6.2zM14.2 4.3L14.8 4.3 18.7 13.7 16.6 13.7 16.1 12.4 13 12.4 12.5 13.7 10.4 13.7 14.2 4.3zM13.5 10.8L15.5 10.8 14.5 8.2 13.5 10.8zM21.1 4.4L23.2 4.4 23.2 10.1C23.2 10.6 23.4 11.1 23.7 11.4 24 11.7 24.4 11.9 24.9 11.9 25.4 11.9 25.8 11.7 26.1 11.4 26.4 11.1 26.6 10.6 26.6 10.1L26.6 4.4 28.7 4.4 28.7 10.1C28.7 10.6 28.6 11.1 28.4 11.5 28.2 12 28 12.3 27.7 12.7 27.4 13 27 13.3 26.5 13.5 26 13.7 25.5 13.8 24.9 13.8 24.3 13.8 23.7 13.7 23.3 13.5 22.8 13.3 22.4 13 22.1 12.7 21.8 12.4 21.5 12 21.4 11.5 21.2 11 21.1 10.6 21.1 10.1L21.1 4.4zM36.1 8.5L39.8 8.5 39.8 12.6C39.6 12.7 39.4 12.9 39.2 13 39 13.1 38.7 13.3 38.4 13.4 38.1 13.5 37.8 13.6 37.4 13.7 37 13.8 36.7 13.8 36.2 13.8 35.5 13.8 34.8 13.7 34.3 13.5 33.7 13.3 33.2 13 32.8 12.6 32.4 12.2 32.1 11.7 31.8 11.1 31.6 10.5 31.5 9.8 31.5 9.1 31.5 8.3 31.6 7.7 31.9 7.1 32.1 6.5 32.5 6 32.9 5.6 33.3 5.2 33.8 4.9 34.4 4.6 35 4.4 35.6 4.3 36.2 4.3 36.6 4.3 36.9 4.3 37.2 4.4 37.5 4.5 37.8 4.5 38.1 4.6 38.4 4.7 38.6 4.8 38.9 4.9 39.1 5 39.4 5.2 39.6 5.3L38.7 6.9C38.4 6.7 38.1 6.6 37.7 6.4 37.3 6.2 36.8 6.2 36.4 6.2 36 6.2 35.6 6.3 35.3 6.4 35 6.5 34.7 6.7 34.5 7 34.3 7.2 34.1 7.6 33.9 7.9 33.8 8.3 33.7 8.7 33.7 9.2 33.7 9.7 33.8 10.1 33.9 10.4 34 10.8 34.2 11.1 34.5 11.3 34.7 11.6 35 11.7 35.3 11.9 35.6 12 36 12.1 36.3 12.1 36.7 12.1 37.1 12.1 37.3 12 37.6 11.9 37.8 11.8 38 11.7L38 10.3 36.2 10.3 36.2 8.5 36.1 8.5z"/>
      <polygon points="43 4.4 45.1 4.4 45.1 13.7 43 13.7"/>
      <path d="M51.6 4.3L52.2 4.3 56.1 13.7 54 13.7 53.5 12.4 50.3 12.4 49.8 13.7 47.7 13.7 51.6 4.3zM50.9 10.8L52.9 10.8 51.9 8.2 50.9 10.8zM58.4 4.4L60.5 4.4 60.5 10.1C60.5 10.6 60.7 11.1 61 11.4 61.3 11.7 61.7 11.9 62.2 11.9 62.7 11.9 63.1 11.7 63.4 11.4 63.7 11.1 63.9 10.6 63.9 10.1L63.9 4.4 66 4.4 66 10.1C66 10.6 65.9 11.1 65.7 11.5 65.5 12 65.3 12.3 65 12.7 64.7 13 64.3 13.3 63.8 13.5 63.3 13.7 62.8 13.8 62.2 13.8 61.6 13.8 61 13.7 60.6 13.5 60.1 13.3 59.7 13 59.4 12.7 59.1 12.4 58.8 12 58.7 11.5 58.5 11 58.4 10.6 58.4 10.1L58.4 4.4zM74.3 4.4L77.6 4.4C78.4 4.4 79.1 4.5 79.7 4.8 80.3 5 80.8 5.4 81.3 5.8 81.7 6.2 82 6.7 82.3 7.3 82.5 7.9 82.6 8.5 82.6 9.1 82.6 9.7 82.5 10.3 82.3 10.8 82.1 11.4 81.8 11.9 81.4 12.3 81 12.7 80.5 13.1 79.8 13.3 79.2 13.6 78.4 13.7 77.6 13.7L74.4 13.7 74.4 4.4 74.3 4.4zM76.4 6.2L76.4 12 77.5 12C77.9 12 78.3 11.9 78.7 11.8 79.1 11.7 79.4 11.5 79.6 11.2 79.9 11 80.1 10.6 80.2 10.3 80.3 9.9 80.4 9.5 80.4 9 80.4 8.5 80.3 8.1 80.2 7.8 80.1 7.4 79.8 7.2 79.6 6.9 79.3 6.7 79 6.5 78.7 6.4 78.4 6.3 78 6.2 77.6 6.2L76.4 6.2 76.4 6.2zM88.9 6.3L85 6.3 85 4.4 92.3 4.4 87.8 11.8 91.8 11.8 91.8 13.7 84.4 13.7 88.9 6.3zM87 .8L88.5 2 90 .8 90.9 1.9 88.5 3.8 86.1 1.9 87 .8z"/>
      <polygon points="94.9 4.4 97 4.4 97 13.7 94.9 13.7"/>
      <path d="M103.4 4.3L104 4.3 107.9 13.7 105.8 13.7 105.3 12.4 102.1 12.4 101.6 13.7 99.5 13.7 103.4 4.3zM102.7 10.8L104.7 10.8 103.7 8.2 102.7 10.8zM110.3 4.4L112.4 4.4 112.4 10.1C112.4 10.6 112.6 11.1 112.9 11.4 113.2 11.7 113.6 11.9 114.1 11.9 114.6 11.9 115 11.7 115.3 11.4 115.6 11.1 115.8 10.6 115.8 10.1L115.8 4.4 117.9 4.4 117.9 10.1C117.9 10.6 117.8 11.1 117.6 11.5 117.4 12 117.2 12.3 116.9 12.7 116.6 13 116.2 13.3 115.7 13.5 115.2 13.7 114.7 13.8 114.1 13.8 113.5 13.8 112.9 13.7 112.5 13.5 112 13.3 111.6 13 111.3 12.7 111 12.4 110.7 12 110.6 11.5 110.4 11 110.3 10.6 110.3 10.1L110.3 4.4zM125.3 8.5L129 8.5 129 12.6C128.8 12.7 128.6 12.9 128.4 13 128.2 13.1 127.9 13.3 127.6 13.4 127.3 13.5 127 13.6 126.6 13.7 126.2 13.8 125.9 13.8 125.4 13.8 124.7 13.8 124 13.7 123.5 13.5 122.9 13.3 122.4 13 122 12.6 121.6 12.2 121.3 11.7 121 11.1 120.8 10.5 120.7 9.8 120.7 9.1 120.7 8.3 120.8 7.7 121.1 7.1 121.3 6.5 121.7 6 122.1 5.6 122.5 5.2 123 4.9 123.6 4.6 124.2 4.4 124.8 4.3 125.4 4.3 125.8 4.3 126.1 4.3 126.4 4.4 126.7 4.5 127 4.5 127.3 4.6 127.6 4.7 127.8 4.8 128.1 4.9 128.3 5 128.6 5.2 128.8 5.3L127.9 6.9C127.6 6.7 127.3 6.6 126.9 6.4 126.5 6.2 126 6.2 125.6 6.2 125.2 6.2 124.8 6.3 124.5 6.4 124.2 6.5 123.9 6.7 123.7 7 123.5 7.2 123.3 7.6 123.1 7.9 123 8.3 122.9 8.7 122.9 9.2 122.9 9.7 123 10.1 123.1 10.4 123.2 10.8 123.4 11.1 123.7 11.3 123.9 11.6 124.2 11.7 124.5 11.9 124.8 12 125.2 12.1 125.5 12.1 125.9 12.1 126.3 12.1 126.5 12 126.8 11.9 127 11.8 127.2 11.7L127.2 10.3 125.4 10.3 125.4 8.5 125.3 8.5zM132.5 10.9C132.9 11.2 133.3 11.4 133.7 11.7 134.1 11.9 134.6 12 135 12 135.3 12 135.6 11.9 135.8 11.8 136 11.7 136.1 11.4 136.1 11.2 136.1 11 136 10.8 135.9 10.6 135.7 10.4 135.5 10.3 135.2 10.2L134.1 9.8C133.8 9.7 133.6 9.6 133.3 9.4 133 9.2 132.8 9.1 132.6 8.8 132.4 8.6 132.2 8.3 132.1 8 132 7.7 131.9 7.4 131.9 7 131.9 6.6 132 6.3 132.1 5.9 132.2 5.6 132.4 5.3 132.7 5 133 4.8 133.3 4.6 133.7 4.4 134.1 4.3 134.5 4.2 135 4.2 135.6 4.2 136.1 4.3 136.6 4.5 137.1 4.7 137.5 5 138 5.3L137.1 6.7C137 6.6 136.9 6.5 136.7 6.4 136.5 6.3 136.4 6.2 136.2 6.2 136 6.2 135.8 6.1 135.7 6 135.5 6 135.3 5.9 135.1 5.9 134.8 5.9 134.6 6 134.4 6.1 134.2 6.2 134.1 6.4 134.1 6.7 134.1 6.9 134.2 7.1 134.4 7.3 134.6 7.5 134.9 7.6 135.2 7.8L136.3 8.3C136.9 8.6 137.4 8.9 137.8 9.3 138.2 9.7 138.4 10.3 138.4 10.9 138.4 11.3 138.3 11.7 138.2 12.1 138 12.5 137.8 12.8 137.5 13 137.2 13.2 136.9 13.4 136.5 13.6 136.1 13.7 135.7 13.8 135.2 13.8 134.9 13.8 134.6 13.8 134.3 13.7 134 13.6 133.7 13.5 133.4 13.4 133.1 13.3 132.8 13.1 132.6 12.9 132.3 12.7 132.1 12.5 131.9 12.4L132.5 10.9z"/>
      <polygon points="141.2 4.3 141.8 4.3 145.9 9.2 150 4.3 150.6 4.3 150.6 13.7 148.4 13.7 148.4 8.8 145.9 11.9 143.4 8.8 143.4 13.7 141.2 13.7"/>
      <path d="M158,13.8 C157.3,13.8 156.6,13.7 156.1,13.4 C155.5,13.1 155,12.8 154.6,12.3 C154.2,11.9 153.9,11.3 153.7,10.8 C153.5,10.2 153.4,9.6 153.4,9 C153.4,8.4 153.5,7.8 153.7,7.2 C153.9,6.6 154.2,6.1 154.6,5.7 C155,5.3 155.5,4.9 156.1,4.6 C156.7,4.3 157.3,4.2 158,4.2 C158.7,4.2 159.4,4.3 159.9,4.6 C160.5,4.9 160.9,5.2 161.3,5.7 C161.7,6.1 162,6.7 162.2,7.2 C162.4,7.8 162.5,8.4 162.5,9 C162.5,9.6 162.4,10.2 162.2,10.8 C162,11.4 161.7,11.9 161.3,12.3 C160.9,12.7 160.4,13.1 159.9,13.4 C159.4,13.7 158.7,13.8 158,13.8 Z M158,11.9 C158.4,11.9 158.7,11.8 159,11.7 C159.3,11.6 159.6,11.4 159.8,11.1 C160,10.8 160.2,10.5 160.3,10.2 C160.4,9.8 160.5,9.5 160.5,9 C160.5,8.6 160.4,8.2 160.3,7.8 C160.2,7.4 160,7.1 159.8,6.9 C159.6,6.6 159.3,6.4 159,6.3 C158.7,6.2 158.4,6.1 158,6.1 C157.6,6.1 157.3,6.2 157,6.3 C156.7,6.4 156.4,6.6 156.2,6.9 C156,7.2 155.8,7.5 155.7,7.8 C155.6,8.2 155.5,8.5 155.5,9 C155.5,9.4 155.6,9.8 155.7,10.2 C155.8,10.6 156,10.9 156.2,11.1 C156.4,11.4 156.7,11.6 157,11.7 C157.3,11.8 157.6,11.9 158,11.9 Z"/>
    </g>
  </g>
</svg>
