<svg viewBox="0 0 998.6 559.6" xmlns="http://www.w3.org/2000/svg" xmlns:xlink="http://www.w3.org/1999/xlink">
	<g id="g14">
	<g id="g20" transform="translate(188.6943,305.6113)">
		<path id="path22" fill="#1A1A18" d="M-70.4-20.2h30.9c-4.6,17.3-13.2,30.6-26,39.6c-12.8,9.5-28.9,14.2-48.3,14.2
			c-23.5,0-41.9-7.6-55.1-22.9c-13.2-14.9-19.8-36.1-19.8-63.8c0-26.4,6.4-47.1,19.2-61.9c13.2-15.3,31.6-22.9,55.1-22.9
			c24.8,0,44,7.4,57.6,22.3c7.4,9.1,12.8,19.6,16.1,31.6H-84c-2.1-4.1-4.1-7.2-6.2-9.3c-5.4-5.8-13-8.7-22.9-8.7
			c-9.1,0-16.5,2.9-22.3,8.7c-7.4,8.3-11.2,21.9-11.2,40.8c0,19,3.7,32.5,11.2,40.3c5.4,6.6,13.4,9.9,24.2,9.9c7,0,13-1.5,17.9-4.3
			c1.2-0.4,2.4-1.1,3.4-2.2c1-1,2.1-2.2,3.4-3.4c0.8-1.2,2.5-2.9,5-5C-79.1-19.1-75.3-20.2-70.4-20.2"/>
	</g>
	<g id="g24" transform="translate(219.791,391.0947)">
		<path id="path26" fill="#1A1A18" d="M-60-219.6h22.3c5.8,0,10.7,2.1,14.9,6.2c4.1,4.1,6.2,9.1,6.2,14.9v143.7H-60V-219.6z M-60-267.9
			h22.3c5.8,0,10.7,2.1,14.9,6.2c4.1,4.2,6.2,9.1,6.2,14.9v13H-60V-267.9z"/>
	</g>
	<g id="g28" transform="translate(318.0425,267.5225)">
		<path id="path30" fill="#1A1A18" d="M-27.3,68.7c-13.6,0.8-28.4,0.6-44.3-0.6c-15.9-1.2-23.8-11.4-23.8-30.3v-182.1h22.3
			c5.3,0,10.1,2.1,14.2,6.2c4.1,4.1,6.2,9.1,6.2,14.9v27.9h25.4v8.7c0,6.2-2.1,11.2-6.2,15.2c-4.1,4-9.1,5.9-14.9,5.9h-4.3V26
			c0,7.1,4.1,10.5,12.4,10.5h13V68.7z"/>
	</g>
	<g id="g32" transform="translate(338.4863,223.8613)">
		<path id="path34" fill="#1A1A18" d="M-20.5,170.6v-34.1h11.8c8.3,0,14.8-1.9,19.5-5.9c4.8-4,5.7-10.2,2.8-18.9L-44-52.4H3.7L37.1,64
			L66.3-37.5c2.5-9.9,9.1-14.9,19.8-14.9h29.7L52.6,135.3c-5,13.6-11.2,23.3-18.6,29.1c-7.4,5-19.6,7.4-36.5,7.4h-4.4h-4.3
			c-1.2-0.4-2.8-0.7-4.7-0.9C-17.7,170.7-19.2,170.6-20.5,170.6"/>
	</g>
	<g id="g36" transform="translate(535.542,330.2456)">
		<path id="path38" fill="#EB6502" d="M45.2-77.7c0-14.8-3.1-26.4-9.3-34.7c-6.2-8.6-14.7-13-25.4-13C-1-125.4-9.9-121.2-16-113
			c-6.2,8.7-9.3,20.5-9.3,35.3c0,17.4,2.9,30,8.7,37.8c6.2,8.7,14.9,13,26,13c11.5,0,20.4-4.3,26.6-13
			C42.2-48.5,45.2-61.1,45.2-77.7 M-25.4-186.6v49.6c4.5-7.8,11.1-14.3,19.8-19.2c7.4-4.1,16.5-6.2,27.3-6.2
			c19.4,0,35.3,8,47.7,24.1c12.4,16.1,18.6,37,18.6,62.6c0,25.6-6.2,46.4-18.6,62.5C63.2-5.4,54.9,0.3,44.3,3.8
			c-10.5,3.5-21,5.3-31.3,5.3c-19.8,0-38.2-5.2-55.2-15.5C-59-16.7-67.5-36.6-67.5-65.9v-141.8h21.1c5.8,0,10.7,2.1,14.9,6.2
			C-27.4-197.4-25.4-192.4-25.4-186.6"/>
	</g>
	<g id="g40" transform="translate(611.5928,344.7021)">
		<path id="path42" fill="#EB6502" d="M70.6-111.4h69c-0.9-12.2-4-21.2-9.5-27c-5.8-6.3-14.2-9.5-25-9.5c-9.9,0-18,3.1-24.3,9.5
			C74.4-132.1,71-123.1,70.6-111.4 M151.7-58.6h33.8c-5,18.9-14.4,33.4-28.4,43.3C143.2-5,125.6,0.2,104.4,0.2
			c-25.7,0-45.8-8.3-60.2-25C29.8-41,22.6-64.3,22.6-94.5c0-28.9,7-51.4,21-67.6c14.4-16.7,34.5-25,60.2-25c27,0,48,8.1,62.9,24.3
			c14.4,16.7,21.6,39.9,21.6,69.7v4.7v2.7c0,2.3-0.3,3.8-0.7,4.8h-117c0.4,14,3.8,24.3,10.1,31.1C86.6-42.6,95.4-39,107.1-39
			c7.6,0,14.2-1.6,19.6-4.8c1.4-0.4,2.6-1.2,3.7-2.4c1.1-1.1,2.4-2.3,3.7-3.7c0.4-1.4,2.1-3.2,5.1-5.4
			C142.1-57.5,146.3-58.6,151.7-58.6"/>
	</g>
	<g id="g44" transform="translate(745.832,344.5132)">
		<path id="path46" fill="#EB6502" d="M115.3-110.9h69c-0.9-12.2-4.1-21.2-9.5-27.1c-5.9-6.3-14.2-9.4-25-9.4c-9.9,0-18,3.2-24.4,9.4
			C119.2-131.7,115.8-122.7,115.3-110.9 M196.5-58.2h33.8c-5,18.9-14.4,33.4-28.4,43.3C187.9-4.6,170.3,0.6,149.1,0.6
			c-25.7,0-45.8-8.3-60.2-25C74.5-40.6,67.3-63.9,67.3-94.1c0-28.8,7-51.4,20.9-67.6c14.4-16.7,34.5-25,60.2-25
			c27,0,48,8.1,62.9,24.4c14.4,16.7,21.6,39.9,21.6,69.6v4.7v2.7c0,2.2-0.2,3.8-0.6,4.7h-117c0.5,14,3.8,24.3,10.1,31.1
			c5.8,7.2,14.6,10.8,26.4,10.8c7.7,0,14.2-1.6,19.6-4.7c1.3-0.5,2.6-1.2,3.7-2.4c1.1-1.2,2.3-2.4,3.7-3.7c0.4-1.4,2.1-3.1,5.1-5.4
			C186.9-57.1,191.1-58.2,196.5-58.2"/>
	</g>
	<g id="g48" transform="translate(647.2256,486.1167)">
		<path id="path50" fill="#1A1A18" d="M82.5-441.4c5.4-2.9,24.3-10.1,76.1-10.1c51.8,0,70.7,7.2,76.1,10.1l13.8,50.7
			c-24.2-5.8-53-8.8-86-8.8h-5.5c-34.2,0-63.7,3.2-88.4,9.4L82.5-441.4z M-1.7-373.6c4.9,0.3,9.6-0.3,13.6-1.6l8.3,5
			c-24.8,15.9-32.3,34.1-34.4,45.9h10.5c0,0,23.5,0.3,43.5-14.5c7.7-5,18.2-9.9,32.6-14c0.1,0.1,4.7-1.5,10-2.6
			c7.4-1.6,16.1-2.9,16.1-2.9c16.1-2.5,35.4-4,58.4-4h5.5c22.8,0,42,1.6,58.3,4.1c0,0,26,5.8,26.1,5.6c10,2.8,18.3,6.1,25,9.6
			c2.9,1.6,4.4,2.8,6.4,4.2c23.6,16.9,48.6,14.5,48.6,14.5l6.8-0.1c-2.1-11.7-9.5-29.6-33.8-45.5l10-6c3.9,1.2,8.2,2,12.6,2.2
			c15.8,0.8,28.8-7.1,28.9-17.7c-0.1-10.6-13.1-18.5-28.9-17.7c-15.8,0.8-30.3,8.7-30.3,17.7c0,0.9,0.2,1.8,0.5,2.7l-6.6,4
			c0,0-19.7-72.4-20.1-73.2c-5.7-12.9-28.9-28.3-107.4-28.3c-78.5,0-101.7,15.4-107.4,28.3c-0.4,0.8-19.5,71.3-19.5,71.3l-4.6-2.8
			c0.1-0.7,0.2-1.4,0.2-2c-0.1-10.6-13.1-18.5-28.9-17.7c-15.8,0.8-30.3,8.7-30.3,17.7C-32-382.3-17.5-374.4-1.7-373.6"/>
	</g>
	<g id="g52" transform="translate(100,187.4453)">
		<path id="path54" fill="#1A1A18" d="M-100,255.5c4.6,0,9.1-0.3,13.5,0.1c3.8,0.3,7.3,4.4,7.9,8.4c0.2,1.1,0.1,2.2,0.1,3.4
			c0,22.1,0,44.3,0,66.4c0,1.1-0.1,2.2-0.2,3.6H-100V255.5z"/>
	</g>
	<g id="g56" transform="translate(116.0933,193.2168)">
		<path id="path58" fill="#1A1A18" d="M-94.6,242.1h-21.5v-16.8c4.9,0.1,10-0.9,14.8,0.8c3.9,1.3,6.3,4.3,6.7,8.4
			C-94.4,236.9-94.6,239.3-94.6,242.1"/>
	</g>
	<g id="g60" transform="translate(169.0029,183.7998)">
		<path id="path62" fill="#1A1A18" d="M-77,264.1c15.6-8.9,31.3-9.4,47.2-1.1c5.9,3,9.6,7.9,11.3,14.1c1.1,3.9,1.9,8,2,12
			c0.2,16.6,0.1,33.3,0.1,49.9c0,0.6-0.1,1.1-0.2,2.2c-4.6,0-9.2,0.6-13.7-0.3c-4.5-0.9-7.2-4.7-7.2-9.7c-0.1-13,0-25.9,0-38.9
			c0-1.4,0-2.8-0.1-4.2c-0.9-10.7-10.9-16.5-20.8-12.3c-4.7,2-7.6,5.2-8,10.4c-0.1,1.7-0.3,3.4-0.3,5.1c0,14.9,0,29.9,0,44.8v4.9
			h-21.4v-4.5c0-15.6-0.1-31.3,0-46.9c0-5.6-1.5-10.3-6.8-13.1c-5.6-2.9-11.1-2.8-16.4,0.6c-4.3,2.7-5.5,6.9-5.6,11.6
			c-0.1,6.5,0,13,0,19.4v28.3v4.5H-138c-0.1-1-0.4-2.1-0.4-3.2c0-15.9,0-31.9,0-47.8c0-5,0.8-9.8,2.5-14.5c1.9-5.1,5.2-9,9.8-11.7
			c12.4-7.3,25.5-8.4,39.1-4.4C-83.5,260.3-80.4,262.4-77,264.1"/>
	</g>
	<g id="g64" transform="translate(224.7832,187.4121)">
		<path id="path66" fill="#1A1A18" d="M-58.4,255.6h21.7v4.7v44.8c0,0.9,0,1.7,0,2.5c-0.5,12.4,11.6,16.6,19.9,13.5
			c6-2.3,8.8-6.4,8.9-13.4c0-13,0-25.9,0-38.9c0-1.3,0-2.5,0-3.8c0.2-5.6,5.2-10.1,10.2-9.7c3.5,0.3,7,0.1,10.7,0.1
			c0.1,1.4,0.3,2.5,0.3,3.6c0,15.8,0,31.6,0,47.3c0,5.1-0.8,10.1-2.6,14.9c-2,5.5-5.6,9.6-10.9,12.3c-14.5,7.4-28.9,7.2-43.5,0.4
			c-8.9-4.1-12.8-11.5-14.1-20.6c-0.5-3.7-0.7-7.6-0.7-11.4c-0.1-13.8,0-27.6,0-41.4V255.6z"/>
	</g>
	<g id="g68" transform="translate(337.4019,126.0762)">
		<path id="path70" fill="#1A1A18" d="M-20.8,398.7h-21.5v-81.9c4.5,0,8.8-0.2,13.1,0.1c3.8,0.2,7.4,3.9,8.3,8c0.2,1.1,0.3,2.2,0.3,3.4
			c0,22.7,0,45.3,0,68C-20.7,397-20.8,397.6-20.8,398.7"/>
	</g>
	<g id="g72" transform="translate(337.5093,193.1846)">
		<path id="path74" fill="#1A1A18" d="M-20.8,242.2h-21.6v-16.7c4.2,0,8.4-0.3,12.6,0.1c4.8,0.5,8.2,4.2,8.9,8.9
			c0.2,1.1,0.1,2.2,0.1,3.4C-20.8,239.2-20.8,240.5-20.8,242.2"/>
	</g>
	<g id="g76" transform="translate(360.3511,126.0488)">
		<path id="path78" fill="#1A1A18" d="M-13.2,398.8h-21.4c-0.1-1.2-0.3-2.3-0.3-3.4c0-13-0.1-25.9,0-38.9c0.1-6.1,1-12.1,3.5-17.7
			c3.5-8.1,9.1-14.2,17.2-17.7c8-3.5,16.4-4.8,25.4-4.1v21.4c-2.6,0.1-5.2,0.2-7.9,0.4c-11.1,0.5-16.4,5.8-16.5,17
			c-0.1,13.1,0,26.2,0,39.3V398.8z"/>
	</g>
	<g id="g80" transform="translate(457.2324,126.0205)">
		<path id="path82" fill="#1A1A18" d="M19.1,398.9H-3.1c-9.5-27.2-19-54.3-28.6-81.8h22.9c5.2,18.4,10.5,36.9,15.8,55.5
			c1.9-0.6,1.7-2.3,2-3.5c4.1-13.9,8.1-27.8,12.1-41.8c0.4-1.4,0.7-2.7,1.2-4c1.7-4.2,4.6-6.6,9.4-6.5c5.2,0.1,10.4,0,16.3,0
			C38.3,344.5,28.7,371.7,19.1,398.9"/>
	</g>
	<g id="g84" transform="translate(523.2197,156.3408)">
		<path id="path86" fill="#1A1A18" d="M41.1,328.1c-0.6,0-1.1-0.1-1.4,0c-5.4,1.5-10.8,2.8-16.2,4.4c-2.5,0.8-5.1,1.6-7.4,3
			c-3.4,2-4.2,5.5-4,9.1c0.2,3.5,1.8,6.4,5.3,7.9c8.7,3.6,20.2-1.6,23-10.7C41.8,337.4,41.6,332.8,41.1,328.1 M13.7,307.4H-5.6
			c-0.2-2.9,0.7-5.3,1.9-7.6c3.4-6.8,8.9-11.3,16.1-13.3c11.7-3.2,23.5-2.8,34.9,1.2c9.6,3.4,14.1,10.6,14.1,20.8
			c0,9.7,0.1,19.5,0,29.2c0,5.7-0.9,11.2-3.7,16.3c-3.9,7-9.7,11.7-17.4,13.8c-9.5,2.6-19.1,3.6-28.8,1.5c-3.6-0.8-7.1-2.6-10.4-4.5
			c-4.2-2.4-6.7-6.3-8.1-10.9c-1.6-5.8-1.8-11.7-0.4-17.6c1.1-5,3.9-9,8.3-11.8c4.7-3,9.8-4.9,15.3-5.9c5-0.9,10-1.5,15-2.5
			c2.3-0.5,4.5-1.5,6.7-2.5c2.1-1,3.2-2.8,3.1-5.1c-0.1-2.4-1.3-4.3-3.7-5.2c-5.7-2.1-11.6-2.7-17.4-0.5
			C17.8,303.7,16.2,305.6,13.7,307.4"/>
	</g>
	<g id="g88" transform="translate(598.9727,187.3213)">
		<path id="path90" fill="#1A1A18" d="M66.4,255.8v17.7c-14,15-28.2,30.2-42.4,45.4c0.1,0.3,0.2,0.6,0.3,0.9h43.8v17.6H-3
			c-0.1-5.3,0-10.7,0-16.3c14.4-15.9,28.8-31.9,43.7-48.4c-1.9-0.1-2.9-0.2-4-0.2c-8.5,0-16.9,0-25.4,0c-8.4,0-12.1-3.7-12.1-12.1
			c0-1.4,0-2.8,0-4.5H66.4z"/>
	</g>
	<g id="g92" transform="translate(557.2939,205.7354)">
		<path id="path94" fill="#1A1A18" d="M52.5,212.9h43.4c0,2.8,0.3,5.4-0.1,8c-0.7,5.1-4.6,8.7-9.7,8.9c-7.9,0.2-15.8,0.2-23.6,0
			c-5.5-0.2-9.3-4.1-9.9-9.7C52.3,217.8,52.5,215.6,52.5,212.9"/>
	</g>
	<g id="g96" transform="translate(610.5518,187.5332)">
		<path id="path98" fill="#1A1A18" d="M70.2,255.3c4.2,0,8.2-0.1,12.1,0c4.4,0.2,8.2,3.8,8.9,8.2c0.2,1.1,0.2,2.2,0.2,3.4
			c0,22.1,0,44.2,0,66.3c0,1.2-0.1,2.5-0.2,4h-21V255.3z"/>
	</g>
	<g id="g100" transform="translate(626.2549,193.1846)">
		<path id="path102" fill="#1A1A18" d="M75.5,242.2h-21v-16.7c4.2,0,8.3-0.3,12.3,0.1c5.3,0.6,8.7,4.7,8.9,10.1
			C75.8,237.8,75.5,240,75.5,242.2"/>
	</g>
	<g id="g104" transform="translate(686.9902,187.4687)">
		<path id="path106" fill="#1A1A18" d="M95.7,255.5c0.1,1.3,0.1,2.2,0.1,3.2c0,15.1,0.1,30.2-0.1,45.2c-0.1,4.8-0.7,9.6-1.7,14.2
			c-1.6,7.2-5.8,12.7-12.6,15.9c-15.7,7.5-31,6.6-46-1.9c-5.2-3-8.1-7.8-9.5-13.4c-1-4.2-1.8-8.6-1.8-12.9
			C23.8,289.9,24,273.9,24,258c0-0.7,0.1-1.4,0.2-2.3h21.6v4.5c0,15.8,0.1,31.6,0,47.3c0,5.5,1.5,10,6.6,12.7
			c5.6,2.9,11.1,2.6,16.4-0.8c3-1.9,4.9-4.7,5.3-8.2c0.2-2.2,0.4-4.5,0.4-6.7c0-12.5,0-25.1,0-37.6c0-2.7,0.2-5.3,2-7.6
			c1.6-1.9,3.4-3.5,5.9-3.7C86.8,255.3,91.1,255.5,95.7,255.5"/>
	</g>
	<g id="g108" transform="translate(735.6143,157.2734)">
		<path id="path110" fill="#1A1A18" d="M111.9,326c-0.9-4.5-1.4-9-2.8-13.3c-1.5-4.7-4.8-8.2-9.5-10.1c-6.1-2.5-16.4,0.3-19.5,8.7
			c-4.1,10.9-3.2,21.8,1,32.4c2.1,5.2,6.7,7.4,12.1,7.9c7,0.6,13.3-3.5,15.7-10.9C110.5,336,110.9,330.9,111.9,326 M55.9,326.2
			c0.6-7.2,1.5-14.2,4.1-20.8c5-12.7,14.3-19.9,27.9-21.5c5.3-0.6,10.7-0.6,16,0.4c13.3,2.6,21.6,10.9,25.7,23.6c4,12.3,4,24.7,0,37
			c-5.4,16.5-16.6,23-32.1,24.3c-7.8,0.7-15.2-1-22.1-4.3c-8.4-4-13.8-10.7-16-19.7C57.8,339,57.1,332.6,55.9,326.2"/>
	</g>
	<g id="g112" transform="translate(760.79,187.5439)">
		<path id="path114" fill="#1A1A18" d="M120.3,255.3c4.2,0,7.9-0.1,11.5,0c5.5,0.1,9.6,3.9,10.3,9.3c0.1,1.1,0.1,2.2,0.1,3.4
			c0,27.3,0,54.7,0,82c0,0.3,0,0.6,0,0.8c-0.1,13.1-5.6,19.1-18.5,20.4c-3.9,0.4-7.8,0.5-12.1,0.7v-13.7V354c2.4-0.2,4.3-0.4,6-0.6
			c2.5-1.4,2.8-3.5,2.8-5.9c-0.1-10,0-20,0-30v-57.1V255.3z"/>
	</g>
	<g id="g116" transform="translate(760.9727,193.168)">
		<path id="path118" fill="#1A1A18" d="M120.4,242.2v-16.8c4.2,0,8.2-0.3,12.2,0.1c4.9,0.4,8.5,3.9,9.1,8.6c0.4,2.6,0.1,5.3,0.1,8.1
			H120.4z"/>
	</g>
	<g id="g120" transform="translate(786.7764,187.375)">
		<path id="path122" fill="#1A1A18" d="M129,255.7h21.2c0.1,1.6,0.2,3.1,0.2,4.6c0,15.4,0,30.7,0,46.1c0,1.7,0.1,3.4,0.3,5
			c0.9,7.8,8.2,10.8,14,10.8c7.7,0,13.5-5,14.1-11.9c0.2-1.8,0.2-3.7,0.2-5.5c0-12.4,0-24.8,0-37.2c0-1.8,0.1-3.7,0.6-5.4
			c1-3.5,3.5-6.1,7.1-6.5c4.4-0.5,8.9-0.1,13.6-0.1c0.1,1.4,0.2,2.5,0.2,3.6c0,14.4,0.1,28.8,0,43.1c-0.1,5.9-0.4,11.8-2.3,17.5
			c-2.1,6.6-6.1,11.3-12.3,14.2c-15.4,7.4-30.5,6.6-45.3-1.6c-4.5-2.5-7.4-6.3-9.3-11.1c-2.1-5.3-2.7-10.9-2.7-16.6
			c-0.1-15.5,0-31,0-46.5C128.7,257.5,128.9,256.7,129,255.7"/>
	</g>
</g>
</svg>