<?xml version="1.0" encoding="utf-8"?>
<!-- Generator: Adobe Illustrator 23.0.6, SVG Export Plug-In . SVG Version: 6.00 Build 0)  -->
<svg version="1.1" id="Layer_1" xmlns="http://www.w3.org/2000/svg" xmlns:xlink="http://www.w3.org/1999/xlink" x="0px" y="0px"
	 viewBox="0 0 138.4 25" style="enable-background:new 0 0 138.4 25;" xml:space="preserve">
<style type="text/css">
	.st0{fill:#FFFFFF;}
	.st1{fill:#00B7D1;}
	.st2{fill:#8C8C8C;}
</style>
<g>
	<path class="st1" d="M138.4,15.2c-1,3.4-4.2,5.8-8.1,5.8c-5,0-8.6-4-8.6-8.6c0-4.4,3.4-8.5,8.6-8.5c4.7,0,7.4,3.5,8.1,5.9h-3.5
		c-0.5-1.1-2-3-4.6-3c-3.2,0-5.3,2.7-5.3,5.6c0,3,2.2,5.6,5.3,5.6c2.9,0,4.3-2.3,4.6-2.9H138.4z"/>
	<rect x="83.9" class="st1" width="1.5" height="25"/>
	<path class="st1" d="M116,11.7c-0.7,0.4-1.4,0.4-2.1,0.4h-1.9v-5h1.8c0.8,0,1.6,0.1,2.2,0.4c0.6,0.3,1.1,1,1.1,2
		C117.1,10.7,116.6,11.4,116,11.7 M118.4,5.4c-1-0.7-2.1-1.1-4.8-1.1h-5v16.4h3.3v-5.6h2c2.4,0,3.5-0.4,4.6-1.3
		c1-0.8,1.7-2.5,1.7-4.1C120.2,8,119.6,6.4,118.4,5.4"/>
	<path class="st1" d="M97.7,17.8h-2.3V7.2h2.3c2,0,3.1,0.8,3.8,1.6c0.8,1,1.1,2.4,1.1,3.7C102.6,15.5,101.2,17.8,97.7,17.8
		 M104.2,7.1c-1.9-2.6-4.9-2.8-6.9-2.8h-5.2v16.4h5.4c5.9,0,8.4-3.6,8.4-8.2C105.9,10.5,105.4,8.6,104.2,7.1"/>
	<path class="st2" d="M30.5,4.3h3.3v16.5h-3.3V4.3z M40.2,9.3l0.1,11.4h-3.2V4.3H40l7.6,11.4L47.5,4.3h3.2v16.5h-3L40.2,9.3z
		 M54.2,4.3h3.3v16.5h-3.3V4.3z M19.4,4.3h3.3v13.5h5.4v2.9h-8.7V4.3z M16.7,15.2c-1,3.4-4.2,5.8-8.1,5.8c-5,0-8.6-4-8.6-8.6
		c0-4.4,3.4-8.5,8.6-8.5c4.7,0,7.4,3.5,8.1,5.9h-3.5c-0.5-1.1-2-3-4.6-3c-3.2,0-5.3,2.7-5.3,5.6c0,3,2.2,5.6,5.3,5.6
		c2.9,0,4.3-2.3,4.6-2.9H16.7z M77,15.2c-1,3.4-4.2,5.8-8,5.8c-5,0-8.6-4-8.6-8.5c0-4.4,3.4-8.5,8.6-8.5c4.7,0,7.4,3.5,8,5.9h-3.5
		c-0.5-1.1-2-3-4.6-3c-3.2,0-5.2,2.7-5.2,5.6c0,3,2.1,5.6,5.3,5.6c2.9,0,4.2-2.3,4.6-2.9H77z"/>
</g>
</svg>
