<?xml version="1.0" encoding="utf-8"?>
<!-- Generator: Adobe Illustrator 24.0.3, SVG Export Plug-In . SVG Version: 6.00 Build 0)  -->
<svg version="1.1" id="Layer_1" xmlns="http://www.w3.org/2000/svg" xmlns:xlink="http://www.w3.org/1999/xlink" x="0px" y="0px"
	 viewBox="0 0 338.7 99.9" style="enable-background:new 0 0 338.7 99.9;" xml:space="preserve">
<style type="text/css">
	.st0{fill:#DB0714;}
	.st1{fill:#DB0916;}
	.st2{fill:#DB0815;}
	.st3{fill:#4A4C4A;}
	.st4{fill:#4B4D4B;}
	.st5{fill:#4E504E;}
	.st6{fill:#4D4F4D;}
	.st7{fill:#FEFEFE;}
	.st8{fill:#FEFDFD;}
	.st9{fill:#FEFBFB;}
	.st10{fill:#F2F2F2;}
	.st11{fill:#F4F4F4;}
	.st12{fill:#DC0A17;}
	.st13{fill:#FCF1F2;}
</style>
<g>
	<path class="st0" d="M98.2,49.9c0,27.6-21.8,49.9-48.9,50S0,77.7,0,50.2C-0.1,22.5,21.9,0,49.2,0C76.3,0.1,98.2,22.3,98.2,49.9z"/>
	<path class="st1" d="M163.2,54.6c0-2.7,0-5.3,0-8c0-3.2,3.1-3.4,3.9-2.3c1.6,2.1,2.4,1.4,4,0.4c3.9-2.2,6.9,0.4,10.4,1.4
		c1.9,0.6,6-3.5,9.8-1.8c2.3,1,3.4,3.1,3.5,5.6c0.2,4.5,0.1,9,0.2,13.4c0,1.8-0.5,2.7-2.5,2.7s-3.1-0.5-3.1-2.8
		c0.1-3.3,0.1-6.6-0.1-10c-0.1-2.1-0.2-4.8-3.3-4.5c-2.6,0.3-4.1,2-4.1,4.8c0,3.2-0.1,6.3,0,9.5c0.1,2-0.5,3-2.8,3
		c-2.1-0.1-3-0.8-3-2.9c0.1-3.3,0.1-6.6,0-10c-0.1-2-0.1-4.4-2.9-4.3c-2.6,0.1-4.3,1.7-4.4,4.5c-0.1,3-0.1,6,0,9
		c0,2.1,0.1,3.9-3,3.8C162.6,66,163,64,163,62C163.2,59.6,163.2,57.1,163.2,54.6z"/>
	<path class="st2" d="M138.4,57.9c-0.8,2.2,1.8,6-2.4,7.3c-6.1,1.9-12.2,2.4-17.6-1.9c-5.6-4.4-6.5-15.2-2.1-21.5
		c3.9-5.6,13.7-7.8,19.9-4.5c1.9,1,2.7,2.7,2,4.5c-1,2.8-2.7,0.4-4,0c-4-1.3-7.8-1.8-11.3,1.2c-3.4,3-3.6,7-2.9,11
		c0.7,4.2,3.3,6.9,7.8,7.1c2.1,0.1,4.6,0.5,4.7-2.9c0.1-2.6,0.4-5.2-3.6-4.6c-1.8,0.3-2.9-0.5-2.8-2.5c0.1-2.1,1.5-2.2,3.1-2.2
		c0.2,0,0.3,0,0.5,0C138.4,48.8,138.4,48.8,138.4,57.9z"/>
	<path class="st3" d="M309.2,45.5c9.8-3.8,13.5-1.1,13.6,9.2c0,2.8-0.1,5.7,0,8.5c0.1,2.1-0.8,3-2.9,3c-2.1,0-3-0.7-3-2.9
		c0.1-3.3,0-6.6,0-10c0-2.1-0.3-4.3-3-4.4s-4.4,1.6-4.7,4.2c-0.3,3.3-0.1,6.6-0.1,10c0,2-0.5,3-2.8,3.1c-2.3,0-2.8-1-2.8-3
		c0.1-8.5,0.1-16.9,0-25.4c0-2.1,0.2-3.6,2.9-3.5s2.7,1.9,2.7,3.8C309.2,40.4,309.2,42.9,309.2,45.5z"/>
	<path class="st3" d="M231.5,54.7c0-2.7,0.1-5.3,0-8s2.1-3.7,3.4-2.5c2.2,2,3.4,0.9,5.3,0c4.9-2.1,9.3,0.2,10,5.5
		c0.6,4.6,0.3,9.3,0.4,13.9c0.1,2.1-1.2,2.4-2.9,2.4c-2.1,0.1-3-0.7-2.9-2.9c0.1-3.3,0.1-6.6,0-10c0-2.1-0.4-4.3-3-4.3
		c-2.7-0.1-4.5,1.5-4.7,4.2c-0.3,3.3-0.1,6.6-0.1,10c0,1.9-0.3,3.1-2.7,3.1c-2.2,0-3-0.8-2.9-2.9C231.6,60.4,231.5,57.6,231.5,54.7z
		"/>
	<path class="st4" d="M334.9,66.4c-4.5,0.2-6.6-2-6.9-5.9c-0.2-2.1-0.1-4.3-0.1-6.5c0-1,0.4-2.5-0.1-2.9c-4.2-3.4-1.6-6.4-0.1-9.9
		c0.8-1.7,1.3-2.4,3-2.4c1.6,0,3.2,0.2,2.9,2.3c-0.3,2.5,0.8,3.2,3.1,3c1.5-0.1,2.1,0.7,2,2.2c0,1.2-0.1,2.7-1.7,2.5
		c-4.2-0.5-3.9,2.4-3.4,4.7c0.7,2.9-3.1,8.5,4.3,8c1-0.1,0.8,1.7,0.6,2.6C338.4,66.7,336.2,66.1,334.9,66.4z"/>
	<path class="st4" d="M262.1,43.7c0.9,0.2,2.4,0.3,3.8,0.7c1.4,0.5,2.1,1.7,1.7,3.2c-0.5,2.3-1.9,0.9-3,0.7
		c-1.1-0.2-2.3-0.3-3.4-0.3c-0.9,0-1.6,0.5-1.9,1.3c-0.5,1.2,0.3,2,1.2,2.4c1.6,0.8,3.3,1.5,4.9,2.3c2.5,1.3,3.7,3.3,3.4,6.1
		c-0.2,3-1.9,4.9-4.7,5.8s-5.6,0.8-8.3-0.1c-2-0.6-2.6-2.2-2-3.9c0.7-2.1,2.1-0.4,3.2-0.2c1.1,0.2,2.3,0.4,3.4,0.4
		c1.2,0,2.4-0.3,2.5-1.8c0.1-1.1-0.4-1.9-1.4-2.4c-0.9-0.4-1.8-0.8-2.7-1.2c-3.6-1.5-5.8-3.9-4.9-8.1
		C254.8,44.7,258,43.9,262.1,43.7z"/>
	<path class="st3" d="M220.9,50.2c0-4.2,0.1-8.3,0-12.5c-0.1-2.4,0.9-3.3,3.1-3.3c2.3,0,3.1,1.1,3.1,3.4c-0.1,8.5-0.1,17,0,25.4
		c0,2.1-0.6,3.1-2.9,3c-2.1-0.1-3.5-0.5-3.4-3.1C221,58.9,220.9,54.6,220.9,50.2z"/>
	<path class="st5" d="M277.9,54.9c0,2.6-0.1,5.3,0,7.9c0.1,2.2-0.4,3.4-3,3.3c-2.6-0.1-2.9-1.4-2.9-3.5c0.1-5.1,0.1-10.2,0-15.4
		c0-2.2,0.6-3.3,3.1-3.4c2.8,0,2.8,1.6,2.8,3.5C277.8,50,277.9,52.4,277.9,54.9z"/>
	<path class="st6" d="M275.1,41.1c-2,0.1-3.3-0.5-3.4-2.7c-0.1-2.3,1.1-3.3,3.3-3.3c2.1,0,3,1.1,3,3.1
		C278.1,40.1,277.2,41.2,275.1,41.1z"/>
	<path class="st7" d="M57.2,61.7c0,3.3,0.1,6.7,0,10c-0.1,3.2-2,5.3-4.9,6.2c-15.2,4.8-32.7-5.1-35.8-21c-4-21,8.3-38.9,34.8-35.7
		c4.2,0.5,6.1,3.8,6,7.9c-0.1,4.5-2.5,7.2-6.9,7.8c-2.8,0.4-5.7,0-8.5,0.2c-5.5,0.4-9.8,4.3-10.8,9.4c-1.3,6.4,1.1,12.2,5.9,14.6
		c3.9,1.9,5,1.3,5.1-2.9c0-2-0.1-4,0.1-6c0.4-4.2,3.6-7.1,7.6-7.1s7.2,2.8,7.5,7.1C57.4,55.3,57.2,58.5,57.2,61.7L57.2,61.7z"/>
	<path class="st8" d="M61,39.8c0-3.8-0.1-7.6,0-11.4c0.2-4.7,3.1-7.4,7.6-7.5c4.6-0.1,7.7,2.3,7.9,7.1c0.3,7.9,0.3,15.9,0,23.9
		c-0.2,4.9-3.6,7.6-8.2,7.3c-4.4-0.2-7-3.1-7.2-7.9C60.9,47.5,61,43.7,61,39.8z"/>
	<path class="st9" d="M76.8,70.9c-0.1,4.2-4.1,7.9-8.2,7.7c-4-0.2-7.5-3.9-7.5-7.9c0-4.3,3.6-7.9,7.9-7.9
		C73.4,62.9,77,66.6,76.8,70.9z"/>
	<g>
		<path class="st3" d="M289.1,58.4c3.3,0.3,6.4-0.1,8.4-3.1c1.8-2.6,0.8-6.3,3.3-8.8c0.8-0.8-0.1-2.5-2-2.5c-3.3,0-6.6-0.3-9.9-0.1
			c-4.8,0.3-7.7,4.4-6.6,9.1c0.3,1.4,1.5,2.6,0.5,4.2c-2.4,3.5,1.2,7.9-1.7,11.5c-1,1.2,0.6,3.1,2.1,4.1c2.2,1.4,4.7,1.4,7.8,1.4
			c0.8-0.1,2.1,0,3.4-0.3c3.7-0.9,6.6-2.8,6.5-7c-0.1-4.4-3.5-5.6-7.3-5.8c-1.5-0.1-3,0-4.5-0.1c-1-0.1-2.1-0.4-2-1.7
			C287,57.5,288.2,58.3,289.1,58.4z M290.6,65.1c1.7,0.2,4.1-0.2,4.2,2.3c0.1,2.7-2.3,2.7-4.3,2.9c-1.7-0.2-4.1,0.2-4.1-2.3
			C286.3,65.5,288.3,64.9,290.6,65.1z M290,47.8c2.6,0.1,3.8,1.3,3.7,3.4s-1.5,3.3-3.6,3.2c-1.9-0.1-3.1-1.3-3.1-3.2
			C287,49.1,288.1,47.9,290,47.8z"/>
		<path class="st10" d="M290.1,54.5c2.1,0.1,3.5-1.1,3.6-3.2c0.1-2.1-1.1-3.4-3.7-3.4c-1.9,0.1-3,1.3-3,3.4
			C287,53.2,288.1,54.4,290.1,54.5z"/>
		<path class="st11" d="M290.5,70.3c2-0.2,4.4-0.1,4.3-2.9c-0.1-2.5-2.4-2.1-4.2-2.3c-2.2-0.2-4.2,0.4-4.2,2.9
			C286.4,70.5,288.8,70.1,290.5,70.3z"/>
	</g>
	<path class="st1" d="M159.4,53.2c-0.2-8.7-7.4-12.6-15.1-8.3c-1.7,0.9-2.6,2.2-1.8,4c0.9,2,2.2,0.4,3.3,0.1c1.6-0.5,3.1-1.1,4.8-1
		c1.9,0.2,3,1.2,3.2,3.2c0.2,2.7-1.9,1.6-3.1,1.8c-1,0.2-2,0.1-3,0.3c-5,1-7.5,4.2-6.5,8.2c1,4.1,5.2,6.1,10,4.6
		c1.1-0.4,2.1-1.3,3.2-1.3c5.1,0.3,5.1,0.4,5.1-4.6c0-1,0-2,0-3C159.4,55.9,159.5,54.6,159.4,53.2z M149.5,62.3
		c-1.7,0.1-2.8-0.9-2.6-2.7c0.3-2.7,2.5-2.6,3.9-2.8c1.8,0,3.3-0.2,3.1,1.9C153.6,61.3,151.8,62.2,149.5,62.3z"/>
	<g>
		<path class="st12" d="M211.1,44c-7.5-1.8-13,2.6-13.2,10.7c-0.3,9.7,7.5,14.9,16.6,11.1c1.6-0.7,2.6-1.6,2.2-3.4
			c-0.5-2.1-2-1.2-3.2-0.8c-2.3,0.7-4.6,1-6.9,0.2c-1.6-0.6-2.9-1.9-2.6-3.8c0.3-2,2.1-1.1,3.3-1.2c2.3-0.1,4.7-0.1,7,0
			c1.6,0,2.9-0.3,3.3-2.2C218.6,50.2,215.4,45,211.1,44z M208.1,53.1c-1.5-0.8-4.1,1.1-4.1-1.8c0-2.2,1.6-3.5,4-3.5
			c2.1,0,3.6,1.1,3.8,3.1C212.1,54.6,209,51.9,208.1,53.1z"/>
		<path class="st13" d="M208,47.9c-2.4,0-4,1.4-4,3.5c0,2.8,2.5,0.9,4.1,1.8c0.9-1.3,3.9,1.4,3.7-2.2
			C211.7,48.9,210.2,47.8,208,47.9z"/>
	</g>
</g>
</svg>
