<?xml version="1.0" encoding="utf-8"?>
<!-- Generator: Adobe Illustrator 24.0.3, SVG Export Plug-In . SVG Version: 6.00 Build 0)  -->
<svg version="1.1" id="Layer_1" xmlns="http://www.w3.org/2000/svg" xmlns:xlink="http://www.w3.org/1999/xlink" x="0px" y="0px"
	 viewBox="0 0 510.4 73.3" style="enable-background:new 0 0 510.4 73.3;" xml:space="preserve">
<style type="text/css">
	.st0{fill:#C1282E;}
	.st1{fill:#D81E25;}
	.st2{fill:#AC1F23;}
	.st3{fill:#C11F24;}
	.st4{fill:#C1272D;}
	.st5{fill:#C1282D;}
	.st6{fill:#C92025;}
	.st7{fill:#B82126;}
</style>
<g>
	<path class="st0" d="M511.2,59.4c-7.3,8.9-18.2,11.7-29.3,7.5c-3.5-1.3-5.1-2.7-6.1-4.1c-0.3-0.4-2.8-4.2-1-6.6
		c1-1.4,2.9-1.7,4.4-1.5c2.1,0.3,3.2,1.7,4.4,2.8c4.6,4.1,13.3,4.7,16.9,1.4c3.1-2.9,2.3-6.9-1.9-8.4c-3.7-1.4-7.8-1.4-11.7-2.1
		c-8.7-1.4-13-5.1-13.2-11c-0.2-6.1,4.6-11.6,12.6-13.1c5.9-1.1,11.9-1,17.5,1.8c1.8,0.9,3.5,1.9,4.6,3.6c0.8,1.1,2.9,3.7,2,5.8
		c-0.6,1.3-1.9,1.8-2.3,1.9c-2,0.7-3.9-0.3-4.5-0.6c-1.4-0.7-2.1-1.7-2.5-2.2c-2.5-3.9-12.4-4.5-15.9-1.3c-2.9,2.6-2.3,6.1,1.5,7.2
		c3.5,1,7.1,1.6,10.7,2c5.9,0.6,10.7,2.8,13.9,8c0.4,0.7,1.1,2.3,1.1,4.3C512.4,57,511.6,58.6,511.2,59.4z"/>
	<path class="st1" d="M44.9,0c0,2,0,4-0.1,6c-2.9,1.5-3.1,5.1-5.4,7.1c-0.9-0.3-1.2-1-1.6-1.8c-1.9-3.4-2.6-3.5-4.9-0.3
		c-3.9,5.1-11.7,6.4-17.4,2.4c-1.7,7.9-2,15.7-3.3,23.4c-0.6,4.1,0.1,8.6-2.6,12.3C7.3,50,5,50.9,3.3,52.8c-0.7,0.7-1.7,1.8-2.8,0.4
		C0.4,38.3,3.1,23.7,4.9,9c0.7-5.6,5.5-6.5,9.9-7.6c3.2-0.8,6.7-1.8,8.3,2.5c1.8-0.9,1.6-2.8,2.8-3.7C32.3,0,38.6,0,44.9,0z"/>
	<path class="st2" d="M67.7,39.6c0.9,6.2,1.6,12.3,2.7,18.5c0.5,2.6-1.2,3.1-2.7,4c-5.9,3.8-12.4,6.7-17.8,11.2c-9,0-18,0-27,0
		c0.5-5,5-8.8,10.7-9.2c4.1-0.3,8.2,0.6,12.2-0.6c1.3-0.7,2.5-1.7,3.8-2.2c8-3,12.1-8.2,10-17c0.2-2.5,1.6-4.3,3.6-5.6
		C64.9,37.5,66.6,37.4,67.7,39.6z"/>
	<path class="st3" d="M46.9,64.5c-3.4,1.7-7.1,0.9-10.6,0.7c-6.4-0.2-10.6,2.6-13.3,8c-0.7,0-1.3,0-2,0C13.4,70,5.8,66.5,0,60.3
		c0-2.3,0-4.6,0-6.9c0.3-0.4,0.6-0.5,0.9,0c2.7-1.6,3.8-6.2,8.3-4.9c1.7,2.3,0,6,3.6,7.7c5.4,2.6,10,7.3,16.7,6.8c4-0.3,8-0.1,12,0
		C43.3,63,45.4,62.7,46.9,64.5z"/>
	<path class="st4" d="M160.3,33.7c3.8,0,7.7,0.2,11.5-0.1c2.7-0.1,3.3,0.9,3.4,3.4c0.3,17.3-11,30.3-27.2,31.2
		c-19,1-32.7-10.6-34.2-28.6c-1-12.5,2.6-22.9,13.4-29.9s22.4-7.3,34-1.4c5.4,2.7,8.8,7.3,11.2,12.8c0.9,2.1,0.6,3-1.9,3
		c-4.1-0.1-7.4,0.1-10.6-4.1c-5.1-6.7-13-7.3-20.9-5.1c-8.2,2.3-12.6,8.3-14,16.3c-0.8,4.7-0.7,9.5,0.9,14.2
		c2.9,8.6,10.3,13.3,20.5,13.1c9.5-0.1,15.2-4.1,17.8-12c1-3,0.8-4.2-2.7-4c-4.1,0.2-8.3-0.2-12.5,0.1c-4,0.3-3.1-2.4-3.1-4.5
		s-1-4.8,3.1-4.5C152.7,33.9,156.5,33.7,160.3,33.7z"/>
	<path class="st4" d="M271.2,48.5c5.1-13.2,10.2-26.5,15.3-39.7c1.3-0.6,10.5-4.8,12.2-3.4c0.5,0.4,0.6,0.9,0.6,0.9
		c0.4,1.1-0.8,2.4-0.9,2.6c-2.6,3.2-21.9,57.1-25.7,59c-1,0.5-2,0.4-2,0.4s-0.9,0-1.8-0.5c-3.7-2-23.6-55.4-26.1-59
		c-0.2-0.2-1.1-1.5-0.7-2.5c0.3-0.7,1.1-1,1.4-1.1c2.8-1,10.2,3.8,11.3,4.5C260.2,22.7,265.7,35.6,271.2,48.5z"/>
	<path class="st5" d="M351.9,34.8c0-0.7-0.1-1.6-0.7-2.3c-1.1-1.3-2.7-0.7-3.7-2c-0.6-0.7-0.5-1.6-0.5-2.9c0-1.1,0-2.2,0.8-3
		c0.6-0.6,1.4-0.7,2.4-0.8c4-0.1,8.2-0.8,10.3,3.9c0.8,1.7,1.5,1.2,2.5,0.3c3.9-3.6,8.7-4.4,13.9-4.2c0.7,0,9.2,0.6,13.3,7.4
		c1.6,2.7,2,5.4,2.1,7c0.1,9.7,0.2,19.4,0.4,29c-3.1,0-6.2-0.1-9.3-0.1c0-6.5-0.2-14.9-0.9-24.1c-0.2-2.9-0.6-6.9-3.5-9.3
		c-1.6-1.3-3.6-2-6.1-2c-0.2,0-3.7,0-6.4,1.9c-4.4,3.1-4.8,9.6-5.2,20c-0.1,3.3-0.2,7.8,0.2,13.3c-3,0-6.1-0.1-9.1-0.1
		C352.2,56.2,352.1,45.5,351.9,34.8z"/>
	<path class="st4" d="M454.1,61.8c-0.9,1.2-2.5,2.7-4.7,4.1c-0.8,0.5-8.9,5.2-16.4,1.3c-4.1-2.1-6-5.7-7-7.5
		c-2.7-5-2.5-9.9-2.3-11.9c0-7.6,0-15.3,0-22.9c2.9,0,6.1-0.1,9-0.1c-0.3,4.9-0.4,9.1-0.5,12.1c-0.1,7.5,0.2,10.2,0.8,12.8
		c0.9,3.6,1.8,7.5,5.2,9.4c1.9,1.1,4,1.1,4.4,1.2c0.2,0,2.8,0,5.1-1.2c4.7-2.5,5.6-8.9,6.1-12.1c0.4-2.8,0.2-4.1,0-10.5
		c-0.2-5-0.2-9-0.2-11.6c3.1-0.1,6.3-0.2,9.4-0.3c0.4,16.2,0.4,27.3,0,30.8c-0.1,0.7-0.4,3.5,1.1,4.6c0.4,0.3,0.9,0.4,2.3,1.2
		c0.7,0.4,1.2,0.7,1.5,0.9c-0.1,1.7-0.2,3.4-0.3,5.1c-1,0.6-1.9,0.9-2.7,1C459.2,69.1,454.3,62.2,454.1,61.8z"/>
	<path class="st0" d="M325.7,30.9c0-9.5,0.3-17.2-0.1-24.9c-0.2-4.8,2.8-3.7,5.5-3.9c3-0.2,4.9,0,4.8,4c-0.2,14.5-0.1,29-0.1,43.4
		c0,8.2,0,8.2,8.1,10.5c0.4,0.1,0.9,0.4,1.3,0.8c1.4,1.5,1.5,4.5,0,6.1c-0.6,0.6-1.3,0.9-1.7,1c-8.3,2.3-15.4-1.9-17-10.3
		C324.7,48.3,326.3,38.7,325.7,30.9z"/>
	<path class="st0" d="M306.2,25c2.8-0.1,5.6-0.1,8.4-0.2c0,14.1,0,28.1,0,42.2c-2.8,0-5.6,0-8.4,0C306.2,53,306.2,39,306.2,25z"/>
	<path class="st0" d="M412.4,67.1c-2.8,0-5.7-0.1-8.5-0.1c0-14,0-28.1,0-42.1c2.8,0,5.6,0,8.5,0C412.3,38.9,412.3,53,412.4,67.1z"/>
	<path class="st6" d="M39.9,12.6c-0.2-3.5,0.2-6.7,4.9-6.6c2.5,1.2,4.3,1.5,4.3-2.3c0-2.2,1.3-3.3,3.7-1.9c0.5,0.3,1.3,0.3,1.9,0.6
		c9.6,3.2,9.6,3.2,10,13.5c-3.8-0.9-5,2.7-7.4,4.2c-2.6-1.6-1.1-4.6-2.5-7.2c-1.6,3-4,4.1-7.1,3C45,14.9,41.7,15.7,39.9,12.6z"/>
	<path class="st7" d="M57.8,20c1.1-5.2,3.5-6.7,6.9-4.2c1,7.9,2,15.9,3,23.8c-5.3-2.2-5.8,1.9-6.9,5.2c-0.3-0.1-0.9-0.1-0.9-0.3
		C57.6,36.4,55.4,28.4,57.8,20z"/>
	<path class="st4" d="M203.5,23.8c-13.8-0.1-22.8,8.4-22.9,21.7c-0.1,13.6,9,22.8,22.5,22.8c13.2,0,22.6-9.1,22.8-22.2
		C226.2,32.9,217,23.8,203.5,23.8z M203.2,59.4c-7.6,0-12.8-5.6-12.7-13.8c0.1-8.1,4.9-13,12.9-13c7.7,0.1,12.5,5.2,12.5,13.4
		C215.8,53.9,210.6,59.4,203.2,59.4z"/>
</g>
<circle class="st0" cx="310.4" cy="9.9" r="5.8"/>
<circle class="st0" cx="408.1" cy="11.5" r="5.8"/>
</svg>
