<?xml version="1.0" encoding="utf-8"?>
<!-- Generator: Adobe Illustrator 24.0.3, SVG Export Plug-In . SVG Version: 6.00 Build 0)  -->
<svg version="1.1" id="Layer_1" xmlns="http://www.w3.org/2000/svg" xmlns:xlink="http://www.w3.org/1999/xlink" x="0px" y="0px"
	 viewBox="0 0 510.4 73.3" style="enable-background:new 0 0 510.4 73.3;" xml:space="preserve">
<style type="text/css">
	.st0{fill:#C1282E;}
	.st1{fill:#D81E25;}
	.st2{fill:#AC1F23;}
	.st3{fill:#C11F24;}
	.st4{fill:#C1272D;}
	.st5{fill:#C1282D;}
	.st6{fill:#C92025;}
	.st7{fill:#B82126;}
	.st8{fill:#C22B30;}
	.st9{fill:#C22B31;}
</style>
<g>
	<path class="st0" d="M511.2,59.4c-7.3,8.9-18.2,11.7-29.3,7.5c-3.5-1.3-5.1-2.7-6.1-4.1c-0.3-0.4-2.8-4.2-1-6.6
		c1-1.4,2.9-1.7,4.4-1.5c2.1,0.3,3.2,1.7,4.4,2.8c4.6,4.1,13.3,4.7,16.9,1.4c3.1-2.9,2.3-6.9-1.9-8.4c-3.7-1.4-7.8-1.4-11.7-2.1
		c-8.7-1.4-13-5.1-13.2-11c-0.2-6.1,4.6-11.6,12.6-13.1c5.9-1.1,11.9-1,17.5,1.8c1.8,0.9,3.5,1.9,4.6,3.6c0.8,1.1,2.9,3.7,2,5.8
		c-0.6,1.3-1.9,1.8-2.3,1.9c-2,0.7-3.9-0.3-4.5-0.6c-1.4-0.7-2.1-1.7-2.5-2.2c-2.5-3.9-12.4-4.5-15.9-1.3c-2.9,2.6-2.3,6.1,1.5,7.2
		c3.5,1,7.1,1.6,10.7,2c5.9,0.6,10.7,2.8,13.9,8c0.4,0.7,1.1,2.3,1.1,4.3C512.4,57,511.6,58.6,511.2,59.4z"/>
	<path class="st1" d="M44.9,0c0,2,0,4-0.1,6c-2.9,1.5-3.1,5.1-5.4,7.1c-0.9-0.3-1.2-1-1.6-1.8c-1.9-3.4-2.6-3.5-4.9-0.3
		c-3.9,5.1-11.7,6.4-17.4,2.4c-1.7,7.9-2,15.7-3.3,23.4c-0.6,4.1,0.1,8.6-2.6,12.3C7.3,50,5,50.9,3.3,52.8c-0.7,0.7-1.7,1.8-2.8,0.4
		C0.4,38.3,3.1,23.7,4.9,9c0.7-5.6,5.5-6.5,9.9-7.6c3.2-0.8,6.7-1.8,8.3,2.5c1.8-0.9,1.6-2.8,2.8-3.7C32.3,0,38.6,0,44.9,0z"/>
	<path class="st2" d="M67.7,39.6c0.9,6.2,1.6,12.3,2.7,18.5c0.5,2.6-1.2,3.1-2.7,4c-5.9,3.8-12.4,6.7-17.8,11.2c-9,0-18,0-27,0
		c0.5-5,5-8.8,10.7-9.2c4.1-0.3,8.2,0.6,12.2-0.6c1.3-0.7,2.5-1.7,3.8-2.2c8-3,12.1-8.2,10-17c0.2-2.5,1.6-4.3,3.6-5.6
		C64.9,37.5,66.6,37.4,67.7,39.6z"/>
	<path class="st3" d="M46.9,64.5c-3.4,1.7-7.1,0.9-10.6,0.7c-6.4-0.2-10.6,2.6-13.3,8c-0.7,0-1.3,0-2,0C13.4,70,5.8,66.5,0,60.3
		c0-2.3,0-4.6,0-6.9c0.3-0.4,0.6-0.5,0.9,0c2.7-1.6,3.8-6.2,8.3-4.9c1.7,2.3,0,6,3.6,7.7c5.4,2.6,10,7.3,16.7,6.8c4-0.3,8-0.1,12,0
		C43.3,63,45.4,62.7,46.9,64.5z"/>
	<path class="st4" d="M160.3,33.7c3.8,0,7.7,0.2,11.5-0.1c2.7-0.1,3.3,0.9,3.4,3.4c0.3,17.3-11,30.3-27.2,31.2
		c-19,1-32.7-10.6-34.2-28.6c-1-12.5,2.6-22.9,13.4-29.9c10.8-7,22.4-7.3,34-1.4c5.4,2.7,8.8,7.3,11.2,12.8c0.9,2.1,0.6,3-1.9,3
		c-4.1-0.1-7.4,0.1-10.6-4.1c-5.1-6.7-13-7.3-20.9-5.1c-8.2,2.3-12.6,8.3-14,16.3c-0.8,4.7-0.7,9.5,0.9,14.2
		c2.9,8.6,10.3,13.3,20.5,13.1c9.5-0.1,15.2-4.1,17.8-12c1-3,0.8-4.2-2.7-4c-4.1,0.2-8.3-0.2-12.5,0.1c-4,0.3-3.1-2.4-3.1-4.5
		s-1-4.8,3.1-4.5C152.7,33.9,156.5,33.7,160.3,33.7z"/>
	<path class="st4" d="M271.2,48.5c4.8-13.4,9.7-26.7,15.3-39.7c1.3-3,9.7-5.4,12.2-3.4c1.5,1.2,0.1,2.5-0.3,3.5
		c-7.6,17.8-15.2,35.6-22.9,53.4c-0.5,1.1-0.9,2.1-1.3,3.2c-0.6,1.6-1.2,2.9-3.5,2.8c-2.2-0.1-2.7-1.4-3.4-3
		c-6.2-14.5-12.5-28.9-18.8-43.4c-1.9-4.4-3.8-8.7-5.7-13.1c-1.1-2.5-1.2-3.8,2.3-3.8c8.1-0.1,8.2-0.3,11.1,7
		c4.4,11.1,8.7,22.3,13.1,33.4C269.8,46.4,269.8,47.7,271.2,48.5z"/>
	<path class="st5" d="M351.7,50c0-4.4,0.1-8.9,0-13.3c-0.1-2.2,0.9-4.8-3.1-5.5c-2.3-0.4-0.9-3.4-1.1-5.2c-0.2-1.9,1.3-2,2.7-2.1
		c4-0.1,8.2-0.8,10.3,3.9c0.8,1.7,1.5,1.2,2.5,0.3c3.9-3.6,8.7-4.4,13.9-4.2c8.4,0.3,15,6.1,15.4,14.4c0.4,8.7,0.2,17.5,0.4,26.2
		c0.1,4.5-3.1,2.9-5.1,2.9c-2.1,0-5.2,1.5-5.1-3c0.2-7.1,0.1-14.2,0-21.3c0-7.2-3.5-11.2-9.6-11.3c-6.4-0.1-10.6,4.4-10.7,11.6
		c-0.1,6.8-0.3,13.5,0.1,20.3c0.3,4.8-2.8,3.8-5.4,3.8c-2.8,0.1-5.7,0.7-5.3-4C352.1,58.9,351.7,54.4,351.7,50z"/>
	<path class="st4" d="M454.1,61.8c-3.4,4.2-7.4,5.8-11.8,6.3c-11,1.2-18.3-5.2-18.8-16.7c-0.3-7.9,0.1-15.8-0.2-23.7
		c-0.1-4.4,2.9-3.1,5.1-3.1c2.1,0,5.3-1.5,5.1,3c-0.2,6.9-0.1,13.9,0,20.8c0.1,7.5,3.6,11.9,9.2,11.9c6.3,0.1,10.6-4.9,10.7-12.3
		c0-6.8,0.2-13.5-0.1-20.3c-0.2-4.4,2.9-3.1,5-3.1s5.1-1.4,5,3.1c-0.2,9.2-0.1,18.5-0.1,27.7c0,2.6,0,5.1,3.3,5.8
		c2.9,0.7,1.3,2.9,1.5,4.5c0.3,2.1-1.3,2.3-2.9,2.5C460.2,68.7,455.8,68.1,454.1,61.8z"/>
	<path class="st0" d="M325.7,30.9c0-9.5,0.3-17.2-0.1-24.9c-0.2-4.8,2.8-3.7,5.5-3.9c3-0.2,4.9,0,4.8,4c-0.2,14.5-0.1,29-0.1,43.4
		c0,8.2,0,8.2,8.1,10.5c2.4,0.7,1.3,2.7,1.5,4.1c0.2,1.5,0.5,3.2-1.9,3.8c-8.3,2.3-15.4-1.9-17-10.3
		C324.7,48.3,326.3,38.7,325.7,30.9z"/>
	<path class="st0" d="M305.5,46c0-6.1,0.2-12.2-0.1-18.2c-0.2-3.8,2.2-3.5,4.4-3.2c2.1,0.3,5.7-1.9,5.6,3c-0.1,12.2-0.2,24.3,0,36.5
		c0.1,4.8-3.3,2.9-5.4,3.2c-2.5,0.3-4.9,0.7-4.6-3.5C305.8,57.9,305.5,52,305.5,46z"/>
	<path class="st0" d="M413.2,46c0,6.1-0.1,12.2,0,18.3c0.1,4.9-3.5,2.6-5.7,2.9c-2.1,0.3-4.6,0.9-4.5-3.1c0.2-12.2,0.2-24.4,0-36.5
		c-0.1-4.5,3-2.9,5.1-3c2.2-0.1,5.2-1.3,5,3.1C413.1,33.8,413.2,39.9,413.2,46z"/>
	<path class="st6" d="M39.9,12.6c-0.2-3.5,0.2-6.7,4.9-6.6c2.5,1.2,4.3,1.5,4.3-2.3c0-2.2,1.3-3.3,3.7-1.9c0.5,0.3,1.3,0.3,1.9,0.6
		c9.6,3.2,9.6,3.2,10,13.5c-3.8-0.9-5,2.7-7.4,4.2c-2.6-1.6-1.1-4.6-2.5-7.2c-1.6,3-4,4.1-7.1,3C45,14.9,41.7,15.7,39.9,12.6z"/>
	<path class="st7" d="M57.8,20c1.1-5.2,3.5-6.7,6.9-4.2c1,7.9,2,15.9,3,23.8c-5.3-2.2-5.8,1.9-6.9,5.2c-0.3-0.1-0.9-0.1-0.9-0.3
		C57.6,36.4,55.4,28.4,57.8,20z"/>
	<path class="st8" d="M310.5,5.6c3.4,0.3,5.8,2.1,5.8,5.8c0,3.7-2.5,5.8-6,5.8s-5.8-1.8-5.8-5.8C304.5,7.5,306.8,5.9,310.5,5.6z"/>
	<path class="st9" d="M402.3,11.6c0-4.3,2.5-6,6-5.9c3.7,0.1,5.9,2.3,5.8,6s-2.8,5.7-6.2,5.6C404.4,17.2,402,15.2,402.3,11.6z"/>
	<path class="st4" d="M203.5,23.8c-13.8-0.1-22.8,8.4-22.9,21.7c-0.1,13.6,9,22.8,22.5,22.8c13.2,0,22.6-9.1,22.8-22.2
		C226.2,32.9,217,23.8,203.5,23.8z M203.2,59.4c-7.6,0-12.8-5.6-12.7-13.8c0.1-8.1,4.9-13,12.9-13c7.7,0.1,12.5,5.2,12.5,13.4
		C215.8,53.9,210.6,59.4,203.2,59.4z"/>
</g>
</svg>
