<?xml version="1.0" encoding="utf-8"?>
<!-- Generator: Adobe Illustrator 24.0.3, SVG Export Plug-In . SVG Version: 6.00 Build 0)  -->
<svg version="1.1" id="Layer_1" xmlns="http://www.w3.org/2000/svg" xmlns:xlink="http://www.w3.org/1999/xlink" x="0px" y="0px"
	 viewBox="0 0 861.3 383.5" style="enable-background:new 0 0 861.3 383.5;" xml:space="preserve">
<style type="text/css">
	.st0{fill:#112038;}
</style>
<g>
	<path class="st0" d="M346.9,168c-18.3,0-35.2,0-52.2,0c-1.8,0-2.7-0.8-3.6-2.1c-19-26.6-38-53.3-57.6-80.6c5.5,0,10.4,0,15.2,0
		c7.1-0.1,13.8-1.2,20-5.1C278,74.4,282.2,63.8,280,51c-1.5-9.1-8-15.2-18.7-17.6c-10.4-2.3-20.9-1-31.4-1.3
		c-1.7-0.1-2.5,0.5-2.4,2.3c0.1,1.3,0,2.7,0,4c0,41.5-0.1,82.9,0.1,124.4c0,4.5-1.3,5.5-5.6,5.4c-11-0.3-22-0.2-33,0
		c-3.3,0.1-4.1-0.9-4.1-4.2c0.1-53.3,0.1-106.6,0-159.9c0-3,0.7-3.9,3.8-3.9c24.5,0.1,49-0.1,73.4,0.2c9.3,0.1,18.6,1.5,27.5,4.2
		c23.1,6.9,35.4,26.1,33.8,51.3c-1.4,21-12,35.3-30.8,44.7C310.7,122.8,328.4,144.9,346.9,168z"/>
	<path class="st0" d="M832.3,252.9c-2.5,4.4-4.9,7.8-6.6,11.6c-3.7,8.5-10.4,10.8-19.1,10.7c-21.9-0.1-42.8-5.1-63.5-11.7
		c-21.9-6.9-42.9-16.2-64.5-23.8c-16.7-5.8-33.6-10.5-51.2-12.6c-20.3-2.5-39.8,2-59,7.4c-24.5,6.8-47.6,17.5-71.6,26
		c-22.7,8-45.7,14.8-69.9,14.5c-20.3-0.2-40-4.8-59-11.5c-24.7-8.7-49.1-18.4-73.9-27.1c-13.6-4.8-27.9-7.6-42.3-9.3
		c-20.1-2.4-39.4,2-58.5,7.5c-24.5,7-47.7,17.4-71.6,26c-22.6,8.1-45.7,14.2-70,14.5c-4.3,0.1-8.6-0.7-12.9-0.9
		c-1.6-0.1-2.7-0.7-3.7-2c-4.3-5.7-8-11.8-11.5-19.1c5.1,0.7,9.5,1.3,13.9,2.1c19.5,3.2,38.4-0.5,57.1-5.5
		c23.7-6.3,45.9-16.6,68.8-24.9c25.1-9.1,50.6-16.8,77.6-16.5c26.2,0.3,51.2,7.3,75.7,16.4c20.9,7.7,41.5,16.1,62.6,23.1
		c31.1,10.3,62.2,11.1,93.6,1.2c23.2-7.3,45.4-17,68.2-25.1c26.3-9.3,53-17.3,81.3-15.3c24.8,1.7,48.7,8.4,72,17.2
		c23.4,8.9,46.5,18.8,70.8,25.2c21,5.5,42.2,7.8,63.7,2.6C829.6,253.1,830.5,253.1,832.3,252.9z"/>
	<path class="st0" d="M554.9,84.2c0-26.5,0.1-53-0.1-79.4c0-3.7,0.7-4.8,4.6-4.7c9.8,0.3,19.7,0.4,29.5,0c4.4-0.2,5.1,1.4,5,5.3
		c-0.2,17.5,0,35-0.2,52.4c0,3.4,0.7,4.5,4.3,4.4c20-0.2,40-0.2,60,0c3.5,0,4.4-0.9,4.4-4.4c-0.2-17.6,0.1-35.3-0.2-52.9
		c-0.1-4.1,1.3-4.9,5-4.8c10,0.2,20,0.2,30,0c2.8,0,4,0.3,4,3.7c-0.1,53.4-0.1,106.9,0,160.3c0,3.1-0.9,3.9-3.9,3.9
		c-10.3-0.2-20.7-0.2-31,0c-3.6,0.1-4-1.3-4-4.4c0.1-21-0.1-42,0.2-62.9c0-4-1.2-4.9-5-4.8c-19.5,0.2-39,0.2-58.5,0
		c-4,0-5.3,0.7-5.2,5.1c0.3,20.8,0,41.6,0.2,62.4c0,3.8-1,4.8-4.7,4.7c-10-0.3-20-0.3-30,0c-3.6,0.1-4.4-1-4.4-4.5
		C555,137.2,554.9,110.7,554.9,84.2z"/>
	<path class="st0" d="M161.8,115.9c0,9.3,0,18.7,0,28c0,2.1-0.2,3.8-2.4,4.9c-32.6,17.1-66.8,24.6-103,14.3
		C22,153.2,0.3,123.6,0,87.6c-0.2-29.9,9.9-54.7,35.4-71.8C51.4,5.1,69.5,1.5,88.3,0.2c23.4-1.6,45,5,66.2,14.1
		c2.2,0.9,2.3,2.4,2.3,4.3c-0.1,8-0.2,16,0,24c0.1,3.9-0.9,4.1-4.1,2.5c-11.6-5.9-23.4-11.1-36.3-13.4c-12.6-2.2-25.1-2.8-37.5,1.4
		c-21,7.1-35,25.9-35.9,48c-0.3,7.5,0,15,2.2,22.3c7.5,25.5,28.5,38.1,55.5,33.4c5.7-1,11.4-2.4,16.8-4.4c2.7-1,3.4-2.3,3.4-5.1
		c-0.1-13,0.1-26-0.1-39c-0.1-3.5,0.5-5,4.5-4.8c10.7,0.3,21.3,0.3,32,0c3.9-0.1,4.7,1.1,4.6,4.8
		C161.7,97.5,161.8,106.7,161.8,115.9z"/>
	<path class="st0" d="M739.9,84c0-26.5,0.1-53-0.1-79.5c0-3.5,0.8-4.4,4.3-4.4c35.2,0.1,70.3,0.1,105.5,0c3.6,0,4.4,1,4.3,4.4
		c-0.3,8-0.3,16,0,24c0.2,3.9-1.2,4.6-4.8,4.6c-20.7-0.2-41.3,0-62-0.2c-3.8,0-4.8,1-4.6,4.7c0.3,7.3,0.3,14.7,0,22
		c-0.1,3.2,1,3.8,3.9,3.8c17-0.1,34,0,51-0.1c3.4,0,4.6,0.8,4.4,4.4c-0.3,7.5-0.3,15,0,22.5c0.1,3.8-0.7,5.1-4.8,5
		c-16.7-0.3-33.3,0-50-0.2c-3.9-0.1-4.7,1.1-4.6,4.7c0.3,10.2,0.3,20.3,0,30.5c-0.1,3.8,0.9,5,4.9,5c23.7-0.2,47.3,0,71-0.2
		c3.6,0,4.9,0.7,4.7,4.6c-0.3,8.1-0.2,16.3-0.1,24.5c0,2.8-0.3,4.1-3.7,4.1c-38.6-0.1-77.3-0.1-116,0c-3.5,0-3.6-1.5-3.6-4.2
		C739.9,137.3,739.9,110.6,739.9,84z"/>
	<path class="st0" d="M765.7,305.4c-4.1,5.3-8.9,9.1-13.6,13c-2,1.7-3.8,0.3-5.6-0.3c-28.1-9.5-56.2-19.4-84.4-28.6
		c-18.7-6.1-37.9-10.5-57.8-8.4c-17.9,1.9-35.4,5.8-52.3,12.2c-24.2,9.1-47.9,19.9-72.7,27.2c-16.3,4.7-32.8,8.8-49.9,8.8
		c-22.7,0-44.5-5.4-65.7-12.9c-21.7-7.7-43.2-16.2-64.8-24.4c-38.4-14.6-76.6-13.9-115,0.3c-24.9,9.2-50.2,17.3-75.3,26.1
		c-2.7,0.9-4.5,0.8-6.8-1c-4.3-3.5-8.1-7.3-12.3-11.7c17.3-6.1,33.9-12.1,50.6-18c21-7.4,42-14.7,63.5-20.5
		c29.4-7.9,58.2-5.6,87.1,2.4c19.9,5.5,38.8,13.8,58,21.2c18.9,7.3,38,14,58.1,17.6c22.4,4,44,0.6,65.5-5.6
		c26.1-7.5,50.6-19.2,76.2-28c21-7.3,42.5-12.3,64.8-12.9c14-0.3,27.8,2.6,41.3,6.2C692.3,277.9,728.3,293,765.7,305.4z"/>
	<path class="st0" d="M699.7,336.8c-7.1,4.3-13.3,8.1-19.5,11.8c-2.3,1.4-4.3-0.2-6.2-0.9c-14.3-5.1-28.8-9-43.8-11.6
		c-21.4-3.7-42.1,0.4-62.5,6.4c-21.4,6.3-41.8,15.1-62.6,23.1c-20.7,7.9-41.8,14.6-63.9,17.2c-24.1,2.9-47.3-2.8-70.1-10
		c-25.2-7.9-49.2-19.2-74.3-27.4c-21-6.8-42.2-12.2-64.6-10.3c-15.7,1.3-30.8,5.5-45.4,10.9c-7.1,2.6-13,3.4-19.2-1.9
		c-3.2-2.7-7.2-4.6-11.5-7.2c10.8-5.1,21.5-8.3,32.2-11.4c22.9-6.7,46.1-12,70.3-8.4c17,2.5,33.5,6.9,49.8,12.4
		c20.8,7,41,15.5,61.6,23c39.9,14.6,79.1,14.5,118.8-0.7c23.4-9,46.4-19.1,70.5-26.1c23-6.6,46.1-12.1,70.2-8.6
		c17.2,2.4,33.8,7,50.3,12.4C686.2,331.6,692.4,334.1,699.7,336.8z"/>
	<path class="st0" d="M504.2,23C485.9,7,463.9,0.9,440.9,0.2c-19.3-0.1-36.9,4-53.3,13.2c-47.4,26.6-55,94.7-14.5,130.8
		c28.8,25.6,75,31.4,111.4,13.9C538.3,132.4,548.6,61.9,504.2,23z M457.7,135.4c-30.1,10.7-64.2-4.6-68.9-42.4
		c-2.1-16.5,0.5-32,11.2-45.1c14.1-17.2,32.7-21.8,53.5-16.3c20,5.2,31,19.5,35.4,39.3c1,4.4,1.1,8.9,1.2,13.4
		C490.2,108.7,478.4,128,457.7,135.4z"/>
</g>
</svg>
