<?xml version="1.0" encoding="utf-8"?>
<!-- Generator: Adobe Illustrator 23.0.1, SVG Export Plug-In . SVG Version: 6.00 Build 0)  -->
<svg xmlns="http://www.w3.org/2000/svg" xmlns:xlink="http://www.w3.org/1999/xlink" version="1.1" style="" xml:space="preserve" width="1494.2307665221088" height="455.23076652210875"><rect id="backgroundrect" width="100%" height="100%" x="0" y="0" fill="none" stroke="none" class="" style=""/>
<style type="text/css">
	.st0{fill:#28345C;}
	.st1{fill:#00D3B7;}
	.st2{fill:#00DADC;}
	.st3{fill:#928DF2;}
	.st4{fill:#4057E3;}
	.st5{fill:#24345F;}
</style>

<g class="currentLayer" style=""><title>Layer 1</title><g id="svg_1" class="selected">
	<path class="st0" d="M1178.5402824373232,307.4481017655928 l-13.621312170899854,-25.110592871571903 c-0.9475695423234686,-1.6582466990660696 -2.6058162413895385,-2.6058162413895385 -4.38250913324604,-2.6058162413895385 c-0.7106771567426017,0 -1.5398005062756357,0.11844619279043386 -2.250477663018237,0.4737847711617353 c-7.699002531378178,3.6718319765034417 -15.516451255546789,5.685417253940808 -23.926130943667566,5.685417253940808 c-8.883464459282512,0 -16.819359376241557,-2.4873700485991037 -22.504776630182366,-7.935894916959046 c-5.803863446731242,-5.330078675569508 -9.001910652072947,-13.384419785318986 -9.001910652072947,-23.6892385580867 V160.69326889824572 h47.26003092338296 c5.803863446731242,0 10.423264965558149,-4.7378477116173405 10.423264965558149,-10.423264965558149 v-23.333899979715397 c0,-5.803863446731242 -4.7378477116173405,-10.423264965558149 -10.423264965558149,-10.423264965558149 h-47.26003092338296 l0,-70.59393090309837 c0,-8.054341109749478 -9.712587808815547,-12.081511664624218 -15.398005062756356,-6.396094410683409 l-25.584377642733635,25.584377642733635 c-7.225217760216444,7.225217760216444 -11.252388315091183,16.93780556903199 -11.370834507881616,27.124178149009275 c0,0.11844619279043386 0,0.23689238558086761 0,0.3553385783713015 l0,162.86351508684606 c0,24.518361907619735 7.817448724168612,42.759075597346495 20.491191352744995,54.95903345476114 c12.792188821366818,12.19995785741465 30.796010125512712,18.59605226809806 51.642540056629024,18.59605226809806 c18.714498460888493,0 36.71831976503439,-4.8562939044077735 53.89301771964725,-14.568881713223321 c1.6582466990660696,-0.9475695423234686 2.7242624341799706,-2.7242624341799706 2.7242624341799706,-4.500955326036474 C1179.1325134012754,308.9879022718685 1178.8956210156946,308.27722511512593 1178.5402824373232,307.4481017655928 " id="svg_2"/>
	<path class="st1" d="M63.48782350818205,87.73041413933868 c-4.38250913324604,-4.38250913324604 -11.607726893462484,-4.38250913324604 -15.990236026708523,0 l-19.543621810421527,19.543621810421527 c-4.38250913324604,4.38250913324604 -4.38250913324604,11.607726893462484 0,15.990236026708523 l65.50074461310973,65.50074461310973 c4.38250913324604,4.38250913324604 11.607726893462484,4.38250913324604 15.990236026708523,0 l19.543621810421527,-19.543621810421527 c4.38250913324604,-4.38250913324604 4.38250913324604,-11.607726893462484 0,-15.990236026708523 L63.48782350818205,87.73041413933868 z" id="svg_3"/>
	<path class="st2" d="M243.64448274243145,87.73041413933868 c-4.38250913324604,-4.38250913324604 -11.607726893462484,-4.38250913324604 -15.990236026708523,0 l-65.50074461310973,65.50074461310973 c-4.38250913324604,4.38250913324604 -4.38250913324604,11.607726893462484 0,15.990236026708523 l19.543621810421527,19.543621810421527 c4.38250913324604,4.38250913324604 11.607726893462484,4.38250913324604 15.990236026708523,0 l65.50074461310973,-65.50074461310973 c4.38250913324604,-4.38250913324604 4.38250913324604,-11.607726893462484 0,-15.990236026708523 L243.64448274243145,87.73041413933868 z" id="svg_4"/>
	<path class="st3" d="M109.44494631087031,220.15325767904335 c-4.38250913324604,-4.38250913324604 -11.607726893462484,-4.38250913324604 -15.990236026708523,0 l-65.50074461310973,65.50074461310973 c-4.38250913324604,4.500955326036474 -4.38250913324604,11.607726893462484 0,15.990236026708523 l19.543621810421527,19.543621810421527 c4.38250913324604,4.38250913324604 11.607726893462484,4.38250913324604 15.990236026708523,0 l65.50074461310973,-65.50074461310973 c4.38250913324604,-4.38250913324604 4.38250913324604,-11.607726893462484 0,-15.990236026708523 L109.44494631087031,220.15325767904335 z" id="svg_5"/>
	<path class="st4" d="M197.56891374695275,220.15325767904335 c-4.38250913324604,-4.38250913324604 -11.607726893462484,-4.38250913324604 -15.990236026708523,0 l-19.543621810421527,19.543621810421527 c-4.38250913324604,4.38250913324604 -4.38250913324604,11.607726893462484 0,15.990236026708523 l65.50074461310973,65.50074461310973 c4.38250913324604,4.38250913324604 11.607726893462484,4.38250913324604 15.990236026708523,0 l19.543621810421527,-19.543621810421527 c4.38250913324604,-4.38250913324604 4.38250913324604,-11.607726893462484 0,-15.990236026708523 L197.56891374695275,220.15325767904335 z" id="svg_6"/>
	<path class="st5" d="M131.3574919771005,80.50519637912237 h28.42708626970404 c6.396094410683409,0 11.607726893462484,-5.211632482779074 11.607726893462484,-11.607726893462484 V36.32476646829056 c0,-6.396094410683409 -5.211632482779074,-11.607726893462484 -11.607726893462484,-11.607726893462484 h-28.42708626970404 c-6.396094410683409,0 -11.607726893462484,5.211632482779074 -11.607726893462484,11.607726893462484 v32.454256824578785 C119.63131889084752,75.29356389634316 124.84295137362666,80.38675018633182 131.3574919771005,80.50519637912237 z" id="svg_7"/>
	<path class="st5" d="M845.7064806962051,111.06431411905413 c-28.190193884123175,0.11844619279043386 -48.681385236868174,10.423264965558149 -62.30269740776803,30.796010125512712 l-4.974740097198207,7.46211014579731 v-20.846529931116297 c0,-6.6329867962642775 -5.448524868359941,-12.081511664624218 -12.081511664624218,-12.081511664624218 h-27.716409112961443 c-6.6329867962642775,0 -12.081511664624218,5.448524868359941 -12.081511664624218,12.081511664624218 l0,182.525583090058 c0,7.580556338587744 6.159202025102543,13.739758363690285 13.739758363690285,13.739758363690285 h24.755254293200604 c7.580556338587744,0 13.739758363690285,-6.159202025102543 13.739758363690285,-13.739758363690285 v-94.99384661792769 c0,-17.766928918565025 4.264062940455607,-33.16493398132138 12.673742628576386,-44.1804299108317 c8.409679688120779,-11.015495929510317 21.083422316697163,-17.648482725774592 36.955212150615246,-17.53003653298416 c12.910635014157254,0 23.333899979715397,4.264062940455607 30.08533296877011,12.792188821366818 c6.869879181845143,8.528125880911213 9.949480194396415,20.846529931116297 10.067926387186848,36.836765957824824 v110.86563645184577 c0,5.566971061150375 4.500955326036474,9.949480194396415 10.067926387186848,10.067926387186848 h28.545532462494474 c7.580556338587744,0 13.739758363690285,-6.159202025102543 13.739758363690285,-13.739758363690285 V191.37083283096803 c0,-25.584377642733635 -8.054341109749478,-45.6017842243169 -21.320314702278033,-59.22309639521676 C886.3335248233236,118.40797807206104 867.6190263624352,111.06431411905413 845.7064806962051,111.06431411905413 z" id="svg_8"/>
	<path class="st5" d="M1454.2830192534525,223.11441249880414 c-4.264062940455607,-3.4349395909225713 -9.949480194396415,-6.869879181845143 -17.29314414740329,-9.949480194396415 c-15.161112677175488,-6.159202025102543 -23.333899979715397,-7.46211014579731 -40.98238270548999,-10.660157351139016 l-5.448524868359941,-0.9475695423234686 c-10.186372579977283,-1.895139084646936 -18.714498460888493,-3.4349395909225713 -25.821270028314512,-5.566971061150375 c-7.10677156742601,-2.1320314702278034 -12.792188821366818,-4.7378477116173405 -16.700913183451124,-9.12035684486338 c-2.6058162413895385,-2.9611548197608375 -4.38250913324604,-6.6329867962642775 -5.093186289988641,-11.015495929510317 l0,-0.4737847711617353 c0,-6.159202025102543 2.842708626970404,-12.318404050205086 8.76501826649208,-16.46402079787026 c5.922309639521675,-4.145616747665173 14.687327906013756,-6.5145406034738444 26.768839570637972,-6.5145406034738444 c17.056251761822427,0 32.454256824578785,5.093186289988641 46.19401518826907,14.92422029159462 c1.1844619279043351,0.8291233495330348 2.6058162413895385,1.3029081206947688 3.908724362084306,1.3029081206947688 c1.895139084646936,0 3.790278169293872,-0.8291233495330348 5.093186289988641,-2.3689238558086703 l19.188283232050228,-23.452346172505838 c1.066015735113902,-1.3029081206947688 1.5398005062756357,-2.7242624341799706 1.5398005062756357,-4.264062940455607 c0,-2.1320314702278034 -0.9475695423234686,-4.145616747665173 -2.7242624341799706,-5.330078675569508 c-20.728083738325864,-14.92422029159462 -45.83867660989777,-22.2678842446015 -75.45022480750615,-22.2678842446015 c-24.3999157148293,0 -44.535768489203,5.330078675569508 -60.76289690149239,16.227128412289392 c-15.871789833918092,10.77860354392945 -24.044577136458003,27.242624341799708 -24.044577136458003,49.62895477919164 c0,18.951390846469362 9.12035684486338,34.58628829480658 18.003821304145895,42.640629404556066 c4.145616747665173,3.790278169293872 10.660157351139016,7.699002531378178 19.89896038879283,11.252388315091183 l0,0 c9.831034001605982,3.790278169293872 15.634897448337224,5.685417253940808 21.5572070878589,7.225217760216444 c5.922309639521675,1.5398005062756357 12.19995785741465,2.6058162413895385 23.097007594134535,4.8562939044077735 c11.489280700672051,2.250477663018237 20.254298967164132,4.145616747665173 27.005731956218842,6.277648217892976 c6.6329867962642775,2.250477663018237 11.252388315091183,4.8562939044077735 14.095096942061588,8.883464459282512 c1.895139084646936,2.7242624341799706 2.6058162413895385,5.922309639521675 2.6058162413895385,9.475695423234681 c0,3.1980472053417044 -0.8291233495330348,6.277648217892976 -2.4873700485991037,8.883464459282512 c-1.6582466990660696,2.6058162413895385 -4.02717055487474,4.7378477116173405 -7.10677156742601,6.277648217892976 c-6.040755832312109,3.1980472053417044 -14.568881713223321,4.619401518826907 -25.584377642733635,4.619401518826907 c-27.242624341799708,0 -49.51050858640121,-9.475695423234681 -66.4483141554332,-28.190193884123175 c-1.4213543134852014,-1.5398005062756357 -3.1980472053417044,-2.250477663018237 -5.093186289988641,-2.250477663018237 c-1.7766928918565026,0 -3.4349395909225713,0.5922309639521675 -4.7378477116173405,2.01358527743737 l-23.807684750877133,24.3999157148293 c-1.3029081206947688,1.3029081206947688 -1.895139084646936,3.0796010125512714 -1.895139084646936,4.7378477116173405 c0,1.5398005062756357 0.5922309639521675,3.1980472053417044 1.6582466990660696,4.38250913324604 c9.712587808815547,10.541711158348582 22.623222822972803,19.188283232050228 38.49501265689089,25.46593144994321 c19.188283232050228,7.580556338587744 38.13967407851959,11.489280700672051 57.68329588894112,11.489280700672051 c25.22903906436234,0 46.78624615222124,-6.159202025102543 64.79006745636713,-18.951390846469362 c17.885375111355458,-12.673742628576386 26.295054799476237,-29.256209619237072 26.413500992266673,-50.57652432151511 C1469.6810243162088,244.07938862271095 1462.2189141704114,230.2211840662302 1454.2830192534525,223.11441249880414 z" id="svg_9"/>
	<path class="st5" d="M1239.7769641099771,116.39439279462363 h-22.86011520855367 c-8.172787302539911,0 -14.687327906013756,6.6329867962642775 -14.687327906013756,14.80577409880419 v178.972197306345 c0,8.172787302539911 6.6329867962642775,14.687327906013756 14.687327906013756,14.687327906013756 h22.86011520855367 c8.172787302539911,0 14.687327906013756,-6.6329867962642775 14.80577409880419,-14.687327906013756 V131.20016689342782 C1254.5827382087814,123.02737959088785 1247.9497514125171,116.512838987414 1239.7769641099771,116.39439279462363 z" id="svg_10"/>
	<path class="st5" d="M423.327357205519,116.39439279462363 H394.5449323574437 c-6.5145406034738444,0 -11.726173086252919,5.330078675569508 -11.84461927904335,11.84461927904335 v184.89450694586668 c0,6.5145406034738444 5.330078675569508,11.726173086252919 11.84461927904335,11.84461927904335 h28.782424848075344 c6.5145406034738444,0 11.726173086252919,-5.330078675569508 11.84461927904335,-11.84461927904335 l0,-184.89450694586668 C435.053530291772,121.72447147019318 429.8418978089928,116.39439279462363 423.327357205519,116.39439279462363 z" id="svg_11"/>
	<path class="st5" d="M394.78182474302463,80.38675018633182 h28.42708626970404 c6.396094410683409,0 11.607726893462484,-5.211632482779074 11.607726893462484,-11.607726893462484 v-32.454256824578785 c0,-6.396094410683409 -5.211632482779074,-11.607726893462484 -11.607726893462484,-11.607726893462484 h-28.42708626970404 c-6.396094410683409,0 -11.607726893462484,5.211632482779074 -11.607726893462484,11.607726893462484 v32.454256824578785 C383.17409784956203,75.17511770355281 388.38573033234115,80.38675018633182 394.78182474302463,80.38675018633182 z" id="svg_12"/>
	<path class="st5" d="M995.7778069616841,116.39439279462363 h-22.86011520855367 c-8.172787302539911,0 -14.687327906013756,6.6329867962642775 -14.687327906013756,14.80577409880419 v178.972197306345 c0,8.172787302539911 6.6329867962642775,14.687327906013756 14.687327906013756,14.687327906013756 h22.86011520855367 c8.172787302539911,0 14.687327906013756,-6.6329867962642775 14.687327906013756,-14.687327906013756 V131.20016689342782 C1010.4651348676979,123.02737959088785 1003.9505942642242,116.512838987414 995.7778069616841,116.39439279462363 z" id="svg_13"/>
	<path class="st5" d="M970.1934293189505,80.38675018633182 h28.42708626970404 c6.396094410683409,0 11.607726893462484,-5.211632482779074 11.607726893462484,-11.607726893462484 v-32.454256824578785 c0,-6.396094410683409 -5.211632482779074,-11.607726893462484 -11.607726893462484,-11.607726893462484 h-28.42708626970404 c-6.396094410683409,0 -11.607726893462484,5.211632482779074 -11.607726893462484,11.607726893462484 v32.454256824578785 C958.4672562326975,75.17511770355281 963.6788887154767,80.38675018633182 970.1934293189505,80.38675018633182 z" id="svg_14"/>
	<path class="st5" d="M1214.1925864672435,80.38675018633182 h28.42708626970404 c6.396094410683409,0 11.607726893462484,-5.211632482779074 11.607726893462484,-11.607726893462484 v-32.454256824578785 c0,-6.396094410683409 -5.211632482779074,-11.607726893462484 -11.607726893462484,-11.607726893462484 h-28.42708626970404 c-6.396094410683409,0 -11.607726893462484,5.211632482779074 -11.607726893462484,11.607726893462484 v32.454256824578785 C1202.5848595737812,75.17511770355281 1207.79649205656,80.38675018633182 1214.1925864672435,80.38675018633182 z" id="svg_15"/>
	<path class="st5" d="M677.0391021626276,116.39439279462363 h-27.716409112961443 c-6.6329867962642775,0 -12.081511664624218,5.448524868359941 -12.081511664624218,12.081511664624218 v28.190193884123175 l-4.974740097198207,-8.646572073701645 c-5.803863446731242,-10.186372579977283 -13.739758363690285,-17.648482725774592 -24.044577136458003,-22.623222822972803 c-10.186372579977283,-4.974740097198207 -22.86011520855367,-7.580556338587744 -38.13967407851959,-7.580556338587744 c-17.411590340193726,0 -33.40182636690225,3.4349395909225713 -48.089154272916005,10.304818772767714 c-9.475695423234681,4.500955326036474 -18.477606075307627,10.304818772767714 -26.768839570637972,17.766928918565025 l0,0 l0,0 c-21.438760895068466,18.83294465367893 -31.980472053417046,45.00955326036473 -31.980472053417046,78.76671820563828 c0,33.28338017411181 10.186372579977283,58.98620400963589 30.67756393272228,76.87157912099136 l0.9475695423234686,0.7106771567426017 c13.384419785318986,11.726173086252919 28.190193884123175,19.543621810421527 44.417322296412564,23.6892385580867 c8.646572073701645,2.1320314702278034 17.766928918565025,3.3164933981321383 27.36107053459014,3.3164933981321383 c15.516451255546789,0 28.663978655284907,-2.7242624341799706 39.67947458479522,-8.172787302539911 c11.015495929510317,-5.448524868359941 19.780514196002397,-13.502865978109421 26.531947185057106,-24.3999157148293 l4.974740097198207,-8.054341109749478 V325.33347687694834 c0,18.83294465367893 -6.277648217892976,34.34939590922572 -17.17469795461286,45.00955326036473 c-10.897049736719882,10.660157351139016 -26.176608606685804,16.345574605079822 -43.706645139669966,16.345574605079822 c-26.65039337784754,0 -50.93186289988641,-13.147527399738118 -61.94735882939673,-38.13967407851959 c0,0 0,0 0,-0.11844619279043386 c-1.1844619279043351,-2.7242624341799706 -4.38250913324604,-3.908724362084306 -7.10677156742601,-2.842708626970404 l-36.955212150615246,13.858204556480722 c-2.3689238558086703,0.9475695423234686 -3.6718319765034417,3.0796010125512714 -3.6718319765034417,5.448524868359941 c0,0.8291233495330348 0.11844619279043386,1.5398005062756357 0.4737847711617353,2.3689238558086703 c17.885375111355458,40.27170554874739 58.63086543126459,63.131820757301064 105.6540039690667,63.250266950091486 c31.980472053417046,0 59.22309639521676,-9.712587808815547 82.20165779656087,-28.663978655284907 c22.38633043739193,-19.30672942484066 33.75716494527355,-45.9571228026882 33.75716494527355,-80.54341109749478 l-0.11844619279043386,-192.71195567003534 C689.1206138272519,121.8429176629835 683.672088958892,116.39439279462363 677.0391021626276,116.39439279462363 zM618.1713443457821,269.6637662654445 c-11.489280700672051,10.897049736719882 -27.36107053459014,16.93780556903199 -44.417322296412564,16.93780556903199 c-9.594141616025114,0 -18.59605226809806,-1.895139084646936 -26.65039337784754,-5.566971061150375 c-5.566971061150375,-2.4873700485991037 -10.541711158348582,-5.922309639521675 -14.92422029159462,-10.186372579977283 c-10.660157351139016,-10.541711158348582 -17.056251761822427,-26.176608606685804 -17.056251761822427,-46.549353766640365 c0,-20.135852774373696 6.040755832312109,-36.12608880108222 16.58246699066069,-47.023138537802105 c8.76501826649208,-9.12035684486338 20.491191352744995,-14.450435520432888 33.87561113806398,-15.990236026708523 c2.7242624341799706,-0.3553385783713015 5.448524868359941,-0.5922309639521675 8.291233495330346,-0.4737847711617353 c17.056251761822427,0 32.80959540295008,5.803863446731242 44.417322296412564,16.700913183451124 c11.607726893462484,10.77860354392945 18.714498460888493,26.65039337784754 18.714498460888493,45.9571228026882 C636.8858428066708,242.77648050201623 629.6606250464542,258.64827033593417 618.1713443457821,269.6637662654445 z" id="svg_16"/>
</g></g></svg>
