<?xml version="1.0" encoding="utf-8"?>
<!-- Generator: Adobe Illustrator 21.1.0, SVG Export Plug-In . SVG Version: 6.00 Build 0)  -->
<svg version="1.1" id="logo" xmlns="http://www.w3.org/2000/svg" xmlns:xlink="http://www.w3.org/1999/xlink" x="0px" y="0px"
	 viewBox="0 0 196.7 59.2" style="enable-background:new 0 0 196.7 59.2;" xml:space="preserve">
<style type="text/css">
	.st0{fill:#245A3C;}
	.st1{fill:#FFE600;}
	.st2{fill:#FCAF17;}
	.st3{fill:#86AC51;}
	.st4{fill:#F15A2A;}
	.st5{fill:#00A751;}
	.st6{fill:#C8C208;}
	.st7{fill:#DA1A35;}
</style>
<g>
	<g>
		<g>
			<path class="st0" d="M63,50.2H49V24.8h5.1v21.9H63V50.2z"/>
		</g>
		<g>
			<path class="st0" d="M71.1,50.2h-4.8V32.1h4.8V50.2z"/>
		</g>
		<g>
			<path class="st0" d="M91.9,41c-0.3,0.2-0.6,0.4-0.9,0.6H80.1c0,1.8,0.5,3.3,1.6,4.3c1,1.1,2.4,1.6,4,1.6c1.5,0,3.1-0.5,4.7-1.4
				l1.3,2.5c-2.4,1.4-4.7,2-7.1,2c-2.7,0-4.8-0.8-6.6-2.5c-2-1.9-3-4.3-3-7.3c0-2.7,0.9-5,2.7-6.7c1.7-1.6,3.8-2.5,6.4-2.5
				c3.3,0,5.5,1.3,6.7,4C91.5,37,91.9,38.8,91.9,41z M87.6,39.2c0-0.2,0-0.5,0-0.9c-0.2-2.7-1.4-4.1-3.5-4.1c-2.5,0-3.9,1.7-4,5
				H87.6z"/>
		</g>
		<g>
			<path class="st0" d="M196.7,41c-0.3,0.2-0.6,0.4-0.9,0.6h-10.9c0,1.8,0.5,3.3,1.6,4.3c1,1.1,2.4,1.6,4,1.6c1.5,0,3.1-0.5,4.7-1.4
				l1.3,2.5c-2.4,1.4-4.7,2-7.1,2c-2.7,0-4.8-0.8-6.6-2.5c-2-1.9-3-4.3-3-7.3c0-2.7,0.9-5,2.7-6.7c1.7-1.6,3.8-2.5,6.4-2.5
				c3.3,0,5.5,1.3,6.7,4C196.4,37,196.7,38.8,196.7,41z M192.5,39.2c0-0.2,0-0.5,0-0.9c-0.2-2.7-1.4-4.1-3.5-4.1c-2.5,0-3.9,1.7-4,5
				H192.5z"/>
		</g>
		<g>
			<path class="st0" d="M107.1,49.4c-1.7,0.8-3.3,1.2-4.9,1.2c-2.1,0-3.7-0.7-4.6-2.1c-0.6-0.9-0.9-2.4-0.9-4.7v-9.3h-2.5v-2.5h2.5
				v-4.4l4.8-1v5.4h4.7v2.5h-4.7v8.3c0,1.8,0.2,3.1,0.6,3.8c0.4,0.7,1,1.1,2,1.1c0.8,0,1.5-0.2,2.3-0.6L107.1,49.4z"/>
		</g>
		<g>
			<path class="st0" d="M127.2,50.2h-4.8v-2.4c-1.7,1.9-3.8,2.9-6.2,2.9c-2.9,0-4.8-1.1-5.7-3.4c-0.4-0.9-0.5-2.5-0.5-4.9V32.1h4.8
				v10.3c0,1.6,0.2,2.7,0.6,3.4c0.6,1,1.6,1.5,2.9,1.5c1.8,0,3-0.7,3.7-2.2c0.3-0.7,0.5-1.8,0.5-3.3v-9.7h4.8V50.2z"/>
		</g>
		<g>
			<path class="st0" d="M148.5,32.5l-7.8,17.7h-3.3l-7.2-17.5l4.7-0.9l4.7,12.7l5-12.7L148.5,32.5z"/>
		</g>
		<g>
			<path class="st0" d="M168.7,41c0,2.8-0.9,5.1-2.6,6.9c-1.8,1.8-4,2.7-6.8,2.7c-2.8,0-5-0.9-6.8-2.7c-1.8-1.8-2.7-4.1-2.7-6.9
				c0-2.7,0.9-5,2.7-6.7c1.8-1.7,4.1-2.6,6.9-2.6c2.7,0,4.9,0.9,6.7,2.7C167.8,36.1,168.7,38.3,168.7,41z M163.7,41
				c0-2.1-0.4-3.8-1.2-5c-0.8-1.2-1.9-1.8-3.3-1.8c-1.3,0-2.4,0.6-3.2,1.8c-0.8,1.2-1.2,2.9-1.2,4.9c0,2.2,0.4,3.9,1.2,5.1
				c0.8,1.2,1.9,1.8,3.3,1.8c1.4,0,2.5-0.6,3.3-1.8C163.3,44.9,163.7,43.2,163.7,41z"/>
		</g>
		<g>
			<path class="st0" d="M176.8,51c0,2.8-0.5,4.8-1.5,6.1c-1.2,1.4-3.1,2.1-5.8,2.1v-1.8c1.1-0.2,1.8-0.8,2.1-1.8
				c0.2-0.7,0.3-2.5,0.3-5.4V32.1h4.8V51z"/>
		</g>
		<path class="st0" d="M52.4,21.5H49V4.6h3.4V21.5z"/>
		<path class="st0" d="M67.7,21.5h-3.2v-6.9c0-1-0.1-1.8-0.4-2.3c-0.4-0.7-1-1-2-1c-1.3,0-2.2,0.6-2.6,1.7c-0.1,0.4-0.2,1.1-0.2,2
			v6.5h-3.2V9.4h3.2V11c1.2-1.3,2.5-1.9,4.1-1.9c1.9,0,3.2,0.8,3.8,2.3c0.2,0.6,0.4,1.7,0.4,3.2V21.5z"/>
		<path class="st0" d="M81.9,9.7l-5.2,11.8h-2.2L69.7,9.8l3.2-0.6l3.1,8.4l3.3-8.4L81.9,9.7z"/>
		<path class="st0" d="M94.3,15.4c0,0-0.1,0.1-0.3,0.2c-0.2,0.1-0.3,0.2-0.3,0.2h-7.3c0,1.2,0.4,2.2,1,2.9c0.7,0.7,1.6,1.1,2.7,1.1
			c1,0,2.1-0.3,3.1-1l0.9,1.7c-1.6,0.9-3.2,1.4-4.7,1.4c-1.8,0-3.2-0.5-4.4-1.6c-1.3-1.3-2-2.9-2-4.9c0-1.8,0.6-3.3,1.8-4.5
			c1.1-1.1,2.6-1.6,4.3-1.6c2.2,0,3.7,0.9,4.5,2.7C94.1,12.7,94.3,13.9,94.3,15.4z M91.5,14.1c0-0.1,0-0.3,0-0.6
			c-0.1-1.8-0.9-2.7-2.3-2.7c-1.7,0-2.6,1.1-2.7,3.3H91.5z"/>
		<path class="st0" d="M104.7,18.2c0,1.1-0.4,1.9-1.3,2.6c-0.9,0.7-1.9,1-3.3,1c-1.5,0-2.8-0.5-4-1.4l1-1.7c0.9,0.8,1.8,1.2,2.6,1.2
			c0.5,0,0.9-0.1,1.2-0.4c0.3-0.3,0.5-0.6,0.5-1.1c0-0.4-0.1-0.7-0.4-1c-0.3-0.3-0.8-0.8-1.7-1.4c-0.9-0.6-1.5-1.1-1.8-1.4
			c-0.5-0.6-0.8-1.3-0.8-2.1c0-1,0.4-1.8,1.2-2.4c0.8-0.6,1.8-0.9,3-0.9c1.3,0,2.4,0.3,3.5,1l-0.9,1.5c-0.6-0.5-1.3-0.7-2-0.7
			c-0.4,0-0.8,0.1-1.1,0.3c-0.3,0.2-0.4,0.5-0.4,0.8c0,0.5,0.6,1.1,1.7,2c1.2,0.9,2.1,1.6,2.5,2.2C104.5,16.8,104.7,17.4,104.7,18.2
			z"/>
		<path class="st0" d="M114.9,21c-1.1,0.5-2.2,0.8-3.3,0.8c-1.4,0-2.4-0.5-3.1-1.4c-0.4-0.6-0.6-1.6-0.6-3.1v-6.2h-1.7V9.4h1.7V6.5
			l3.2-0.7v3.6h3.2v1.6h-3.2v5.6c0,1.2,0.1,2,0.4,2.5c0.2,0.5,0.7,0.7,1.3,0.7c0.5,0,1-0.1,1.5-0.4L114.9,21z"/>
		<path class="st0" d="M128.1,21.5h-3.2v-1.6c-1.2,1.3-2.5,1.9-4.1,1.9c-1.9,0-3.2-0.7-3.8-2.2c-0.2-0.6-0.4-1.7-0.4-3.3V9.4h3.2
			v6.9c0,1,0.1,1.8,0.4,2.3c0.4,0.7,1,1,2,1c1.2,0,2-0.5,2.5-1.5c0.2-0.5,0.3-1.2,0.3-2.2V9.4h3.2V21.5z"/>
		<path class="st0" d="M143.5,15.4c0,1.9-0.6,3.4-1.8,4.6c-1.2,1.2-2.7,1.8-4.5,1.8c-1.8,0-3.4-0.6-4.6-1.8
			c-1.2-1.2-1.8-2.7-1.8-4.6c0-1.8,0.6-3.3,1.8-4.5c1.2-1.2,2.7-1.7,4.6-1.7c1.8,0,3.3,0.6,4.5,1.8
			C142.9,12.1,143.5,13.6,143.5,15.4z M140.2,15.4c0-1.4-0.3-2.5-0.8-3.3c-0.5-0.8-1.3-1.2-2.2-1.2c-0.9,0-1.6,0.4-2.2,1.2
			c-0.5,0.8-0.8,1.9-0.8,3.3c0,1.4,0.3,2.6,0.8,3.4c0.5,0.8,1.3,1.2,2.2,1.2c0.9,0,1.7-0.4,2.2-1.2C139.9,18,140.2,16.8,140.2,15.4z
			"/>
		<path class="st0" d="M157.2,20.7l-3,1l-4.8-6.7v6.4h-3.2V3.8h3.2v10.4h0.3l4.3-4.9l2.4,1l-4.1,4.4L157.2,20.7z"/>
		<g>
			<rect x="66.3" y="24.8" class="st0" width="4.8" height="5.1"/>
		</g>
		<g>
			<rect x="172" y="24.8" class="st0" width="4.8" height="5.1"/>
		</g>
	</g>
	<g>
		<g>
			<rect x="0" y="10.2" class="st1" width="10" height="10"/>
		</g>
		<g>
			<rect x="26.9" y="9.8" class="st2" width="8.6" height="8.6"/>
		</g>
		<g>
			<rect x="10.1" y="20.2" class="st2" width="10" height="10"/>
		</g>
		<g>
			<rect x="20.1" y="20.2" class="st3" width="10" height="10"/>
		</g>
		<g>
			<rect x="0.1" y="30.1" class="st1" width="10" height="10"/>
		</g>
		<g>
			<rect x="10.1" y="30.1" class="st4" width="10" height="10"/>
		</g>
		<g>
			<rect x="30" y="30.1" class="st5" width="10" height="10"/>
		</g>
		<g>
			<rect x="20.1" y="40.1" class="st0" width="10" height="10"/>
		</g>
		<g>
			<rect x="16.3" y="5.2" class="st6" width="7.3" height="7.3"/>
		</g>
		<g>
			<rect x="32.2" y="0" class="st1" width="6" height="6"/>
		</g>
		<g>
			<rect x="0.1" y="40.1" class="st7" width="10" height="10"/>
		</g>
	</g>
</g>
</svg>
