<?xml version="1.0" encoding="utf-8"?>
<!-- Generator: Adobe Illustrator 24.0.3, SVG Export Plug-In . SVG Version: 6.00 Build 0)  -->
<svg version="1.1" id="Layer_1" xmlns="http://www.w3.org/2000/svg" xmlns:xlink="http://www.w3.org/1999/xlink" x="0px" y="0px"
	 viewBox="0 0 1852.7 1903.1" style="enable-background:new 0 0 1852.7 1903.1;" xml:space="preserve">
<style type="text/css">
	.st0{fill:#BF0033;}
	.st1{fill:#C00033;}
	.st2{fill:#FCFCFC;}
	.st3{fill:#FDFDFD;}
	.st4{fill:#230E0C;}
</style>
<g>
	<path class="st0" d="M248.2,1050.2c-19.5-42.2-34.3-86.1-45.6-131.2c-4.8-18.9-7.5-33.5-8.3-38c-12.1-64.4-11.8-132.1-11.8-132.1
		s0.2-106.5,28.9-203.3c9.2-31.1,21.9-63.5,21.9-63.5c5-12.9,10.5-25.6,16.1-38.2c3.4-7.7,7-15.5,10.9-23
		c6.1-11.7,12.9-23.1,19.4-34.6c7.3-12.8,15-25.4,23.3-37.6c9.1-13.5,18.2-27,28-39.9c12.2-15.9,25.1-31.1,38.1-46.4
		c15.1-17.7,31.8-33.9,48.4-50c11.8-11.4,24.3-22,37.1-32.4c11.2-9,22.2-18.2,33.8-26.7c15.5-11.3,31.5-22,47.7-32.3
		c14.9-9.5,30.1-18.7,45.7-27c20.4-10.9,41.3-21,62.5-30.2c25-10.8,50.5-20.1,76.3-28.5c13.1-4.1,32.7-9.8,56.8-15.5
		c0,0,186.5-44.7,378.1-0.3c33.2,7.7,65.1,18.1,65.1,18.1c24.8,7.8,49,17.3,72.8,27.7c39.8,17.4,78.1,37.7,114.4,61.5
		c29.8,19.5,58.1,40.8,85.2,63.9c19.7,16.9,38.4,34.8,56.3,53.6c19.5,20.5,37.7,42.2,54.7,65c10,13.4,19.9,26.9,29.1,40.9
		c12.8,19.6,24.8,39.8,35.7,60.5c8.9,17,17.1,34.3,24.8,51.8c9.6,21.8,17.5,44.2,24.9,66.7c6.4,19.4,11.6,39.1,16.1,59
		c2.4,10.6,6.5,29.9,10.2,54.6c1.7,11.5,7.5,53.1,7.8,106c0.2,46.1-3.6,52.9-2.4,63.8c0,0,0.7,5.9-2.6,23c-0.1,0.3-0.2,0.6-0.4,0.9
		c-0.4,0.6-1.1,0.9-1.8,1.1c-39.3,1.4-73.3,17.9-106.1,37.6c-4.6,2.7-9,5.7-13.5,8.6c-6.5,4.1-8.4,9.8-7.3,17.1
		c2.8,18.8,9.3,36.4,15.5,54.2c8.6,24.5,18,48.7,25.9,73.5c3.2,10,0.7,17.4-6.2,24.3c-14,14.3-30.5,25.2-47.6,35.3
		c-5.7,3.4-11.4,6.8-17.4,9.8c-1.8,0.9-3.5,2.1-5.6,1.9c-2.1-0.7-3-2.5-4.1-4.2c-28.8-42.4-54.1-86.8-75.3-133.5
		c-18.2-40.1-33.1-81.5-43.8-124.3c-5.5-22.2-10-44.6-12.8-67.2c-1.8-14.3-3.4-28.7-3.8-43.3c-0.3-11-1-22-0.8-32.9
		c0.8-36.1,5-71.7,13.7-106.8c8.1-32.5,19.8-63.6,34.4-93.6c3.4-7,7.1-13.9,11.1-20.7c2.7-4.6,2.4-5.2-2.6-6.3
		c-40.8-8.6-81.7-15.9-123-21.4c-24.8-3.3-49.6-6.1-74.4-8.4c-15.6-1.4-31.2-2.4-46.8-3.5c-28.9-1.9-57.9-1.8-86.8-3.2
		c-27-1.3-53.9,0.6-80.9,0.6c-25.8,0-51.6,1.9-77.3,3.9c-25.4,2-50.7,4.4-76,7.4c-24.5,2.9-48.9,6-73.3,9.8
		c-27.7,4.3-55.2,9.2-82.6,14.8c-35.1,7.1-70,15.2-104.6,24.3c-67.3,17.7-133.3,39.2-198.1,64.5c-48.6,19-96.1,40.5-142.9,63.6
		c-9,4.4-17.6,9.4-26.7,13.7c-2.8,1.4-4.2,3.4-4.5,6.6c-1,9.6-1.7,19.3-1.8,28.9c-0.2,21.6-0.8,43.3,1,64.9
		c2.5,29.4,7.2,58.5,15.2,87c7.2,25.4,16.4,50,28.6,73.5c0.9,1.7,2,3.5,0.9,5.7c-3.7,2.2-7.9,1.4-11.7,1.1
		c-18.8-1.5-37.6-0.4-56.4-1.5c-6.5-0.4-6.5-0.1-6.6,6.6c-0.4,42.6-4.9,84.8-15.7,126.1c-1.5,5.8-2.2,11.8-5.2,17.2
		C249.3,1050.2,248.8,1050.3,248.2,1050.2z"/>
	<path d="M248.2,1050.2c0.3-0.1,0.7-0.1,1-0.1c2.1-0.3,2.3,1.5,3.4,3.1c3.5-9.9,5.6-19.8,8-29.7c5.5-23.2,9.4-46.7,11.3-70.4
		c1.1-14.1,2.2-28.2,2-42.3c-0.1-6.2,0.7-7.1,6.8-7c19.8,0.4,39.6,0.3,59.4,1.1c2.7,0.1,5.3-0.5,8,0.2c2.8,1.3,3.8,4.1,5.2,6.5
		c12.8,22,27.3,42.7,44,61.8c25.8,29.6,55,55.6,87.1,78.4c33.2,23.7,68.4,43.9,105,61.7c36.7,17.9,74.5,33.3,112.8,47.6
		c37,13.8,74.5,26.1,112,38.7c3.4,1.1,5.8,0.7,8.7-1.4c33.5-24.5,68.7-46.4,105.2-66.3c2.6-1.4,5.1-3.3,8.3-3
		c14,5,28.6,7.9,42.9,11.4c20,5,40.2,9.4,60.5,13.4c25.6,5.1,51.3,9.7,77.2,13.7c27.8,4.3,55.8,7.2,83.8,9.7
		c14.2,1.3,28.6,2.1,42.9,2.1c9.2,0,18.2,1.4,27.4,1.2c36-0.9,71.8-2.8,107.4-8.9c35.2-6,69.8-14.4,103.8-25.3
		c28.7-9.3,57-19.8,84.1-33.1c1-0.5,2.1-1,3.3-1.3c2.3-0.4,4.2,0.8,6.1,1.7c9.1,4.3,17.8,9.4,26.6,14.3c-3.9-6-8.2-11.5-12.3-17.3
		c-1.3-1.9-3.1-3.6-2.5-6.2c1.5-2.9,4.4-3.9,7.1-5.3c19.7-10.6,38.6-22.3,55.4-37.2c5.2-4.7,10-9.7,13.5-15.9c1.8-3.1,2.3-6,1.6-9.5
		c-3.2-15.9-9-31-14.4-46.2c-8.4-23.8-17.7-47.4-25-71.6c-1.8-6.1-3.2-12.2-4.3-18.5c-0.9-5.1,0.6-9.1,4.9-12.1
		c24-16.4,49.3-30.4,77.1-39.3c11.9-3.8,24.1-6.8,36.6-7.1c3.8-0.1,4.5-2.8,6.1-5c0.6-0.4,1.2-0.8,1.8-1.1c0.5,0,1.2,0,2.1,0
		c6.9,0.2,35.9,1.8,60.2,22.9c9.1,10.6,22,28.3,31.1,53c8.1,22,9.4,39.3,10.7,58.2c3.9,53.3-7.4,92.8-10.8,103.8
		c-4.5,14.7-10.1,27.9-12.6,33.9c-6.3,15.5-14.2,30.2-22,44.9c-8.8,16.7-19.1,32.5-29.2,48.5c-8.4,13.3-17.6,26-27,38.5
		c-7.6,10.1-15.8,19.7-23.8,29.5c-14.5,17.8-30.8,33.7-47.1,49.6c-8.3,8.1-17.7,15-26.8,22.1c-12.4,9.8-25.5,18.6-39,26.8
		c-17.3,10.4-34.8,20.1-53.1,28.6c-16.5,7.7-33.2,14.6-50.3,20.8c-14.5,5.3-29.4,9.2-44.4,13c-9.6,2.4-19.4,3.7-28.9,6.3
		c-1.6,0.4-3.3-0.6-4.8,0.6l-0.1,0c-1.6,1-3.6-0.2-5.1,0.9c-5.7,0.5-11.3,1-17,1.5c-1.8,0.1-3.7,0.1-5.5,0.1
		c-462.2,0-924.4,0-1386.6,0c-1.2,0-2.3-0.1-3.5,0c-2.8,0.3-3.8-0.7-3.7-3.6c0.1-26.7,0-53.3,0.1-80c0-0.7,0.1-1.3,0.4-1.9
		c13.9-4.4,26.6-11.5,38.7-19.4c12.8-8.3,25.1-17.4,36.3-27.8c8.2-5.4,14.7-12.9,21.7-19.7c22.9-22.3,43.2-46.9,61.4-73.1
		c19.6-28.2,36.5-57.9,50.8-89.2C231.3,1100.6,240.3,1075.6,248.2,1050.2z"/>
	<path class="st1" d="M137.1,1602c0-28.6,0-57.3,0-85.9c1.5-1.1,3.2-0.6,4.8-0.6c104.8,0,209.5,0,314.3,0c1.6,0,3.3-0.6,4.8,0.7
		c0,28.6,0,57.1,0,85.7c-1.7,1.2-3.6,0.6-5.3,0.6c-34.6,0-69.3,0-103.9,0.1c-1.8,0-3.7-0.5-5.4,0.5c-0.1,1.8-0.3,3.6-0.3,5.4
		c0,88.5,0,177,0,265.5c-1,0.8-2.2,0.5-3.4,0.5c-29.1,0-58.2,0-87.2,0c-1.1,0-2.3,0.3-3.4-0.5c-1.1-8.6-0.5-17.3-0.5-25.9
		c-0.1-63.7-0.1-127.4-0.1-191.1c0-18,0.1-35.9,0.2-53.9c-1.7-1-3.6-0.5-5.4-0.5c-34.6,0-69.3,0-103.9,0
		C140.7,1602.4,138.9,1602.9,137.1,1602z"/>
	<path class="st1" d="M91.6,1868.5c0,1.8,0.4,3.7-0.4,5.4l0,0c-1.1,0.7-2.3,0.5-3.4,0.5c-27.9,0-55.8,0-83.7,0
		c-1.3,0-2.7,0.4-3.8-0.6c0-56.6,0-113.3,0-169.9c0-1.3-0.1-2.7-0.2-4c0-3.3,0-6.7,0-10c0.1-10.8,0.2-21.6,0.2-32.5
		c0-47.1,0-94.3,0-141.4c1-0.9,2.2-0.6,3.3-0.6c28.2,0,56.5,0,84.7,0c1,0,2-0.1,2.9,0.5l0,0"/>
	<path class="st2" d="M966,1516c-31.3,0-62.6,0-94,0c1.2-1.6,3-1,4.6-1c28.2,0,56.5,0,84.7,0C963,1515,964.8,1514.4,966,1516z"/>
	<path class="st2" d="M1426.9,1437.9c1.5-1.7,3.4-0.5,5.1-0.9C1430.5,1438.6,1428.6,1437.8,1426.9,1437.9z"/>
	<path class="st2" d="M1432.1,1437c1.5-1.2,3.2-0.2,4.8-0.6C1435.4,1437.4,1433.7,1436.8,1432.1,1437z"/>
	<path class="st3" d="M1587.9,1105.3c5,8.9,11.9,16.5,17.1,25.4c-11.9-5.5-22.6-13-34.7-17.8c-3.1-0.3-5.7-2-8.4-3.4
		c-51.1-25.8-104.8-44.5-161-55.9c-25.3-5.1-50.9-8.3-76.6-10.4c-22-1.8-43.9-2.1-65.9-1.6c-17.4,0.4-34.9,1.9-52.2,3.8
		c-24.5,2.7-48.8,6.8-72.9,12.1c-34.7,7.6-68.7,17.8-101.9,30.3c-29.8,11.3-58.9,24.1-87.2,38.7c-2.6,1.6-5.2,3.1-8.4,3.5
		c-11.4,4.6-21.7,11.2-32.3,17.3c-28.3,16.3-55.6,34.1-82,53.5c-2.2,1.6-4,1.6-6.4,0.9c-45.5-15.1-90.9-30.2-135.6-47.6
		c-50.6-19.6-100-41.7-146.9-69.2c-47-27.6-90.3-60-127.4-100.2c-21.3-23.1-39.7-48.4-55.2-75.8c-0.6-1-1.3-1.9-2-2.8
		c-1.7-1.6-3.5-3.2-3.1-5.9c-5-11-10.2-21.9-14.9-33.1c-12.6-30.1-20.9-61.5-26.2-93.7c-6.9-42-7.2-84.2-4.6-126.6
		c0.2-2.8,0.7-5.6,0.7-8.4c0-2.3,0.9-3.5,2.9-4.6c51.7-27,104.5-51.5,158.6-73.2c39.3-15.8,79.2-30.1,119.5-43.1
		c52-16.7,104.7-31,158-42.9c43.7-9.8,87.8-18,132.2-24.6c33.8-5,67.8-9.2,101.8-12.5c20.5-2,41-3.4,61.6-4.6
		c29.7-1.8,59.4-2.5,89.2-3.2c38-0.9,75.9,0.5,113.9,2.3c17.1,0.8,34.2,1.8,51.2,3.2c32.6,2.8,65.1,6.3,97.4,10.9
		c39.1,5.6,78,12.4,116.6,21c1.1,0.2,2.2,0.6,3.6,1c-10,17.4-18.9,34.9-26.5,53.1c-12.7,30.1-22.1,61.2-28.1,93.3
		c-5.8,31-8.5,62.2-8,93.7c0.6,39.1,5.5,77.8,14.1,116c10.4,46.2,25.8,90.6,45.1,133.8c16.2,36.3,34.9,71.3,56.1,104.9
		c7.4,11.8,15.2,23.3,22.8,34.9c0.5,0.8,1.3,1.4,2,2.1C1586.7,1100.8,1587.3,1103.1,1587.9,1105.3z"/>
	<path d="M882.9,344c0-16.9,0.1-33.8-0.1-50.7c0-3.5,0.9-4.5,4.4-4.5c18.1,0.2,36.3,0.2,54.4,0c3.8,0,4.7,1.2,4.7,4.9
		c-0.1,30.6-0.1,61.2-0.1,91.9c0,2.4,0.3,4.2-3.3,4.7c-18.6,2.4-37.1,5.1-55.6,8.1c-4.3,0.7-4.6-0.6-4.6-4
		C882.9,377.5,882.8,360.7,882.9,344C882.9,344,882.9,344,882.9,344z"/>
	<path class="st4" d="M1587.9,1105.3c-1.8-1.4-2.6-3.4-3.8-5.3c11.5-6.6,23.3-12.6,34.3-20c13.6-9.2,27.2-18.3,37.9-31.1
		c4.5-5.4,5.3-10.8,3.3-17.4c-5.5-18.4-12.3-36.4-18.8-54.5c-8.1-22.8-17.3-45.2-22.1-69c-0.5-2.6-1.1-5.2-1.4-7.8
		c-0.6-7.1,1.2-12.5,7.8-16.8c25.2-16.5,51.3-31,80.3-39.8c13.2-4,26.7-6.9,40.6-6.5c0.8,4.6-1.5,6.6-5.8,6.4
		c-7.8-0.4-15.5,1.3-22.9,3.1c-33.4,8.2-63.1,24.2-91.3,43.5c-3.7,2.5-4.3,5.9-3.6,10c4.8,25.6,15,49.5,23.5,74
		c7.3,21,16.1,41.6,20.5,63.6c1.4,7-2.9,11.4-6.5,15.8c-10.1,12.5-23.3,21.6-36.5,30.4c-9.6,6.4-19.6,12.3-29.9,17.5
		C1591.4,1102.3,1589.3,1103.4,1587.9,1105.3z"/>
	<path class="st4" d="M345.1,900.1c1.2,1.9,2.8,3.6,3.1,5.9c-22.4-0.3-44.7-0.5-67.1-1.1c-4.7-0.1-6.1,1.1-6.1,6
		c-0.2,37.1-4,73.7-12.6,109.8c-2.8,11.6-5.1,23.3-9.5,35c-1.5-2.2-2.6-4-3.7-5.7c4.6-18,9.3-35.9,12.3-54.3
		c3.5-21.4,6.2-42.9,7-64.6c0.3-9.8,0.8-19.6,0.6-29.4c0-2.5,0.6-3.6,3.4-3.5c11.5,0.4,23,0.7,34.5,1
		C319.6,899.5,332.4,899.8,345.1,900.1z"/>
	<path class="st4" d="M935.9,1130c1.9-1.9,4.5-2.7,6.9-3.8c2.4-0.4,4.6,0.2,6.9,0.8c41.9,10.8,84.2,20.1,126.8,27.8
		c32.9,5.9,66,10.8,99.4,14c19.2,1.8,38.5,3.1,57.7,4.2c22.7,1.2,45.3,1.2,67.9,0.5c35-1.1,69.6-5.7,103.9-13
		c44.3-9.4,87.4-22.4,129.3-39.6c6.8-2.8,13.6-5.4,20.2-8.7c2.7-1.3,5.4-2.7,8.4-3c2.4,1.1,5.1,1.8,7,3.8
		c-26.6,13-54.2,23.7-82.4,33c-17.9,5.9-36,11.3-54.2,15.9c-15.5,3.9-31.2,7-47,9.8c-18.3,3.3-36.7,5.5-55.1,7.6
		c-8.5,1-17,1.4-25.5,1.8c-12.8,0.5-25.6,1.3-38.3,0.9c-22.3-0.6-44.6-1.3-66.8-3.1c-26.3-2.1-52.5-5-78.6-8.8
		c-31.2-4.6-62.1-10.3-93-16.6c-19.4-4-38.6-8.9-57.8-13.4c-9.5-2.2-18.9-4.7-28.4-6.9C940.5,1132.4,938.1,1131.5,935.9,1130z"/>
	<path class="st1" d="M875.4,1515.5c-1.1,0-2.3-0.3-3.4,0.5c-0.1,1.7-0.3,3.4-0.3,5.1c-0.1,42.6-0.1,85.2-0.1,127.8
		c0,66.3-0.1,132.6,0,199c0,8.6-0.6,17.3,0.5,25.9c1,0.8,2.2,0.5,3.4,0.5c29.1,0,58.2,0,87.2,0c1.1,0,2.3,0.3,3.4-0.5
		c0-46.5,0-93.1,0-140.6c1.7,1.6,2.6,2.4,3.5,3.3c7.1,7,14,14.3,21.3,21.1c15,14.1,29.7,28.4,44.8,42.3c9.7,9,19,18.5,28.4,27.9
		c14,14.2,29.2,27.3,43.7,41c10.5,10,20.8,20.2,31.1,30.4c2.1,2.1,3.5,1.7,5.4-0.2c5.3-5.3,10.7-10.4,16.1-15.5
		c11.5-10.6,22.5-21.7,33.6-32.7c5.5-5.4,5.5-5.4,11.7-1.8c0.6,0.3,1.2,0.5,1.8,0.8c8.5,5.1,17.1,10.2,25.6,15.3
		c12.7,7.5,25.4,14.8,37.9,22.5c2.7,1.7,3.6,0.6,4.8-1.3c9.3-14.9,18.8-29.7,28-44.7c2.9-4.8,6-7.2,12.3-7.1
		c66,0.3,131.9,0.3,197.9,0.1c4.9,0,7.8,1.5,10.1,5.5c1.6,2.8,3.5,5.5,5.3,8.2c7.2,11.5,14.4,23.1,21.7,34.6
		c3.9,6.1,3.9,6.1,10.1,2.6c3.1-1.8,6.4-3.3,9.5-5.2c19.4-12.1,39.1-23.7,58.9-35.1c2.7-1.5,5.7-3,2.8-7.4c-6.5-9.8-12.7-20-18.9-30
		c-10.3-16.6-20.5-33.1-30.7-49.7c-9.6-15.6-19.2-31.3-28.9-46.9c-12.5-20.2-25.1-40.4-37.6-60.6c-17.2-27.8-34.5-55.7-51.6-83.6
		c-8.8-14.2-17.4-28.6-26.1-42.8c-6.6-10.8-13.4-21.5-20.1-32.2c-1.7-2.7-3.1-3.3-5.1,0.1c-4.9,8.2-10.2,16.1-15.3,24.2
		c-7,11-14,22.1-20.9,33.2c-7.4,11.8-14.5,23.8-21.9,35.6c-3.9,6.2-8.3,12.1-11.8,18.4c-5,8.9-10.9,17.2-15.9,26.1
		c-6.4,11.3-14.6,21.5-21.1,32.8c-9.9,17.2-21,33.7-31.1,50.7c-7.1,12-15.1,23.4-22.3,35.3c-8.2,13.7-16.9,27.1-25.2,40.8
		c-7.3,12-15.1,23.8-22.5,35.8c-3.4,5.4-3.7,5.6-8.4,1.1c-15.2-14.4-30.3-28.9-45.5-43.3c-14.5-13.9-29-27.8-43.5-41.7
		c-5.2-5-10.2-10-15.4-14.9c-12.8-12-25.6-24-38.4-35.9c2.8-3.6,6.4-6,9.5-9c13.8-13.6,27.6-27.4,41.8-40.6
		c13.5-12.6,26.2-26.1,39.8-38.6c16.4-15,31.3-31.6,48.1-46.2c1.9-1.6,3.2-3,0.6-5.5c-20-19.8-39.9-39.7-59.8-59.7
		c-1.6-1.6-2.5-1.7-4.4-0.1c-12.1,10.3-22.3,22.6-34.6,32.7c-9.1,7.5-17,16.3-25.4,24.5c-26.9,26.3-53.3,53.3-81.1,78.8
		c-7.5,6.9-14,14.7-22.7,21.1c0-44.3,0-88.1,0-131.9c-1-0.8-2.2-0.5-3.4-0.5 M1360.7,1753.4c18.5-29.8,36.8-59.2,55.4-89.1
		c18.6,29.9,36.9,59.2,55.5,89.1C1434.3,1753.4,1398,1753.4,1360.7,1753.4z"/>
	<path class="st1" d="M833.8,1838.4c-5.2-7.8-10-15.7-15-23.6c-17.2-27.6-34.3-55.2-51.5-82.7c-10-16-20.2-31.8-30.2-47.8
		c-10.5-16.8-20.7-33.8-31.2-50.5c-13.4-21.4-27.1-42.6-40.5-64c-15.3-24.4-30.4-49-45.7-73.5c-4.6-7.4-4.8-7.3-9.3-0.4
		c-0.4,0.5-0.7,1.1-1.1,1.7c-7.2,10-13,20.9-19.8,31.2c-4.7,7.2-9,14.7-13.6,22.1c-6.3,10.2-12.7,20.4-18.9,30.6
		c-5.4,8.8-10.5,17.7-15.9,26.4c-7,11.3-14.1,22.4-21.1,33.7c-5.2,8.4-10,17-15.2,25.4c-7.1,11.4-14.6,22.6-21.7,34
		c-10.2,16.6-20,33.3-30.3,49.9c-9.8,15.8-20,31.4-29.7,47.2c-8.7,14-17,28.3-25.8,42.3c-1.3,2.1-1.2,2.3,0.7,3.4
		c6,3.4,11.8,7,17.7,10.5c10,6,20,12.2,30,18.1c8.7,5.1,17.6,9.7,26.1,15.1c3,1.9,3.9,1.5,5.6-1.2c9.8-15.7,20-31.3,29.8-47
		c1.9-3.1,3.8-4.2,7.4-4.2c33.8,0.1,67.6,0.1,101.4,0.1c33.8,0,67.6,0,101.4,0c2.7,0,4.6,0.1,6.5,3.1c10,16.3,20.6,32.3,30.9,48.4
		c1.2,1.8,1.9,3.2,4.5,1.7c24.4-14.8,48.7-29.5,73.3-43.9C836.1,1842.1,835.6,1841.1,833.8,1838.4z M669.7,1753
		c-0.6,1.1-1.8,0.6-2.7,0.6c-34.1,0-68.2,0-102.4,0c-0.6,0-1.3-0.2-2.5-0.5c17.1-28.6,33.9-56.7,50.5-84.9c2.4-4.2,3.1-2.9,4.9,0.1
		c16.9,27.3,33.9,54.4,50.8,81.7C669,1750.9,670.4,1751.7,669.7,1753z"/>
	<path class="st1" d="M1563.3,1109.1c-5.7,4.5-12.5,6.6-19,9.4c-21.8,9.4-44.1,17.6-66.8,24.7c-32.6,10.2-65.8,18.3-99.5,23.9
		c-22.8,3.7-45.6,6.1-68.7,7.3c-23,1.2-45.9,1.2-68.9,0.4c-26.8-0.8-53.6-3.1-80.3-6.2c-30-3.5-59.8-8-89.4-13.4
		c-41.8-7.6-83.2-17-124.3-27.5c-1.2-0.3-2.4-1.1-3.6-1.6c12.8-7.7,26.5-13.6,40.1-19.8c33.9-15.3,68.6-28.3,104.4-38.7
		c39.2-11.3,79.1-19.4,119.8-23.9c32-3.6,64.2-4.7,96.3-3.4c50.4,2.1,99.9,10,148.4,24.2c36.9,10.8,72.5,24.7,107,41.7
		C1560.3,1107.1,1562.1,1107.6,1563.3,1109.1z"/>
	<path d="M1293.9,1176.8c-1.9,0-3.8,0-5.6,0c0-0.2,0-0.3,0-0.5c1.9,0,3.7,0,5.6,0C1293.8,1176.5,1293.8,1176.7,1293.9,1176.8z"/>
</g>
</svg>
