<?xml version="1.0" encoding="utf-8"?>
<!-- Generator: Adobe Illustrator 21.0.0, SVG Export Plug-In . SVG Version: 6.00 Build 0)  -->
<svg version="1.1" id="Layer_1" xmlns="http://www.w3.org/2000/svg" xmlns:xlink="http://www.w3.org/1999/xlink" x="0px" y="0px"
	 viewBox="0 0 109.2 40" style="enable-background:new 0 0 109.2 40;" xml:space="preserve">
<style type="text/css">
	.st0{fill:#FFFFFF;}
	.st1{fill:#FBD032;}
	.st2{fill:#A2D8C5;}
	.st3{fill:#222927;}
	.st4{fill:#CAE8DC;}
</style>
<g>
	<path class="st0" d="M59.4,26.8h-1.2l-2.4-7.5l-2.3,7.5h-1.2l-2.8-9h1.3l2.1,7.5l2.3-7.5h1.2l2.4,7.5l2.1-7.5h1.2L59.4,26.8z"/>
	<path class="st0" d="M65.3,20.5c1.4,0,2.9,1,2.9,3.1c0,2.2-1.3,3.3-3,3.3c-1.7,0-3-1.1-3-3.2C62.3,22.8,62.7,20.5,65.3,20.5z
		 M65.2,26.1c1.2,0,1.9-1,1.9-2.5c0-1-0.4-2.2-1.8-2.2c-1.9,0-1.9,2.1-1.9,2.4C63.4,24.5,63.6,26.1,65.2,26.1z"/>
	<path class="st0" d="M70.3,20.7v1.1c0.1-0.3,0.3-0.5,0.6-0.7c0.2-0.2,0.7-0.5,1.5-0.5v1.1c-0.1,0-0.3,0-0.4,0
		c-0.7,0-1.4,0.4-1.6,1.1c-0.1,0.3-0.1,0.5-0.1,1.1v2.8h-1v-6H70.3z"/>
	<path class="st0" d="M77.1,26.8l-2.2-2.9l-0.7,0.8v2.1h-1v-9h1v5.6l2.4-2.6h1.3l-2.2,2.4l2.7,3.6H77.1z"/>
	<path class="st0" d="M81.9,18.9v-1.2h1v1.2H81.9z M81.9,26.8v-6h1v6H81.9z"/>
	<path class="st0" d="M88.3,26.8v-3.9c0-0.9-0.7-1.3-1.4-1.3c-0.8,0-1.6,0.6-1.6,1.7v3.6h-1v-6h1v0.9c0.3-0.4,0.9-1.1,1.9-1.1
		c0.3,0,1.2,0.1,1.7,0.8c0.3,0.5,0.4,1,0.4,1.6v3.8H88.3z"/>
	<path class="st0" d="M50.6,39.8V29h2V38h4.3v1.8H50.6z"/>
	<path class="st0" d="M57.9,31v-1.8h1.8V31H57.9z M57.9,39.8v-7.6h1.8v7.6H57.9z"/>
	<path class="st0" d="M60.4,32.2h1.1v-2.7h1.8v2.7H65v1.3h-1.6v3.8c0,0.3,0,0.6,0.2,0.8c0.2,0.2,0.6,0.2,0.7,0.2
		c0.3,0,0.5,0,0.8-0.1v1.5c-0.2,0-0.7,0.1-1.3,0.1c-1.6,0-2.1-0.6-2.1-1.8v-4.5h-1.1V32.2z"/>
	<path class="st0" d="M71,39.8v-4.5c0-1.1-0.5-1.6-1.4-1.6c-1,0-1.9,0.7-1.9,1.9v4.2h-1.8V29h1.8v3.9c0.5-0.5,1.3-1,2.4-1
		c1.7,0,2.7,0.9,2.7,2.7v5.2H71z"/>
	<path class="st0" d="M79.4,39.8V39c-0.4,0.4-1.1,1-2.5,1c-1.3,0-1.9-0.5-2.2-1c-0.4-0.6-0.4-1.3-0.4-2v-4.8h1.8v4.4
		c0,0.7,0.2,1.7,1.5,1.7c0.9,0,1.3-0.6,1.5-0.9c0.3-0.5,0.3-1.2,0.3-1.8v-3.4h1.8v7.6H79.4z"/>
	<path class="st0" d="M87.4,39.8l0-0.6c-0.5,0.4-1.3,0.8-2.2,0.8c-1.7,0-2.8-1.1-2.8-2.3c0-1.7,1.3-2.3,2.7-2.6
		c1.1-0.2,1.9-0.4,2.3-0.6c0-0.6-0.2-1.1-1.3-1.1c-1.4,0-1.5,0.7-1.5,1.1l-1.9-0.1c0-0.5,0.1-2.5,3.3-2.5c2.2,0,3.2,0.8,3.2,2.2v4.5
		c0,0.6,0,0.7,0.3,1.2H87.4z M87.4,36c-0.3,0.2-0.7,0.3-1.4,0.4c-0.8,0.1-1.7,0.3-1.7,1.1c0,0.5,0.3,0.9,1.3,0.9
		c0.8,0,1.9-0.4,1.9-1.4V36z"/>
	<path class="st0" d="M92.7,32.2v0.9c0.7-1,2-1.1,2.3-1.1c1.6,0,2.5,1.1,2.5,2.5v5.3h-1.8v-4.3c0-0.8-0.2-1.8-1.3-1.8
		c-0.2,0-0.6,0-1,0.4c-0.5,0.5-0.7,1.1-0.7,2.4v3.3h-1.8v-7.6H92.7z"/>
	<path class="st0" d="M99,31v-1.8h1.8V31H99z M99,39.8v-7.6h1.8v7.6H99z"/>
	<path class="st0" d="M107,39.8l0-0.6c-0.5,0.4-1.3,0.8-2.2,0.8c-1.7,0-2.8-1.1-2.8-2.3c0-1.7,1.3-2.3,2.7-2.6
		c1.1-0.2,1.9-0.4,2.3-0.6c0-0.6-0.2-1.1-1.3-1.1c-1.4,0-1.5,0.7-1.5,1.1l-1.9-0.1c0-0.5,0.1-2.5,3.3-2.5c2.2,0,3.2,0.8,3.2,2.2v4.5
		c0,0.6,0,0.7,0.3,1.2H107z M107,36c-0.3,0.2-0.7,0.3-1.4,0.4c-0.8,0.1-1.7,0.3-1.7,1.1c0,0.5,0.3,0.9,1.3,0.9
		c0.8,0,1.9-0.4,1.9-1.4V36z"/>
</g>
<polygon class="st1" points="31.2,31.2 31.2,17.5 22.5,8.7 40,8.7 40,40 8.7,40 8.7,22.5 17.5,31.2 "/>
<polygon class="st2" points="22.5,8.7 31.2,17.5 17.5,17.5 8.7,8.7 "/>
<polygon class="st1" points="13.8,0 22.5,8.7 8.7,8.7 0,0 "/>
<polygon class="st3" points="8.7,22.5 17.5,31.2 17.5,17.5 8.7,8.7 "/>
<polygon class="st4" points="0,13.8 8.7,22.5 8.7,8.7 0,0 "/>
</svg>
