<?xml version="1.0" encoding="utf-8"?>
<!-- Generator: Adobe Illustrator 23.0.1, SVG Export Plug-In . SVG Version: 6.00 Build 0)  -->
<svg version="1.1" xmlns="http://www.w3.org/2000/svg" xmlns:xlink="http://www.w3.org/1999/xlink" x="0px" y="0px"
	 viewBox="0 0 2409.45 566.93" style="enable-background:new 0 0 2409.45 566.93;" xml:space="preserve">
<style type="text/css">
	.st0{fill-rule:evenodd;clip-rule:evenodd;fill:#003E84;}
	.st1{fill-rule:evenodd;clip-rule:evenodd;fill:#A0A3A4;}
</style>
<g id="Logo_x5F_Hegelmann_x5F_Group">
	<g>
		<polygon class="st0" points="583.99,180.87 653.55,180.87 635.12,249.6 691.47,249.6 709.89,180.87 779.45,180.87 724.46,386.06 
			654.91,386.06 674.18,314.16 617.84,314.16 598.56,386.06 529.01,386.06 		"/>
		<polygon class="st0" points="799.08,180.87 951.1,180.87 935.31,239.81 852.63,239.81 847.96,257.23 906.27,257.23 892.19,309.76 
			833.89,309.76 829.24,327.11 911.91,327.11 896.12,386.06 744.1,386.06 		"/>
		<path class="st0" d="M969.67,382.04c-14.07-6.56-24.75-16.09-32.04-28.61c-7.3-12.52-10.49-27.22-9.61-44.12
			c0.45-8.54,1.89-17.19,4.33-25.93c5.95-22.45,15.75-41.82,29.42-58.12c13.67-16.29,30.32-28.81,49.96-37.56
			c19.63-8.74,41.17-13.12,64.63-13.12c15.5,0,28.69,1.3,39.58,3.88c10.9,2.58,20.63,6.73,29.27,12.49l-17.74,66.19
			c-6.82-6.35-15.28-10.92-25.36-13.71c-10.09-2.78-22.28-3.62-36.59-3.62c-15.5,0-28.71,3.28-39.65,10.93
			c-10.94,7.65-18.26,18.53-21.98,32.64c-1.69,5.76-2.69,11.52-2.99,17.29c-0.51,9.74,2.09,17.04,7.79,21.91
			c5.71,4.87,15.61,7.3,29.73,7.3c5.76,0,10.84-0.45,16.02-2.76l5.11-19.29h-22.95l10.86-40.54h85.27l-28.67,107
			c-23.47,11.73-51.9,17.59-85.28,17.59C1000.1,391.87,983.73,388.59,969.67,382.04z"/>
		<polygon class="st0" points="1347.19,180.87 1416.51,180.87 1377.32,327.11 1454.14,327.11 1438.35,386.06 1292.21,386.06 		"/>
		<polygon class="st0" points="1512.99,180.8 1572.06,180.8 1595.13,289.45 1675.28,180.8 1739.53,180.87 1684.56,386 1620.3,386 
			1640.42,309.99 1582.44,386 1560.14,386 1542.65,309.99 1522.28,386 1458.01,386 		"/>
		<path class="st0" d="M1847.79,299.2l-2.51-47.25l-28.01,47.25H1847.79L1847.79,299.2z M1829.63,180.93h65.74l27.99,205.13h-69.84
			l-4-35.81h-61.04l-22.42,35.81h-72.78L1829.63,180.93z"/>
		<polygon class="st0" points="1987.06,180.87 2047.57,180.87 2083.08,276.31 2108.65,180.87 2176.05,180.87 2121.07,386.06 
			2059.74,386.06 2024.32,290.39 1998.69,386.06 1932.08,386.06 		"/>
		<polygon class="st0" points="1175.53,180.87 1327.55,180.87 1311.75,239.81 1229.08,239.81 1224.41,257.23 1282.71,257.23 
			1268.64,309.76 1210.34,309.76 1205.69,327.11 1288.36,327.11 1272.57,386.06 1120.55,386.06 		"/>
		<polygon class="st0" points="2195.69,180.87 2256.2,180.87 2291.71,276.31 2317.28,180.87 2384.68,180.87 2329.7,386.06 
			2268.36,386.06 2232.95,290.39 2207.32,386.06 2140.71,386.06 		"/>
	</g>
	<g>
		<path class="st0" d="M252.63,493.8c-116.16,0-210.33-94.17-210.33-210.33S136.47,73.13,252.63,73.13s210.34,94.17,210.34,210.33
			S368.8,493.8,252.63,493.8L252.63,493.8z M486.49,283.46c0-129.16-104.7-233.86-233.86-233.86S18.77,154.31,18.77,283.46
			s104.7,233.86,233.86,233.86S486.49,412.62,486.49,283.46z"/>
		<polygon class="st0" points="159.88,459.21 260.42,83.99 116.33,162.57 143.67,178.36 87.5,387.99 		"/>
		<polygon class="st0" points="224.43,246.71 204.73,320.22 280.84,320.22 300.53,246.71 		"/>
		<polygon class="st0" points="345.64,106.78 244.84,482.94 343.3,456.35 399.47,246.71 431.04,246.71 		"/>
	</g>
</g>
<g id="LT">
	<path class="st1" d="M1608.31,429.16h17.7l-14.74,55h30.4l-3.99,14.9h-48.1L1608.31,429.16L1608.31,429.16z M1684.89,429.16h17.7
		l-18.73,69.9h-17.7L1684.89,429.16L1684.89,429.16z M1747.27,444.06h-19.7l3.99-14.9h57.2l-3.99,14.9h-19.8l-14.74,55h-17.7
		L1747.27,444.06L1747.27,444.06z M1817.74,429.16h17.7l-7.23,27h27.4l7.23-27h17.7l-18.73,69.9h-17.7l7.56-28.2h-27.4l-7.56,28.2
		h-17.7L1817.74,429.16L1817.74,429.16z M1925.19,500.56c-10.53,0-17.71-2.82-21.54-8.45c-3.82-5.63-4.49-13.08-2.01-22.35
		l10.88-40.6h17.7l-10.93,40.8c-1.25,4.67-0.95,8.2,0.91,10.6c1.86,2.4,4.99,3.6,9.39,3.6c4.4,0,8.15-1.2,11.26-3.6
		c3.11-2.4,5.29-5.93,6.54-10.6l10.93-40.8h17.7l-10.88,40.6c-2.5,9.33-7.15,16.8-13.95,22.4
		C1944.39,497.76,1935.72,500.56,1925.19,500.56L1925.19,500.56z M2027.5,429.16h17.4l9.17,69.9h-18.1l-1.74-14.4h-25.8l-9.46,14.4
		h-18.2L2027.5,429.16L2027.5,429.16z M2033.47,471.06l-2.2-23.5l-14.9,23.5H2033.47L2033.47,471.06z M2103.27,429.16h17.5
		l14.55,41.6l11.15-41.6h17.7l-18.73,69.9h-17.4l-14.63-41.7l-11.17,41.7h-17.7L2103.27,429.16L2103.27,429.16z M2196.65,429.16
		h17.7l-18.73,69.9h-17.7L2196.65,429.16L2196.65,429.16z M2272.83,429.16h17.4l9.17,69.9h-18.1l-1.74-14.4h-25.8l-9.46,14.4h-18.2
		L2272.83,429.16L2272.83,429.16z M2278.8,471.06l-2.2-23.5l-14.9,23.5H2278.8z"/>
</g>
</svg>
