<?xml version="1.0" encoding="utf-8"?>
<!-- Generator: Adobe Illustrator 24.0.3, SVG Export Plug-In . SVG Version: 6.00 Build 0)  -->
<svg version="1.1" id="Layer_1" xmlns="http://www.w3.org/2000/svg" xmlns:xlink="http://www.w3.org/1999/xlink" x="0px" y="0px"
	 viewBox="0 0 1034.7 773.8" style="enable-background:new 0 0 1034.7 773.8;" xml:space="preserve">
<style type="text/css">
	.st0{fill:#3FBFEF;}
	.st1{fill:#453857;}
	.st2{fill:#453957;}
	.st3{fill:#463958;}
</style>
<g>
	<path class="st0" d="M201.4,98.2c14.8,14.7,30.3,28.5,47.3,40.6c28.4,20.1,58.8,36.1,93.6,41.6c26.6,4.2,52.9,3.2,77.1-10.7
		c18.2-10.4,32.5-25.2,45.5-41.4c18.6-23.1,35.2-47.7,51.8-72.3c9.9-14.7,22.3-26.6,39.3-32.5c24.3-8.4,45.5-2.1,64.4,14.2
		c15.9,13.7,26.7,31.3,37.1,49.2c1.3,2.3,2.6,4.6,4,6.9c4,6.8,8.5,8,14.7,2.9c6.8-5.6,13.3-11.6,19.9-17.5
		c20.9-18.9,41.2-38.4,63.6-55.5c5.3-4,10.7-7.9,16.2-11.7c37-26.2,79-7.3,90.2,33.7c5.1,18.8,5.2,37.9,3.6,57
		c-3.9,46.7-16.3,91.3-34.6,134.3c-16.3,38.4-38.8,73.2-63.9,106.3c-7.2,9.6-14.7,18.9-22.7,27.9c-0.7,0.9-1.2,2-1.8,2.9
		c-0.5,1.7-1.2,0.3-1.5,0c-21.5-17.6-43.4-34.8-65-52.2c-1.3-1-3.3-1.8-3.1-4.1c16.6-20.4,32.6-41.3,47-63.3
		c22.8-34.8,38.8-72.4,48.2-112.8c0.2-1,0.6-1.9,0.6-2.9c0.2-2.4,0.1-4.8-2.4-6.1c-2.6-1.4-4.6,0.4-6.3,1.8
		c-7.2,6.2-14.1,12.7-21.2,19c-15.5,13.7-30.9,27.4-49.3,37.3c-16,8.6-32.8,13.1-50.9,8c-16.4-4.6-27.9-15.7-37.7-29
		c-6.4-8.8-11.7-18.2-17-27.7c-7.2-12.9-11.9-13.2-20.7-1.3c-16.9,22.7-33.3,45.8-53,66.3c-27.8,28.9-60,50.7-99.8,59.5
		c-39.5,8.8-78.7,6.4-117.4-5c-49.4-14.6-92.3-40.8-131.1-74.3c-10.1-8.7-19.9-17.7-28.9-27.5c0-3.6,2.9-5.1,5.1-6.9
		c10.3-8.9,19.9-18.7,29.7-28.1c8.5-8.2,17.5-15.9,25.7-24.4C198.7,99.3,199.7,98.2,201.4,98.2z"/>
	<path class="st1" d="M201.4,98.2c-15.4,14.8-30.9,29.6-46.3,44.4c-6,5.7-11.9,11.5-17.9,17.2c-22.5,4.8-44.9,9.5-67.4,14.3
		c-17.6,3.8-35.1,7.6-52.7,11.4c-6.6,1.4-11.1-0.4-13.6-5.4C1,175.4,2,171,6.8,166.4c15.1-14.3,30.3-28.6,45.4-42.9
		c2.1-2,4.6-3.3,7-4.7c15.9-9.4,31.9-18.7,47.9-28c3-1.7,3.9-2.7,1-5.6c-7.3-7.6-7.2-7.7,0.3-14.9c11-10.4,22.1-20.8,33-31.2
		c1.8-1.7,2.8-2.1,4.7-0.1C164.6,58.8,183,78.5,201.4,98.2z"/>
	<path class="st1" d="M677.1,317.9c21.9,17.6,43.8,35.1,65.6,52.7c1.4,1.1,2.7,2.4,4,3.7c13.8,38,27.6,76,41.5,114
		c1.4,3.8,2.1,7.4,0.1,11.1c-3,5.6-10.3,7.7-15.4,3.7c-17.8-14-36.1-27.5-52.7-42.8c-10.4-9.6-18-22.2-26.9-33.4
		c-4-5.1-8.1-10.1-12-15.3c-1.6-2.1-2.5-1.9-4.1,0c-2.5,2.9-4.3,8.2-8,8c-3.1-0.2-6.1-4.3-9-6.7c-11.3-9.1-22.6-18.2-33.8-27.3
		c-1.4-1.1-3.1-1.9-1.2-4.2C642.5,360.2,659.8,339.1,677.1,317.9z"/>
	<path class="st1" d="M157.7,512.8c9.2-14.5,18-28.2,26.5-42.1c1.9-3.1,4-4.2,7.6-4.1c6.5,0.3,13,0.2,19.5,0
		c2.8-0.1,4.1,0.5,4.1,3.8c-0.1,50-0.1,100,0,149.9c0,3-1,3.6-3.7,3.6c-6.7-0.2-13.3-0.3-20,0c-3.9,0.2-4.6-1.2-4.6-4.8
		c0.1-33.8,0.1-67.6,0.1-101.5c0-1.1,0.6-2.3-0.9-3.6c-3.8,5.9-7.5,11.8-11.2,17.6c-2.2,3.4-4.4,6.7-6.5,10.1
		c-4.7,7.4-7.7,8.6-16.2,7.3c-2.1-0.3-2.6-1.8-3.5-3.1c-6.5-10.3-12.9-20.5-19.4-30.8c-1.8,1.1-1,2.6-1,3.7
		c-0.1,33.5-0.1,67,0,100.5c0,3.7-0.8,5-4.6,4.8c-6.5-0.3-13-0.3-19.5,0c-3.3,0.1-4.2-0.9-4.2-4.2c0.2-17.3,0.1-34.7,0.1-52
		c0-32.2,0.1-64.3-0.1-96.5c0-3.6,0.7-5,4.6-4.7c6.5,0.4,13,0.3,19.5,0c3.3-0.1,5.1,0.9,6.8,3.7c8.1,13.4,16.5,26.6,24.8,39.9
		C156.3,510.9,156.8,511.5,157.7,512.8z"/>
	<path class="st1" d="M419.4,530.3c-6.8,4.2-8.1,10.1-8,17.3c0.4,24,0.1,48,0.2,71.9c0,3.5-0.8,4.6-4.4,4.5c-6.6-0.3-13.3-0.2-20,0
		c-2.7,0.1-3.7-0.5-3.7-3.6c0.1-50,0.1-99.9,0-149.9c0-2.7,0.5-3.9,3.5-3.8c7,0.2,14,0.2,21,0c3-0.1,3.6,1.1,3.5,3.8
		c-0.1,11.3-0.1,22.5-0.1,33.8c4.7-4.3,9.3-8.3,13.6-12.6c7.4-7.4,14.6-15,22-22.5c1.1-1.2,2.2-2.5,4.1-2.5c10.8,0,21.5,0,33,1.2
		c-6.9,6.7-13.7,13.3-20.6,20c-6.2,6.1-12.1,12.4-18.5,18.3c-2.7,2.5-3.2,4.5-1.8,8.1c14.5,35,28.7,70.2,43.3,105.3
		c1.7,4.2,0.7,4.6-3.2,4.5c-7.2-0.2-14.3-0.3-21.5,0c-3.6,0.2-5.2-1.1-6.5-4.4c-11.5-28.9-23.2-57.7-34.9-86.6
		C420.4,532.2,419.9,531.3,419.4,530.3z"/>
	<path class="st1" d="M910.7,529.1c-0.4,15.3,1.2,34.4-0.6,53.3c-1.8,19.4-11,34.5-30.3,40.7c-19.3,6.2-37.7,4.2-52.9-10.7
		c-9.8-9.6-13.6-22.1-13.7-35.5c-0.3-35.3-0.1-70.6-0.1-105.9c0-3.2,0.7-4.4,4.1-4.3c6.5,0.3,13,0.3,19.5,0c3.9-0.2,4.7,1.1,4.6,4.7
		c-0.1,33.8-0.1,67.6-0.1,101.4c0,5.2,0.7,10.3,2.7,15.1c3.4,8,9.9,12.4,18.2,12.3c8.6-0.1,14.4-4.5,17.8-12.2
		c2.3-5.3,2.7-11,2.7-16.6c0-33.1,0.1-66.3-0.1-99.4c0-4,0.7-5.6,5.1-5.3c6.3,0.4,12.7,0.3,19,0c3.5-0.2,4.2,1.2,4.2,4.3
		C910.6,489.1,910.7,507.3,910.7,529.1z"/>
	<path class="st1" d="M986.1,626c-26.2,0-42.5-15.6-46-44.1c-1.5-12.2-1.5-12.2,10.5-13.6c4.8-0.5,10.6-2.7,14.2-0.9
		c4.1,2.1,1.6,8.8,2.7,13.3c1.2,4.9,2.2,9.8,5,14c7,10.8,21.8,10,27.7-1.5c5.1-10,3-22-5.2-30.9c-7.1-7.7-16.7-11.5-25.4-16.5
		c-11.2-6.4-19.5-15.2-22.8-27.8c-4.3-16.3-2.6-32,10.8-43.6c14.4-12.4,31.5-13.2,48.4-6c15.3,6.5,21.9,19.6,23,35.8
		c0.2,3.8-0.9,5.3-4.8,5.5c-5.3,0.2-10.6,0.9-15.9,1.7c-3,0.5-4.2-0.2-4.2-3.4c0-2.5-0.4-5-1.1-7.4c-1.9-6.8-6-11.6-13.3-12.6
		c-6-0.8-11.5,0.6-14.8,6.1c-3.8,6.4-3.7,13,0.2,19.4c2.8,4.6,7.2,7.3,11.7,9.8c6.9,4,14.2,7.4,20.8,11.9
		c20.9,14,28.9,39.6,20.2,63.1C1021.1,616,1006.2,626,986.1,626z"/>
	<path class="st1" d="M641.7,544.9c0-24.5,0.1-49-0.1-73.4c0-3.6,0.7-5,4.6-4.8c6.3,0.4,12.7,0.4,19,0c3.9-0.2,4.7,1.2,4.6,4.8
		c-0.1,40.5,0,80.9-0.2,121.4c0,5.3,1.5,6.3,6.4,6.1c13.1-0.3,26.3,0.1,39.5-0.2c4.1-0.1,5.1,1.2,4.8,5c-0.3,5.5-0.2,11,0,16.5
		c0.1,2.7-0.6,3.7-3.6,3.7c-23.8-0.1-47.6-0.2-71.4,0c-4.1,0-3.6-2.2-3.6-4.7C641.7,594.5,641.7,569.7,641.7,544.9z"/>
	<path class="st1" d="M747.9,519.3c3.4,2.5,6,4.6,8.7,6.4c4.4,3.1,9,6,14.3,6.7c4,0.5,5,2,4.9,5.9c-0.2,26.8-0.2,53.7,0,80.5
		c0,4.3-1.3,5.3-5.3,5.1c-6.5-0.3-13-0.2-19.5-0.1c-2.3,0-3.2-0.5-3.2-3C747.9,587.4,747.9,554,747.9,519.3z"/>
	<path class="st1" d="M577.1,688.6c5.6-5.3,10.9-10.1,15.8-15.2c2.5-2.6,5.1-3.8,8.8-3.5c3.9,0.3,7.9,0.1,13.3,0.1
		c-5.9,5.9-11,11-16.1,16.1c-6.3,6.3-6.2,6.3-2.8,14.6c6.4,15.7,12.7,31.5,19.3,47.1c1.5,3.5,0.4,3.8-2.7,3.8
		c-12.1,0.1-12,0.1-16.5-10.9c-4.5-11.3-9.1-22.5-13.7-33.8c-0.5-1.2-0.6-2.7-1.9-3.4c-2.9,1.7-3.6,4.2-3.6,7.5
		c0.2,12.2,0,24.3,0.2,36.5c0.1,3.3-0.9,4.2-4.2,4.1c-10.7-0.1-10.7,0-10.7-10.5c0-22.2,0.1-44.3-0.1-66.5c0-3.8,1.1-4.7,4.8-4.7
		c10.1,0.2,10.1,0,10.1,10.2C577.1,682.7,577.1,685.5,577.1,688.6z"/>
	<path class="st1" d="M241,687.9c5.2-4.7,10.4-9.1,15.1-13.9c2.9-2.9,5.6-4.7,9.9-4.2c3.8,0.4,7.6,0.1,12.7,0.1
		c-5.1,5.1-9.4,9.5-13.8,13.9c-8.4,8.4-8.4,8.4-3.9,19.5c6,14.8,12,29.6,18.2,44.3c1.3,3.2,0.9,3.9-2.6,3.9
		c-12.1,0-12.1,0.1-16.7-11.3c-5-12.3-10-24.6-15-36.9c-3.3,1.7-4.1,4-4.1,7.1c0.1,12.3-0.1,24.6,0.1,37c0.1,3.3-0.8,4.2-4.2,4.2
		c-10.7-0.1-10.7,0-10.7-10.5c0-22.1,0.1-44.3-0.1-66.4c0-3.8,1-4.8,4.7-4.7c10.2,0.2,10.2,0,10.2,10.2
		C241,682.7,241,685.5,241,687.9z"/>
	<path class="st1" d="M545.1,700.8c0,9.2,0.2,18.3-0.1,27.5c-0.4,11.2-6.7,19.7-16.3,22.9c-10.5,3.4-21.9,0.6-28.3-7.1
		c-4.5-5.4-6-11.8-6-18.6c-0.1-17.2,0.1-34.3-0.1-51.5c0-3.4,1-4.2,4.3-4.2c10.6,0,10.6-0.1,10.6,10.7c0,14.5,0,29,0,43.5
		c0,2.9,0.2,5.7,1.3,8.3c1.7,4.3,4.9,6.8,9.6,6.7c4.5-0.1,7.4-2.5,9.2-6.5c1.1-2.7,1.2-5.5,1.2-8.3c0-16.5,0.1-33-0.1-49.5
		c0-3.6,0.6-4.9,4.6-4.9c10.3,0.2,10.3,0,10.3,10.5C545.2,687.1,545.2,693.9,545.1,700.8C545.2,700.8,545.2,700.8,545.1,700.8z"/>
	<path class="st1" d="M153.5,701.2c0,8.7,0.2,17.3,0,26c-0.4,18.6-16.1,29.7-33.9,24c-10.5-3.4-16-11.2-16.3-21.6
		c-0.6-19-0.3-38-0.4-57c0-0.5-0.1-1.3,0.1-1.4c3.9-2.8,8.2-0.8,12.4-1.2c3-0.3,2.2,2.3,2.2,3.9c0.1,16.5,0,33,0,49.5
		c0,2.9,0,5.7,1.1,8.4c1.7,4.4,4.8,7.3,9.7,7.2c5,0,8-2.8,9.6-7.4c0.9-2.5,1-5.2,1-7.9c0-16.5,0.1-33-0.1-49.5
		c0-3.4,0.8-4.5,4.4-4.5c10.4,0.2,10.4,0,10.4,10.4C153.5,687.2,153.5,694.2,153.5,701.2z"/>
	<path class="st1" d="M946.4,701.2c0,8.8,0.2,17.7,0,26.5c-0.3,12.5-7.6,21.7-18.6,24.1c-12.3,2.7-23.5-1.9-28.7-11.8
		c-2.3-4.4-3.2-9.1-3.2-14c0-17.3,0.1-34.6-0.1-52c0-3.2,0.7-4.3,4.1-4.3c10.6,0.1,10.6-0.1,10.6,10.7c0,14.3,0,28.6,0,43
		c0,3,0.2,6,1.3,8.8c1.7,4.3,4.8,6.8,9.5,6.7c4.7,0,7.7-2.7,9.4-6.9c1-2.5,1.2-5.2,1.2-7.9c0-16.7,0.1-33.3-0.1-50
		c0-3.5,0.9-4.5,4.4-4.4c10.3,0.1,10.3,0,10.3,10.5C946.4,687.3,946.4,694.2,946.4,701.2z"/>
	<path class="st1" d="M820.4,727.9c-0.1,13.7-7.5,22.8-19.4,24.3c-13.6,1.7-23.2-4.6-26.8-17.5c-3-10.8-1.9-12.3,9.2-12.8
		c2.6-0.1,3.6,0.5,3.7,3.1c0.2,3.5,0.7,7,2.4,10.1c1.7,3.2,4.2,5.2,8,4.9c4-0.3,6.3-2.7,7.5-6.3c2.1-6.3-0.1-12.4-6.4-16.9
		c-3.2-2.3-6.9-4.1-10.3-6.1c-6-3.5-10.3-8.4-11.9-15.3c-3.1-13,3.8-24.4,16-26.5c14.5-2.4,25.5,5.4,26.9,19
		c0.3,3.1-0.4,4.4-3.5,4.3c-1.1,0-2.3,0.2-3.5,0.4c-3.9,0.9-6.5,0.9-6.6-4.6c0-3.6-2.7-6.4-6.7-7.1c-3.2-0.5-6.1,0.3-7.8,3.2
		c-2,3.5-1.8,7,0.5,10.3c1.9,2.7,4.8,4.1,7.6,5.6c5.8,3.2,11.9,6.1,15.9,11.8C818.9,716.8,820.7,722.2,820.4,727.9z"/>
	<path class="st1" d="M292.2,710.6c0-12,0.1-24-0.1-36c-0.1-3.5,0.5-5,4.5-4.8c10.7,0.3,21.3,0.2,32,0c3.5-0.1,4.5,0.9,4.5,4.4
		c-0.1,8.7,0,8.8-8.6,8.8c-4.8,0-9.7,0.1-14.5,0c-2.4-0.1-3,0.8-3.1,3.2c-0.5,10.7-0.6,10.7,10.1,10.7c1.8,0,3.7,0,5.5,0
		c8.8,0,10.5,2.2,8.7,11.1c-0.4,2.2-1.8,2-3.3,2c-5.8,0-11.7,0.1-17.5,0c-2.5-0.1-3.6,0.6-3.5,3.3c0.2,7.3,0.1,14.7,0,22
		c0,2.4,0.8,3.2,3.2,3.1c6.3-0.1,12.7,0.2,19-0.1c3.5-0.2,4.5,1,4.4,4.5c-0.1,8.7,0,8.7-8.5,8.7c-9.7,0-19.3-0.1-29,0.1
		c-3.1,0.1-4-0.8-3.9-3.9C292.3,735.2,292.2,722.9,292.2,710.6z"/>
	<path class="st1" d="M182,738.2c9.2,0,17.6,0.2,25.9-0.1c3.4-0.1,4.6,0.8,4.5,4.4c-0.2,8.8,0,8.8-9,8.8c-11.8,0-23.7-0.1-35.5,0.1
		c-3.1,0-3.9-0.9-3.9-4c0-4.4,0.7-8.4,2.9-12.4c8.2-15.3,16-30.7,23.9-46.1c0.9-1.7,1.7-3.5,2.9-6c-8,0-15.4-0.2-22.8,0.1
		c-3.6,0.1-4.9-0.7-4.8-4.6c0.3-8.6,0-8.6,8.8-8.6c11,0,22,0.1,33-0.1c3.1-0.1,4.4,0.6,4.4,4.1c-0.1,4.2-0.7,8-2.8,11.9
		C200.2,702.9,191.4,720.2,182,738.2z"/>
	<path class="st1" d="M963.5,710.6c0-12,0.1-24-0.1-36c-0.1-3.5,0.6-5,4.6-4.9c10.2,0.2,10.2,0,10.2,10.1c0,18,0.1,36-0.1,53.9
		c0,3.4,0.8,4.7,4.4,4.5c6.1-0.3,12.3,0.1,18.5-0.1c2.9-0.1,3.6,1,3.7,3.7c0.2,9.5,0.3,9.5-9.2,9.5c-9,0-18-0.2-27,0.1
		c-3.8,0.1-5.2-0.8-5.1-4.9C963.7,734.6,963.5,722.6,963.5,710.6z"/>
	<path class="st1" d="M348.2,710.4c0-12.2,0.1-24.3-0.1-36.5c-0.1-3.3,1-4.2,4.2-4.2c10.4,0.1,10.4-0.1,10.4,10.5
		c0,17.7,0.2,35.3-0.1,53c-0.1,4.3,1.3,5.3,5.3,5.1c6-0.4,12,0,18-0.1c2.4,0,3.1,0.8,3.2,3.1c0.5,10,0.6,10-9.2,10
		c-9,0-18-0.3-27,0.1c-4.3,0.2-4.9-1.4-4.8-5.1C348.4,734.4,348.2,722.4,348.2,710.4z"/>
	<path class="st2" d="M1018,771.9c-6.9-4.9-7.6-10.7-2-17.2c1.1-1.2,4.3-2.4,0.5-4.4c-0.5-0.3-0.2-2.2-0.2-3.4
		c0-24.1,0.1-48.3-0.1-72.4c0-3.6,0.8-4.9,4.6-4.8c10,0.2,10,0,10,9.8c0,22.1-0.1,44.3,0.1,66.4c0,3.5-0.4,5.9-4.2,7.2
		c-2.6,0.9-4.7,3-5.9,5.8c-0.9,2.1-0.8,3.9,0.7,5.5c1.6,1.7,3.9,1.9,5.5,0.6c3.3-2.6,5.9-2.1,7.3,1.4c1.5,3.7-2.7,3.6-4.4,5.1
		c-0.2,0.2-0.6,0.3-0.9,0.4C1025.4,774.3,1021.7,774.5,1018,771.9z"/>
	<path class="st1" d="M415.6,710.4c0,12.3-0.1,24.7,0.1,37c0,3-0.7,4-3.9,4c-10.9,0.1-10.9,0.3-10.9-10.4c0-22,0.1-44-0.1-66
		c0-4,0.7-5.5,5.1-5.3c9.7,0.3,9.7,0.1,9.7,9.7C415.6,689.8,415.6,700.1,415.6,710.4z"/>
	<path class="st3" d="M177.6,642.1c8.6,5.9,17.2,8.7,26-0.7c-0.3,4.7,2.9,9.7-1.5,12.3c-4.3,2.5-7.6,9.1-13.9,6
		C181.2,656.3,173.3,652.8,177.6,642.1z"/>
	<path class="st1" d="M612.8,620.3c-11.6-49.9-23.1-99.8-34.5-149.8c-0.7-3.1-2-4-5-3.9c-5.3,0.2-10.7,0.1-16,0.1
		c-5.7,0-11.3,0.1-17-0.1c-2.7-0.1-3.8,0.9-4.3,3.5c-2,9.4-4.2,18.8-6.3,28.2c-9,40.3-18.1,80.5-27.2,120.8
		c-0.8,3.5-0.7,5.1,3.6,4.9c6.5-0.4,13-0.3,19.5,0c3.1,0.1,4.2-0.8,4.9-4c3.4-16.1,7.2-32.2,10.6-48.3c0.6-2.9,1.7-3.8,4.6-3.7
		c7,0.2,14,0.3,21,0c4.1-0.2,5.3,1.3,6.1,5.1c3.2,15.8,6.7,31.6,10,47.4c0.5,2.6,1.4,3.6,4.2,3.6c7.7-0.2,15.3-0.2,23,0
		C612.7,624,613.5,623.5,612.8,620.3z M564.5,545.1c-5.2-0.1-10.3-0.1-15.5,0c-2.4,0.1-3.2-0.5-2.7-3.1c3.4-16.7,6.7-33.5,10.1-50.3
		c0.3,0.1,0.7,0.1,1,0.2c3.2,16.8,6.4,33.6,9.7,50.3C567.6,544.5,566.7,545.1,564.5,545.1z"/>
	<path class="st1" d="M354.5,619.6c-11.6-49.6-23-99.2-34.3-148.9c-0.8-3.4-2.3-4.1-5.4-4.1c-10.2,0.2-20.3,0.3-30.5-0.1
		c-4.6-0.2-6.2,1.4-7.1,5.8c-6.1,28-12.4,55.9-18.7,83.8c-5,22.4-10.1,44.8-15.2,67.7c8,0,15.6-0.2,23.3,0.1
		c3.6,0.1,5.1-0.8,5.9-4.6c3.2-15.8,6.9-31.5,10.3-47.3c0.6-2.9,1.6-4.2,4.9-4.1c7.1,0.3,14.3,0.3,21.5,0c3.3-0.1,4.5,1,5.2,4.3
		c3.1,15.8,6.7,31.6,9.9,47.4c0.6,3.1,1.7,4.5,5.1,4.3c7.1-0.3,14.3-0.2,21.5,0C354.5,624.1,355.4,623.5,354.5,619.6z M308.4,544.3
		c-2.3,2.7-8.4,0.7-12.9,0.8c-7.7,0.1-7.7,0-6.3-7.5c3-15.3,6.1-30.6,9.2-45.9c0.3,0,0.6,0,0.9,0c2.5,13.1,5.2,26.3,7.5,39.5
		C307.7,535.6,310.9,541.2,308.4,544.3z"/>
	<path class="st1" d="M764.4,745.8c-4.9-19.9-9.2-39.9-13.9-59.8c-1.3-5.3-0.5-12.7-4.5-15.2c-3.9-2.5-10.6-0.6-16.1-0.9
		c-3.2-0.2-4.5,0.8-5.3,4.1c-4.9,22.4-10,44.8-15.1,67.2c-2.3,10.2-2.4,10.1,8.1,10.3c3.2,0.1,4.8-0.8,5.4-4.1c0.8-4.8,2-9.4,3-14.2
		c2.4-11.4,2.4-11.4,14.3-10.9c2.4,0.1,3.6,0.7,4,3.2c1.1,6.1,2.3,12.1,3.8,18.1c2.3,9.4-0.3,7.6,9.2,7.7c0.8,0,1.7-0.1,2.5,0
		C764.7,752.2,765.5,750.6,764.4,745.8z M737.8,710.5c-9.1-0.3-7.6,0.9-6-7.3c1.2-6.3,2.5-12.5,3.7-18.8c0.4,0,0.7,0,1.1,0
		c1.4,7.5,2.8,15,4.4,22.4C741.7,709.9,740.7,710.6,737.8,710.5z"/>
	<path class="st1" d="M484.7,746.9c-5.3-22.3-10.4-44.7-15.5-67.1c-2.3-9.9-2.2-9.9-12.6-9.9c-2,0-4,0.3-6-0.1
		c-4-0.6-5.5,1.2-6.2,4.9c-1.4,7.7-3.3,15.3-5,22.9c-3.7,16.5-7.4,33.1-11.2,49.6c-0.8,3.4-0.2,4.2,3.4,4.2
		c10.5-0.1,10.5,0,12.7-10.3c0.5-2.6,1.2-5.2,1.8-7.8c2.4-11.1,2.4-11.1,13.7-10.9c0.3,0,0.7,0,1,0c2.3-0.3,3.2,0.8,3.7,3
		c0.9,5.1,2.1,10.1,3.1,15.1c2.3,11,2.3,10.8,13.7,10.9C485.2,751.5,485.5,750.4,484.7,746.9z M459,710.5c-1.7-0.1-3.3-0.1-5,0
		c-2.9,0.2-3.4-1-2.8-3.6l4.5-22.4c0.4,0,0.7,0,1.1,0c1.5,7.8,2.9,15.5,4.5,23.3C461.6,709.8,461,710.6,459,710.5z"/>
	<path class="st1" d="M886.2,748.2c-5.8-25.1-11.6-50.2-17.3-75.4c-0.6-2.4-1.8-3.1-4.2-3c-4.5,0.2-9,0.3-13.5,0
		c-3.3-0.2-4.6,0.8-5.3,4.1c-4.8,22.3-9.9,44.5-14.9,66.7c-2.5,11.2-2.5,11.1,9,10.8c2.4-0.1,3.6-0.7,4-3.2
		c0.9-4.9,2.1-9.8,3.1-14.6c2.6-11.8,2.6-11.7,14.5-11.3c2.5,0.1,3.5,0.9,3.9,3.3c1.2,6.2,2.6,12.4,3.9,18.5
		c1.6,7.3,1.6,7.3,9.1,7.3c1.7,0,3.3-0.1,5,0C886.3,751.6,886.7,750.6,886.2,748.2z M859.3,710.5c-1-0.1-2-0.1-3,0
		c-3.5,0.4-4.7-0.7-3.8-4.5c1.6-7,3.3-13.9,3.9-21.4c2.6,0.9,2.2,2.6,2.5,3.9c1.2,6,2.2,12.1,3.5,18.1
		C862.9,709.5,862.4,710.9,859.3,710.5z"/>
	<path class="st1" d="M683.7,669.9c-7.5-0.1-15,0.2-22.5-0.1c-3.4-0.1-4.2,1-4.2,4.2c0.2,12.1,0.1,24.3,0.1,36.4
		c0,10.1,0,20.3,0,30.4c0,10.6,0,10.5,10.7,10.6c3.3,0,4.3-0.8,4.2-4.1c-0.2-10.3,0.1-20.6-0.2-30.9c-0.1-4.1,1.2-5.2,5-4.8
		c3,0.3,6,0.1,9-0.2c12.5-1.4,19.8-9.7,19.3-21.7C704.6,678.1,696,670,683.7,669.9z M689.9,692c-0.5,3.3-2.4,5.6-5.7,6
		c-3.3,0.4-6.6,0.3-10,0.4c-1.7,0.1-2.4-0.8-2.3-2.5c0.1-1.8,0-3.7,0-5.5c0-7.6,0-7.5,7.7-7.5c2.4,0,4.7,0,6.7,1.4
		C689.1,686.2,690.4,688.7,689.9,692z"/>
</g>
</svg>
