<svg id="Layer_1" data-name="Layer 1" xmlns="http://www.w3.org/2000/svg" width="114.63" height="35.53" viewBox="0 0 114.63 35.53"><defs><style>.cls-1{fill:#601435;}</style></defs><title>logo_lt</title><g id="_Group_" data-name=" Group "><polygon id="_Path_" data-name=" Path " class="cls-1" points="38.03 19.01 49.65 19.01 49.65 13.96 38.03 13.96 38.03 5.97 51.27 5.97 51.27 0.93 32.42 0.93 32.42 32 51.67 32 51.67 26.96 38.03 26.96 38.03 19.01"/><path id="_Path_2" data-name=" Path 2" class="cls-1" d="M71.41,19H77.1v6.74A13.4,13.4,0,0,1,71,27.36c-6,0-10.33-4.92-10.33-10.85,0-6.1,4.24-10.94,10.33-10.94a14.82,14.82,0,0,1,8,2.5l2.67-4.16A18.66,18.66,0,0,0,71,.52,15.56,15.56,0,0,0,55,15.63q0,0.45,0,.89a15.61,15.61,0,0,0,15.31,15.9H71A20,20,0,0,0,82.46,28.3V14h-11v5h0Z"/><path id="_Compound_Path_" data-name=" Compound Path " class="cls-1" d="M99.66,0l-15,32h6l3.11-7.06h11.86l3,7.06h6ZM95.91,19.9l3.75-8.56,3.8,8.56H95.91Z"/><polygon id="_Path_3" data-name=" Path 3" class="cls-1" points="0 0.12 0 35.53 5.61 29.93 5.61 13.33 13.9 21.63 22.2 13.32 27.81 7.72 27.81 0.1 13.9 14.01 0 0.12"/></g></svg>