<?xml version="1.0" encoding="utf-8"?>
<!-- Generator: Adobe Illustrator 24.0.3, SVG Export Plug-In . SVG Version: 6.00 Build 0)  -->
<svg version="1.1" id="Layer_1" xmlns="http://www.w3.org/2000/svg" xmlns:xlink="http://www.w3.org/1999/xlink" x="0px" y="0px"
	 viewBox="0 0 1033.5 96.1" style="enable-background:new 0 0 1033.5 96.1;" xml:space="preserve">
<style type="text/css">
	.st0{fill:#5D575B;}
	.st1{fill:#5D585B;}
	.st2{fill:#5D585A;}
</style>
<g>
	<path class="st0" d="M973.3,95.6c-15.8-0.2-30.8-1.4-45.7-4.6c-3.6-0.8-5.6-1.9-5.2-6.1c0.4-3.8-1.2-9,0.8-11.1
		c2.2-2.2,7,0.9,10.6,1.5c26.5,4.8,53,4.6,79.5-0.5c2.8-0.5,3.4-1.7,3.5-4.2c0.3-12.1,0.4-12-11.4-14.1c-10.7-1.8-21.5-2.5-32.3-2.6
		c-17-0.3-33.9-1.4-50.2-6.9c-4-1.3-5.5-3.2-5.3-7.4c0.4-8.3,0.2-16.7,0-25c-0.1-2.7,0.9-3.8,3.4-4.5c34.5-9.9,69.3-10.1,104.3-3
		c2.6,0.5,3.6,1.7,3.5,4.4c-0.3,4.3,1.3,10-0.9,12.5c-2,2.3-7.6-1.1-11.6-1.8c-25.9-4.6-51.7-4.3-77.5,0.5c-3.7,0.7-4.3,2.3-4.4,5.7
		c-0.1,3.6,1.2,4.8,4.6,5.4c14.6,2.8,29.4,3.6,44.2,4.1c15.7,0.5,31.2,2.1,46.2,7.1c3.3,1.1,4.3,2.6,4.2,6c-0.2,10.5-0.2,21,0,31.5
		c0.1,3.3-1,4.5-4.1,5.5C1011,93.7,992,95.2,973.3,95.6z"/>
	<path class="st1" d="M659.5,44.6c0-13,0.1-26-0.1-39c0-3.1,0.5-4.2,4-4.2C676,1.6,676,1.4,676,14.2c0,6.3,0,6.2,6.2,5.2
		c24.5-4,49-4.5,73.6-0.6c2.8,0.4,3.9,1.3,4,4.4c0.3,13.4,0.4,13.2-12.6,11.5c-22.3-3-44.5-2.2-66.6,1.9c-3.4,0.6-4.8,1.8-4.6,5.5
		c0.3,9.3,0.3,18.7,0,28c-0.1,3.8,1.2,5.1,4.7,5.8c22.9,4.5,46,4.8,69,1.6c5.7-0.8,11.4-2.1,17.1-3.4c3.1-0.7,3.6,0.3,3.7,3.1
		c0.5,13.3,0.6,13.5-12.6,15.7c-31.4,5.3-62.6,4.4-93.5-3.9c-4-1.1-5.2-2.7-5.1-6.8C659.7,69.6,659.5,57.1,659.5,44.6z"/>
	<path class="st1" d="M121.9,51.9c0,12.8-0.1,25.6,0.1,38.5c0.1,3.5-1.1,4.4-4.5,4.4c-12.2,0-12.2,0.1-12.2-12.1
		c0-18.6-0.1-37.3,0-55.9c0-3.9-1.3-5.3-5.2-6c-26.3-4.9-52.6-4.8-78.9,0.1c-3.4,0.6-4.6,1.9-4.5,5.5c0.2,21.3,0,42.6,0.2,63.9
		c0,3.3-0.7,4.6-4.3,4.6c-12.5,0-12.5,0.1-12.5-12.4c0-23,0.1-46-0.1-68.9c0-3.2,0.9-4.6,4.1-5.5c25.6-7.6,51.8-8.5,78.2-6.6
		c12.3,0.9,24.4,3.1,36.2,6.7c2.7,0.8,3.6,2,3.6,4.8C121.9,25.9,121.9,38.9,121.9,51.9z"/>
	<path class="st2" d="M644.5,48.5c0,11.7-0.1,23.3,0.1,35c0,2.8-0.9,4.1-3.6,4.9c-35,10.4-69.9,10.4-104.9,0.2
		c-3.1-0.9-4.1-2.3-4.1-5.5c0.1-23.3,0.1-46.6,0-70c0-3.2,0.7-4.3,4.1-4.3c12.7,0,12.7-0.2,12.7,12.6c0,16.5,0.1,33-0.1,49.5
		c0,2.8,0.7,4.1,3.6,4.7c23.8,5.1,47.6,5.1,71.4,0.1c3.2-0.7,4.2-1.9,4.2-5.2c-0.2-19,0-38-0.2-57c0-3.8,1.1-4.7,4.8-4.7
		c12.1,0.1,12.1,0,12.1,12.2C644.5,30.1,644.5,39.3,644.5,48.5z"/>
	<path class="st1" d="M273.9,51.7c0-12.7,0.1-25.3-0.1-38c-0.1-3.4,0.8-4.9,4.2-5.9c25.5-7.5,51.5-8.4,77.7-6.5
		c8.3,0.6,16.5,2.1,24.7,3.7c3.3,0.6,5,1.8,4.6,5.5c-0.5,3.9,1.6,9.3-0.8,11.5c-2.6,2.3-7.4-0.9-11.2-1.6
		c-26.2-4.8-52.3-4.3-78.5,0.4c-3.2,0.6-3.9,2.1-3.8,5.1c0.1,21.2-0.1,42.3,0.2,63.5c0.1,4.6-1.3,5.5-5.6,5.4
		c-11.3-0.3-11.3-0.1-11.3-11.6C273.9,72.7,273.9,62.2,273.9,51.7z"/>
	<path class="st0" d="M258.8,12.6c0-2.8-0.9-4-3.6-4.9c-11-3.5-22.3-5.5-33.7-6.6c-23.5-2.3-46.9-1.3-70,3.7c-2,0.4-3.9,0.7-3.8,3.6
		c0.2,4.6,0,9.3,0,14c1,0,1.5,0.1,1.9,0c25.7-6.6,51.6-6.9,77.8-3.7c14.7,1.8,14.7,1.7,14.6,16.3c0,0.5,0,1,0,1.5
		c0.3,3.1-1.1,3.7-3.9,3c-8.5-1.9-17.1-2.8-25.7-3.2c-24.3-1.4-48.2,0.3-71.7,7.1c-3.4,1-4,2.6-3.9,5.7c0.1,10.7,0.3,21.3-0.1,32
		c-0.2,4.7,1.7,6.4,5.8,7.5c15.2,4.2,30.6,6.2,46.3,6.7c22.2,0.7,44.2-0.8,65.7-7.3c2.7-0.8,4.2-1.6,4.2-5
		C258.7,59.6,258.7,36.1,258.8,12.6z M242.3,63.7c-0.5,10.6-0.1,10.7-10.5,12.5c-11.2,1.9-22.4,2.8-32.4,2.6c-15,0-28.6-1-42-3.8
		c-2.8-0.6-3.7-1.7-3.8-4.6c-0.2-13.9-0.3-13.8,13.6-15.7c22.9-3.2,45.7-2.7,68.5,1.1C240.8,56.7,242.5,58.5,242.3,63.7z"/>
	<path class="st0" d="M902.5,48.3c0-11.7-0.2-23.3,0.1-35c0.1-3.5-1-4.8-4.3-5.8c-30.8-8.8-62.1-9.4-93.5-4.4
		c-13.7,2.2-13.5,2.4-13.3,16.1c0.1,3.2,0.9,3.5,3.7,2.8c25.9-6.4,52.1-6.6,78.4-2.9c12.3,1.7,12.3,1.9,12.3,14.2
		c0,1.2-0.1,2.3,0,3.5c0.3,3-1.1,3.3-3.6,2.8c-7.8-1.7-15.8-2.5-23.7-3.1c-24.9-1.7-49.6-0.1-73.7,6.9c-3.2,0.9-4.1,2.3-4.1,5.5
		c0.2,11.2,0.3,22.3,0,33.5c-0.1,3.7,1.4,4.8,4.5,5.8c10.4,3.2,21,5.1,31.8,6.1c27.6,2.6,54.9,1.6,81.7-6.3c2.8-0.8,3.9-2,3.9-5.1
		C902.4,71.3,902.5,59.8,902.5,48.3z M872.3,76.9c-10.6,1.4-21.2,2.3-30,2c-15,0-28-1.1-41-3.8c-3.2-0.6-4.3-2-3.9-5
		c0.1-0.7,0-1.3,0-2c0-11.1,0-11.3,10.9-12.9c24.4-3.7,48.7-3.5,72.9,1.1c3.3,0.6,4.7,1.6,4.6,5.3C885.8,75.1,886,75.1,872.3,76.9z"
		/>
	<path class="st0" d="M516.9,28.6c0-2.9-0.7-4.4-3.8-5.3c-14.8-4.2-29.8-6.8-45.2-7.4c-17.7-0.7-35.3,0.1-52.7,3.6
		c-2.7,0.5-3.8-0.1-3.5-2.9c0.1-1.2,0-2.3,0-3.5c0-12.4,0-12.3-12.6-12.2c-3.3,0-4.3,0.9-4.3,4.2c0.2,13,0.1,26,0.1,38.9
		c0,12.8,0.1,25.6-0.1,38.4c0,3.2,0.9,4.6,4.1,5.5c15.4,4.5,31.2,6.7,47.2,7.3c22.4,0.8,44.5-0.8,66.2-7.1c3.1-0.9,4.6-2.1,4.6-5.7
		C516.7,64.5,516.8,46.6,516.9,28.6z M500.2,55.7C500.2,55.7,500.3,55.7,500.2,55.7c0,5.2,0,10.3,0.1,15.5c0,2.2-0.7,3.2-3,3.7
		c-27.6,5.6-55.1,5.6-82.7,0c-2.4-0.5-2.8-1.7-2.8-3.8c0-10.3,0.2-20.6-0.1-30.9c-0.1-4,2.7-3.6,4.9-4.1c16.1-3.2,32.3-4,48.6-3.4
		c10.3,0.3,20.5,1.7,30.7,3.5c3.2,0.5,4.5,1.8,4.3,5.1C500.1,46,500.2,50.8,500.2,55.7z"/>
</g>
</svg>
