<svg xmlns="http://www.w3.org/2000/svg" viewBox="0 0 544.25 136.06"><path fill="none" d="M1.81 5.79h540.74V133.6H1.81z"/><path d="M220.14 89.54A27.53 27.53 0 0 0 228 69.69a27.52 27.52 0 0 0-7.84-19.86 26.63 26.63 0 0 0-38.29 0A27.56 27.56 0 0 0 174 69.69a27.57 27.57 0 0 0 7.84 19.85 26.56 26.56 0 0 0 38.29 0m-48.78 9.73a40.24 40.24 0 0 1-12.24-29.58A41.71 41.71 0 0 1 201 27.91a40.41 40.41 0 0 1 29.66 12.19 40.32 40.32 0 0 1 12.22 29.59 40.29 40.29 0 0 1-12.22 29.58 42.11 42.11 0 0 1-59.3 0m92.91-33.85h6.42q7.53 0 11.29-2.77c2.52-1.84 3.78-4.59 3.78-8.29s-1.26-6.45-3.78-8.31-6.27-2.79-11.29-2.79h-6.42zm-14.88-36h21.25q14.3 0 22.15 6.25t7.85 17.65q0 12.83-7.55 19.34t-22.38 6.53h-6.44v30.7h-14.88zm68.4 13.8h-14.9V29.46h44.69v13.8h-14.9v66.67h-14.89zm37.74-13.8h14.9v80.47h-14.9zm45.02 66.71h7.8q7.32 0 11-2.69c2.44-1.78 3.67-4.43 3.67-8s-1.31-6.25-3.93-8-6.56-2.69-11.81-2.69h-6.7zm0-35.18h5.29c4.17 0 7.29-.74 9.38-2.21a7.53 7.53 0 0 0 3.14-6.6 7.63 7.63 0 0 0-3.14-6.65c-2.09-1.48-5.21-2.23-9.38-2.23h-5.29zm-14.9-31.49h20.17q12.51 0 20 5.71a18.23 18.23 0 0 1 7.45 15.28 17.32 17.32 0 0 1-7.46 14.67l-1.47 1a27.37 27.37 0 0 1 5.34 3.06 19.35 19.35 0 0 1 8.24 16.38q0 11.12-8.06 17.74t-21.51 6.62h-22.7zm61.87 80.47V29.46h43.15v13.8h-28.24v20h26.88v13.81h-26.88v19.06h28.24v13.8zm65.23-66.67h-14.89v-13.8h44.69v13.8h-14.9v66.67h-14.9zM65.71 5.79a63.91 63.91 0 1 0 63.91 63.91A64 64 0 0 0 65.71 5.79m0 113.07a49.16 49.16 0 1 1 49.17-49.16 49.22 49.22 0 0 1-49.16 49.16" fill="#383938"/><path d="M65.72 20.54a49.16 49.16 0 1 0 49.16 49.16 49.22 49.22 0 0 0-49.16-49.16m0 83.57a34.41 34.41 0 1 1 34.41-34.41 34.45 34.45 0 0 1-34.41 34.41" fill-rule="evenodd" fill="#fff"/><path d="M65.72 89.36A19.66 19.66 0 1 0 46.06 69.7a19.68 19.68 0 0 0 19.66 19.66" fill="#c72a2a"/><path d="M65.72 35.29a34.41 34.41 0 1 0 34.41 34.41 34.45 34.45 0 0 0-34.41-34.41m0 54.07A19.66 19.66 0 1 1 85.38 69.7a19.68 19.68 0 0 1-19.66 19.66" fill="#383938"/></svg>