<?xml version="1.0" encoding="utf-8"?>
<!-- Generator: Adobe Illustrator 24.0.3, SVG Export Plug-In . SVG Version: 6.00 Build 0)  -->
<svg version="1.1" id="Layer_1" xmlns="http://www.w3.org/2000/svg" xmlns:xlink="http://www.w3.org/1999/xlink" x="0px" y="0px"
	 viewBox="0 0 353.4 117.9" style="enable-background:new 0 0 353.4 117.9;" xml:space="preserve">
<style type="text/css">
	.st0{fill:#012855;}
	.st1{fill:#012856;}
	.st2{fill:#022956;}
	.st3{fill:#040404;}
	.st4{fill:#F8B848;}
	.st5{fill:#042957;}
	.st6{fill:#A69F88;}
	.st7{fill:#F8B94C;}
	.st8{fill:#6F2F3D;}
	.st9{fill:#022754;}
	.st10{fill:#FAB848;}
	.st11{fill:#A79F89;}
	.st12{fill:#6F2F3E;}
	.st13{fill:#6E2F3F;}
	.st14{fill:#052A54;}
	.st15{fill:#0C0C0C;}
	.st16{fill:#161616;}
	.st17{fill:#0E0E0E;}
	.st18{fill:#1A1A1A;}
	.st19{fill:#121212;}
	.st20{fill:#232323;}
	.st21{fill:#111111;}
	.st22{fill:#080808;}
	.st23{fill:#803D09;}
	.st24{fill:#141414;}
	.st25{fill:#101010;}
	.st26{fill:#2C2C2C;}
</style>
<g>
	<path class="st0" d="M167.1,51.6c-5.9,2.5-4.6,7.5-4.7,12c0,8.6,0,8.6-8.5,8.6c-8.7,0-8.7,0-8.7-8.9c0-8.2-0.2-16.3,0.1-24.5
		c0.1-3.5-1.2-4.6-4.5-4.8c-9.4-0.6-14.6,3.9-14.8,13.2c-0.1,7.2-0.1,14.3,0,21.5c0,2.5-0.6,3.4-3.3,3.5
		c-14.1,0.5-14.1,0.6-14.1-13.7c0-11.5,0.1-23,0-34.4c0-3.1,0.6-4.8,4.1-4.3c1.8,0.3,3.7,0,5.5,0c7.2,0,7.2,0,7.5,8.1
		c4.2-6.8,10-9.7,17.3-9c2.3,0.2,2.3-1.2,2.3-2.8c0-4.3,0.1-8.7-0.1-13c-0.1-2.4,0.7-3.2,3.1-3.1c3.7,0.2,7.3,0.2,11,0
		c2.9-0.2,3.2,1.1,3.2,3.5c-0.1,10.7,0,21.5,0,33.5c4.9-5.4,9-9.9,13-14.5c1.8-2.1,3.7-2.9,6.4-2.8c5,0.2,10,0.1,16.2,0.1
		c-5.5,5.6-10.1,10.7-15.2,15.4c-3.2,3-3.8,5.2-1,9c6.4,8.8,12.2,18.1,18.7,27.9c-6.9,0-13-0.1-19.1,0c-2.2,0-2.7-1.6-3.5-3
		C174.3,63.3,170.7,57.4,167.1,51.6z"/>
	<path class="st1" d="M259.5,26.1c5-5,10.2-7.6,16.5-7.8c11.7-0.4,18.8,5.8,19.2,17.4c0.4,11.1,0.1,22.3,0.2,33.4c0,2.5-1,3.1-3.2,3
		c-3.7-0.1-7.3-0.2-11,0c-2.9,0.2-3.2-1.1-3.2-3.5c0-9.6-0.1-19.3-0.3-28.9c-0.1-4.3-2.5-6.8-6.8-7.3c-4.2-0.5-7.5,1-9.5,4.9
		c-1.2,2.3-1.3,4.8-1.3,7.3c0,7.3-0.3,14.7,0.1,22c0.3,4.8-1.5,6-5.8,5.5c-2.3-0.3-4.7-0.3-7,0c-3.6,0.4-4.9-0.6-4.8-4.5
		c0.3-14.5,0.2-29,0-43.4c0-3.5,1-4.8,4.5-4.4c2.1,0.2,4.3,0.2,6.5,0C257.8,19.5,261.1,19.9,259.5,26.1z"/>
	<path class="st0" d="M317.2,26.9c6.8-7,13.7-9.7,21.8-8.2c9,1.7,13.9,7.1,14.2,16.6c0.4,11.3,0.1,22.6,0.2,34c0,2.5-0.9,3.1-3.2,3
		c-4.5-0.2-10.2,1.4-13.1-0.8c-3.1-2.3-0.8-8.4-1-12.8c-0.2-5.5,0.1-11-0.1-16.5c-0.2-6.8-2.7-9.6-8.1-9.8c-5.4-0.2-9.3,3.7-9.5,9.9
		c-0.3,8.3-0.3,16.7,0,25c0.1,4-1,5.4-5,4.9c-3.9-0.5-9,1.6-11.6-0.8s-0.7-7.6-0.8-11.5c-0.1-12,0.1-24-0.1-36
		c-0.1-3.3,0.9-4.5,4.1-4.1c2.3,0.2,4.7,0.3,7,0C316.4,19.3,318.6,20.7,317.2,26.9z"/>
	<path class="st2" d="M219.8,46.2c0-7.5,0.1-15-0.1-22.5c-0.1-3.2,1-4.1,4-3.9c4.3,0.3,9.9-1.3,12.5,0.9c2.8,2.3,0.8,8.1,0.9,12.4
		c0.1,11.7-0.1,23.3,0.1,35c0.1,3.3-1,4.4-4.2,4.1c-3-0.3-6-0.3-9,0c-3.7,0.4-4.4-1.2-4.3-4.6C220,60.5,219.8,53.4,219.8,46.2z"/>
	<path class="st3" d="M334.6,103.8c-2.9,1.6-5.9,2.3-9.2,2.5c-17.5,1.3-35.1,1.5-52.4,4.8c-1.2,0.2-5.3-1.9-3.9,2.7
		c0.1,0.2-1.2,0.5-1.7,0c-1.9-1.8-4.3-1.4-6.9-1.8c1.7-1,2.4-1.8,0.8-3.3c-2.5-2.4-4.3-5.5-5.9-8.6c-1.2-2.3-0.9-3.7,1.9-4.1
		c1-0.1,1.9-0.4,2.9-0.6c1.4-0.3,2.7-0.8,3-2.3c0.4-1.8-1-2.8-2.3-3.4c-5.4-2.9-11.1-4.3-17.7-2.3c1.1-3.3,3.4-4.1,5.7-4.8
		c4.5-1.3,13.8,2.6,16.4,6.6c2.7,4.2,0.9,7-5.4,8.4c1,3.9,3.7,6.9,5.7,10.3c1.5,2.7,3.7,1.3,5.7,0.8
		C292,103.9,313.2,102.2,334.6,103.8z"/>
	<path class="st4" d="M178.6,84.3c4.8-0.1,9.6-0.1,14.4-0.3c2.6-0.1,3.3,1,3.5,3.5c0.7,13.8,0.8,13.8-12.9,13.7
		c-1.7,0-3.3-0.1-5-0.2C175.8,95.5,175.8,89.9,178.6,84.3z"/>
	<path class="st5" d="M126.5,84.4c5.9-0.7,11.9-0.5,17.8-0.1c2.6,5.6,2.6,11.1,0,16.7c-5.9,0.4-11.9,0.5-17.8-0.1
		C124,95.4,124,89.9,126.5,84.4z"/>
	<path class="st6" d="M74.4,84.3c6,0,12-0.1,18-0.1c2.5,5.6,2.4,11.3,0,16.9c-6,0-12,0-18,0C72,95.5,72,89.9,74.4,84.3z"/>
	<path class="st7" d="M39.6,84.5c5.7-0.7,11.5-0.7,17.2,0c3.1,4,3.1,12.4,0,16.4c-5.8,0.6-11.5,0.5-17.3,0.1
		C37,95.4,36.9,89.9,39.6,84.5z"/>
	<path class="st8" d="M39.6,84.5c0,5.5-0.1,11-0.1,16.5c-1.3,0.1-2.6,0.3-3.9,0.4c-14.8,0.1-14.7,0.1-13.4-14.6
		c0.2-1.8,0.6-2.7,2.5-2.6C29.8,84.3,34.7,83.6,39.6,84.5z"/>
	<path class="st9" d="M56.9,100.9c0-5.5,0-10.9,0-16.4c5.8-0.8,11.7-0.4,17.5-0.2c0,5.6,0,11.2,0,16.8
		C68.6,101.3,62.7,101.7,56.9,100.9z"/>
	<path class="st10" d="M126.5,84.4c0,5.5,0,11,0,16.5c-5.7,0.4-11.3,0.5-17,0c-2.8-4.9-1.3-10.1-1.1-15.1c0.2-0.6,0.6-1.1,1-1.5
		C115.1,84.1,120.8,83.7,126.5,84.4z"/>
	<path class="st11" d="M144.3,101c0-5.6,0-11.1,0-16.7c5.7,0,11.5,0,17.2,0c2.2,5.6,2.2,11.2,0,16.7C155.8,101,150,101,144.3,101z"
		/>
	<path class="st12" d="M161.5,101c0-5.6,0-11.2,0-16.7c5.7,0,11.4,0,17.1-0.1c0,5.6,0,11.2,0,16.8
		C172.9,101.1,167.2,101.1,161.5,101z"/>
	<path class="st13" d="M109.4,84.3c-0.1,0.3-0.1,0.7-0.2,1c-1,5.2,0.4,10.6-0.8,15.8c-5.3,0-10.7,0-16,0.1c0-5.6,0-11.3,0-16.9
		C98.1,84.2,103.8,84.3,109.4,84.3z"/>
	<path class="st14" d="M227.7,13.3c-2.2-0.3-6,1.3-7.2-0.6c-1.9-3-0.6-7.1-0.7-10.7c-0.1-2,1.6-1.7,2.9-1.8c3.5,0,7,0.2,10.5-0.1
		c3.3-0.3,4.2,0.9,4.1,4.1C237.2,13.3,237.4,13.3,227.7,13.3z"/>
	<path class="st15" d="M255.1,89.2c-2.8,9.5-6,18.9-7.9,28.7c-3.9-2.6-3.9-5.9-2.4-9.7C247.4,101.5,250.7,95.1,255.1,89.2z"/>
	<path class="st16" d="M333.1,88.2c0.8,0.1,3.2,7.5,2.5,8.2c-1.9,1.8-4,3.4-6.9,3.4c-0.4,0-1-0.3-1.2-0.7c-1.1-1.9,0-3.5,0.8-5.1
		C330.4,89.7,331.8,88.1,333.1,88.2z"/>
	<path class="st17" d="M302.1,97.9c1.4-1.8,2.7-3.7,4.4-5.3c1.1-1.1,1.4-4.3,3.5-3s3.8,3.8,3.9,6.6c0.1,2.3-1.8,3.4-3.8,3.9
		c-1.1,0.3-2.2,0-3.9,0c1.9-1.9,4.4-3.5,2.3-6.6c-2,1.7-3.9,3.4-5.7,5C302.1,98.5,301.9,98.4,302.1,97.9z"/>
	<path class="st18" d="M316.9,99.6c1.8-2.1,3.9-3.5,2.5-6c-1.3-2.2-2.3,1.5-3.9-0.1c1.7-2.1,3.3-4.3,5.5-7c0.8,2.1-0.6,4.1,1.1,5.3
		c1.8,1.3,3.4,3,1.9,5.4C322.6,99.5,320.2,100.1,316.9,99.6z"/>
	<path class="st18" d="M344.4,92.1c1.5-0.4,3-1.3,4,1c0.9,1.9,2.3,3.6,3.5,5.4c0.6,1,2.5,2,0.8,3.2c-1.6,1.1-3.2,0.6-4.1-1.3
		c-0.7-1.5-1.1-3.1-1.7-4.7c-1.3-3-1.6,0.3-2.5,0.4C342.2,94.8,342.9,93.4,344.4,92.1z"/>
	<path class="st19" d="M344.4,92.1c0,1.4-1.1,2.7,0,4.1c-0.2,1.4-1,2.5-2,3.3c-0.5,0.4-1.2,0.8-1.7,0.7c-1.5-0.3-1.3-1.7-1.3-2.8
		c0.1-2.6,0-5.5,2.4-7.2C342.9,89.3,344.2,90.4,344.4,92.1z"/>
	<path class="st20" d="M229.8,101.2c1.9-4.5,2-8.5-1.9-12.7c3.8-0.4,3.2,2.9,4.9,3.5c1.2-1,1.1-3.1,4.1-4.3
		C234.9,93.2,232.9,97.4,229.8,101.2z"/>
	<path class="st21" d="M302.6,98.5c-1,1.4-2.4,2.7-4,1.9c-1.9-0.9-1.3-3.2-1.3-4.9c0.1-1.9-0.3-4.1,1.7-5.3c0.4-0.3,1.4-0.1,1.8,0.2
		c1.2,0.8,0.6,2,0.4,3.1c-0.3,1.6-3.2,3.7,0.9,4.4C302.3,98.1,302.5,98.3,302.6,98.5z"/>
	<path class="st22" d="M336.7,104.1c3-1.5,5.7-0.1,8.4,0.5C342.3,107.3,339.6,106.2,336.7,104.1z"/>
	<path class="st23" d="M108.5,101.1c0.4-5.3-1-10.6,0.8-15.8c0.1,5.2,0.2,10.4,0.3,15.7C109.2,101,108.8,101,108.5,101.1z"/>
	<path class="st24" d="M301.7,86.2c-0.6-1.8-0.5-3.3,1.4-4c0.6-0.3,1.3,0.2,1.4,0.9C304.8,85.2,303.5,85.9,301.7,86.2z"/>
	<path class="st1" d="M103,39.5c-0.2-14.2-4.4-19.2-18.4-20.9c-6.1-0.7-12.2-0.3-18.3,1.4c-7,2-11.1,6.8-13.2,14.4
		c-4.7-14.8-22.9-22.2-36.2-9.3c0.9-5-1.6-5.7-5.3-5.2c-2,0.3-4,0.3-6,0c-4-0.6-5.3,0.7-5.3,5c0.3,21.3,0.1,42.6,0.1,63.9
		c0,4-1.3,9.2,0.6,11.6c2.4,2.8,7.8,0.4,11.9,1c4.2,0.6,4.8-1.4,4.7-5c-0.2-9.5-0.1-19.1-0.1-29.1c10.3,9,24.1,9.3,34.1-4
		c6.4,12,19.3,13.8,34.4,5c1.4,1,0.3,4.1,3.4,4c5-0.2,9.9,0,15,0C101.9,61.1,103.2,50.2,103,39.5z M36.5,53.5
		c-1.7,4.5-4.7,7.1-9.7,6.9c-5.2-0.2-7.7-3.4-8.9-7.9c-0.5-2.1-0.5-4.3-0.6-5c-0.1-10.7,3.9-16.2,10.5-16.1
		c6.3,0.1,10.1,5.8,9.9,14.7C37.6,48.6,37.4,51.1,36.5,53.5z M77.6,63c-3.8,0.5-7.7-0.1-8.8-4.5c-1.1-4.5,2-6.6,5.9-7.6
		c3.7-0.9,7.4-1.7,11.4-2.6C86.6,57.8,84.1,62.2,77.6,63z M83.2,39.2c-3.2,0.9-6.5,1.5-9.8,1.8c-6.3,0.7-12.4,1.9-18.1,5.6
		c-0.5-3.6-0.9-6.9-1.4-10.5c2.7,0,5.2,0,7.6,0c4,0,7.8,0.7,10.3-4.2c1.9-3.7,10-3.2,13.1-0.1C87.6,34.3,86.8,38.1,83.2,39.2z"/>
	<g>
		<path class="st22" d="M292.2,76.6c0,4.7,0.1,8.4-0.1,12c0,1,0.3,3.2-2,2c-2.8-1.5-4.4-0.1-5.8,2.1c-1.6,2.4-2.5,5.1-1.6,8
			c0.3,1,1.1,1.7,2.3,1.6c4-0.3,8,0.2,8.7-5.8c0.4-3.8,2.3-7.6,2.9-11.5C297,81.6,295.7,79.2,292.2,76.6z M289.8,98.4
			c-0.9,0.9-2.3,2.2-3.4,0.9c-2-2.3,0.1-4.2,1.6-6.2C287.3,95.4,293.1,95.4,289.8,98.4z"/>
	</g>
	<g>
		<path class="st25" d="M277.8,97.3c0.4-1.7,2.5-4.4-0.4-4.9c-1.9-0.4-4.9-1-6.8,1.5c-2.1,2.8-4.5,5.4-3.8,9.3c0.2,1,1.3,2.3,2,1.8
			c3.5-2.3,9.3,1.1,11.4-5.3C276.4,101.3,277.4,99.2,277.8,97.3z M272.3,102.1c-0.7,0.4-1.9,0.4-1.9-0.7c0-2.9,1.4-5.1,3.6-7
			c0.3,0.4,0.4,0.6,0.4,0.7C274.4,97.7,275,100.4,272.3,102.1z"/>
	</g>
	<g>
		<path class="st26" d="M225.1,88.5c-3.7,0-3.3-2.5-4-4.6c-0.5,0-0.9,0.1-1.4,0.1c0,3,0,6,0,9c0,2-0.4,4.2,2.7,4.2
			c2.3,0,4.4-0.5,5-3.1C228,91.7,227.8,88.5,225.1,88.5z M223.4,95.2c-1.6,0.1-1.8-1-1.8-2.3c0-1.4,0-2.7,1.9-2.9
			c1.8-0.1,2.3,1.2,2.3,2.6C225.7,94,225.1,95.3,223.4,95.2z"/>
	</g>
</g>
</svg>
