<svg version="1.1" id="Layer_1" xmlns="http://www.w3.org/2000/svg" x="0" y="0" viewBox="0 0 654.2 153.1" xml:space="preserve"><style>.st1{fill:#fff}</style><g id="Layer_7"><path d="M87.1 57.6c-.9-2.5-2.3-4.8-4-6.8-1.7-2-3.8-3.8-6.2-5.2-3.2-1.9-7.2-3.1-11.9-3.8-4.8-.6-11.6-1-20.5-1-5.2 0-9.6.2-13.4.4-3.9.3-6.9.8-8.9 1.5-2.3.7-4.4 1.8-6.2 3.1-.4.3-.9.7-1.3 1.1v-3.2c0-.6-.2-1.1-.6-1.5-.4-.4-.9-.6-1.5-.6H2.2c-.6 0-1.1.2-1.6.6-.4.5-.6 1-.6 1.7v89.5c0 .6.2 1.1.6 1.5.5.4 1 .6 1.6.6h10.4c.6 0 1-.2 1.5-.6.4-.4.6-.9.6-1.5v-26.6c2.2 1.9 4.8 3.2 7.7 4.1 2.1.6 4.9 1.1 8.6 1.4 3.5.3 7.6.4 12.3.4 6.6 0 12.2-.2 16.8-.6 4.8-.4 8.5-1 11.1-1.8 2.8-.8 5.4-2.1 7.7-3.9 2.3-1.8 4.3-3.9 5.9-6.5 1.7-2.5 2.9-5.8 3.7-9.8.8-3.8 1.2-8.2 1.2-13.3 0-8.2-.9-14.6-2.6-19.2zM72.8 89.7c-.9 2.8-2.4 4.9-4.5 6.2-1.9 1.2-4.5 2.1-8 2.5-3.6.5-9.4.8-17.2.8-5.8 0-10.5-.2-14.2-.7-3.5-.5-6.1-1.2-7.8-2.1-1.2-.7-2.2-1.6-3-2.5-.9-1-1.5-2.2-2-3.7-1.1-3-1.6-7.7-1.6-14.1 0-5.4.5-9.5 1.5-12.4 1-2.8 2.5-4.8 4.4-6.2 1.8-1.2 4.5-2 8.2-2.5 4.2-.5 10.2-.8 18.3-.8 5.1 0 9.6.2 13.4.8 3.4.5 5.9 1.2 7.4 2.1 1.2.7 2.2 1.5 3.1 2.5.9 1.1 1.6 2.3 2 3.6 1.1 3 1.7 7.6 1.7 13.9-.1 5.4-.7 9.7-1.7 12.6zM186 64.8c-.1-2.5-.4-4.8-.8-6.8-.8-3.5-2.4-6.6-5-9.3-3.1-3.1-7.3-5.3-12.7-6.4-2.5-.5-5.9-.9-10-1.1-4.4-.3-9.2-.5-14.6-.5-7.3 0-13.4.3-18.3 1-5 .7-8.9 1.7-11.8 3-3 1.5-5.2 3.6-6.7 6.3-1.5 2.7-2.2 5.9-2.2 9.7l.1 3.1c.1.5.3.9.7 1.3.4.4.9.6 1.5.6H117c.6 0 1.1-.2 1.5-.6.4-.4.6-.9.6-1.6v-.9c0-1.9.3-3.4.9-4.5.6-1 1.4-1.7 2.7-2.2.6-.2 1.5-.5 2.8-.8l4.5-.6c3.6-.3 8.1-.4 13.7-.4 4.3 0 7.9.1 10.9.3 2.9.2 5.3.5 7.2.8 1.8.4 3.3 1 4.3 1.6 1.2.7 2.2 1.5 2.9 2.3.9 1 1.5 2.4 1.9 4.2.5 1.9.7 4.3.7 7V73c-.6-.5-1.1-.9-1.7-1.3-1.9-1.1-3.9-1.9-6.2-2.3-2.1-.3-5.5-.6-10-.9-4.5-.2-10.1-.3-16.8-.3-5.1 0-9.4.1-12.7.3-3.4.2-6.4.6-8.8 1-1.5.2-2.8.6-4 1.1v.1c-1.9.8-3.4 1.7-4.7 2.8-1.3 1.2-2.4 2.6-3.2 4.3-1.5 3.1-2.3 7.3-2.3 12.7 0 4.4.5 7.9 1.5 10.5 1 2.7 2.9 4.9 5.5 6.8 1.3 1 2.9 1.9 4.9 2.5 1.8.6 3.9 1.1 6.3 1.4h.1c2.2.2 5.3.5 9.5.6 5.3.1 10.2.2 14.7.2 4.8 0 9.1-.1 12.9-.4 3.8-.3 6.5-.7 8.3-1.2 2.6-.8 5-2.1 7.1-3.9l-.1 2.4c0 .6.2 1.1.6 1.6.5.4 1 .6 1.6.6h10.4c.6 0 1-.2 1.5-.6.5-.4.7-.9.7-1.5V74.9c-.4-3.9-.5-7.3-.7-10.1zm-16.1 30.1c-.6 1-1.6 1.8-3.1 2.3-1.5.7-4.1 1.2-7.6 1.5-3.4.3-7.9.4-13.6.4-10 0-17.2-.2-21.4-.8-1.5-.1-2.6-.3-3.4-.6l-.9-.2c-1.2-.6-2.1-1.4-2.7-2.5-.6-1.2-.9-2.6-.9-4.4 0-1.9.2-3.4.8-4.6.6-1.1 1.3-1.9 2.2-2.5.7-.3 1.4-.6 2.3-.8 1.1-.2 2.5-.5 4.1-.6 3.3-.3 9.2-.4 17.8-.4 6.1 0 10.9.2 14.4.6 3.7.3 6.5.8 8.3 1.5 1.5.6 2.7 1.4 3.4 2.5.7 1 1.1 2.4 1.1 4.1.2 1.8-.1 3.3-.8 4.5zm38.3-52.1l30.6 55.1 28.3-55c.4-.8 1.1-1.1 1.9-1.1h12.2c.8 0 1.4.3 1.8 1 .4.8.4 1.5.1 2.1l-32 61.2v.1c-3.9 7.4-7 12.7-9.1 15.8-2.3 3.3-4.9 5.9-7.8 7.9-2.7 1.9-5.7 3.2-8.9 3.9-3 .6-7.3 1-13 1-2.3 0-4.3 0-6-.1-.6 0-1-.2-1.4-.6-.4-.4-.6-.9-.6-1.5v-9.5c0-.6.2-1.2.7-1.6.5-.4 1-.6 1.7-.5 1.7.2 3.3.2 4.6.2 3.3 0 6.1-.2 8.4-.6 2.2-.4 4-.9 5.1-1.6v-.1c1.1-.6 2.4-1.7 3.8-3.4.8-1 1.6-2.2 2.5-3.6-.7-.1-1.2-.4-1.7-1.1l-37-65.6c-.4-.7-.4-1.5 0-2.2.4-.7 1-1 1.8-1h12.2c.8-.3 1.4.1 1.8.8" fill="#fff" fill-rule="evenodd" clip-rule="evenodd"/><path class="st1" d="M247.4 153.1h2.3c28.6 0 52.9-2.6 72.8-7.9 1.4-.4 2.9-.8 4.3-1.2 27.3-8 42.4-20.8 45.3-38.5 1-5.7-1.2-11.8-6.6-18.4-2.5-3.1-6.2-6.6-10.9-10.6-2.3-1.8-4.8-3.7-7.6-5.7-10.3-7.5-16.9-12.5-19.6-15.1-5.8-5.3-8.3-9.9-7.7-13.8 2.4-14.5 19.4-25.5 50.9-32.9 3.4-.8 7-1.6 10.7-2.3.6-.1 1.1-.2 1.7-.3 2.9-.5 5.7-1 8.5-1.5 2.2-.4 4.4-.7 6.6-1 1.1-.2 2.1-.3 3.2-.5 2.8-.4 5.6-.7 8.4-1 .3 0 .7-.1 1-.1 3.1-.3 6.1-.6 9.2-.9.4 0 .8-.4.8-.8s-.3-.8-.8-.8h-3.7c-3.1 0-6.2 0-9.2.1-1.7 0-3.4.1-5.1.2-1.7.1-3.4.1-5 .2-19.8 1-37.2 3.5-52.2 7.4-1.4.4-2.9.8-4.3 1.2-27.3 8-42.4 20.8-45.3 38.5-1 5.7 1.2 11.8 6.6 18.4 2.5 3.1 6.2 6.6 10.9 10.6 2.3 1.8 4.8 3.7 7.6 5.7 10.3 7.5 16.9 12.5 19.6 15.1 5.8 5.3 8.3 9.9 7.7 13.8-2.4 14.5-19.4 25.5-50.9 32.9-3.4.8-7 1.6-10.7 2.3-.6.1-1.1.2-1.7.3-2.9.5-5.7 1-8.5 1.5-2.2.4-4.4.7-6.6 1-1.1.1-2.1.3-3.2.4-2.8.4-5.6.7-8.4 1-.3 0-.7.1-1 .1-3.1.3-9.2.9-9.2.9-.4 0-.8.4-.8.8.2.5.5.9.9.9z"/><path class="st1" d="M472 80.6c.5-.4.7-.9.7-1.5-.1-7.9-.7-13.9-1.6-17.9-1-4-2.9-7.7-5.7-10.9-3.4-3.8-7.8-6.3-13.2-7.6-2.5-.6-5.9-1.1-10.2-1.4-4.2-.3-9.1-.4-14.8-.4-6.1 0-11.3.2-15.4.6-4.3.4-7.9 1-10.6 1.9-2.9.9-5.3 2.3-7.4 4-2.1 1.7-3.9 3.8-5.4 6.4-1.5 2.6-2.7 5.9-3.4 9.8-.7 3.7-1.1 8.1-1.1 13.2 0 7.2.9 13.2 2.5 18.2 1.9 5.1 4.6 8.9 8.3 11.6 3.2 2.2 7.8 3.8 13.9 4.7 6 .8 14.5 1.3 25.4 1.3 6.7 0 12.5-.4 17.3-1.2 5-.9 8.9-2.2 11.8-3.8 3-1.8 5.3-4.3 6.9-7.4 1.6-3 2.4-6.7 2.5-10.9 0-.6-.2-1.2-.6-1.5-.4-.4-.9-.6-1.5-.6h-11c-.6 0-1.1.2-1.5.5-.4.4-.6.9-.7 1.4-.2 1.6-.4 2.8-.8 3.8-.3 1-.7 1.7-1.1 2.2 0 0 0 .1-.1.1-.7.7-1.6 1.3-2.5 1.8-1.1.6-2.5 1-4 1.3-3.3.6-8.6.9-16 .9-4.5 0-8.8-.1-12.6-.2-3.4-.2-6.1-.5-8.4-.9h.1c-1.9-.3-3.6-.8-5.1-1.5-1.5-.7-2.6-1.5-3.2-2.2-1.3-1.3-2.2-3.1-2.9-5.6-.6-2.1-1-4.6-1.2-7.6h71.1c.6 0 1.1-.2 1.5-.6zM399.9 68c.3-2.1.8-3.9 1.5-5.5.8-1.9 1.8-3.4 3.2-4.5l.1-.1c1.7-1.4 4.2-2.3 7.3-2.8 3.5-.6 8.5-1 15.1-1 7.6 0 13.4.3 17.2 1 3.7.6 6.5 1.7 8.4 3.2 1.4 1.1 2.4 2.5 3.1 4.3.6 1.6 1 3.3 1.1 5.3h-57zm153.3-21.7c-2.4-2.1-5.4-3.5-9.1-4.4-3.4-.7-8.4-1.1-14.9-1.1-2.3 0-4.4 0-6.2.1-3.5.1-6.4.2-8.6.5-3.5.4-6.4 1.2-8.6 2.3-1.9 1-3.6 2.1-5 3.5v-3.4c0-.6-.2-1.1-.6-1.5-.5-.4-1-.6-1.6-.6h-10.4c-.5 0-1 .2-1.5.6-.4.4-.6.9-.6 1.5v65.8c0 .6.2 1.1.6 1.5s.9.6 1.5.6h10.4c.6 0 1.1-.2 1.6-.6.4-.4.6-.9.6-1.5V79.3c0-4.2.2-7.8.7-10.9.5-3 1.1-5.4 2-7.2.5-1.1 1.2-2 1.9-2.5.7-.6 1.7-1.2 2.9-1.8 1.4-.5 3-1 4.8-1.4 2.8-.6 6.2-1 10-1.1 1.6 0 3.2-.1 5-.1 3.9 0 7.2.3 10 .9 2.4.5 4.1 1.2 5.1 2.2.9.9 1.6 2.1 2 3.6.5 1.9.7 4.4.7 7.8v4.7c0 .6.2 1.1.6 1.5.4.4.9.6 1.5.6h10.6c.6 0 1.1-.2 1.5-.6.5-.5.7-1 .7-1.5v-6.8c-.1-4.7-.7-8.6-1.8-11.8-1.4-3.5-3.3-6.4-5.8-8.6zm100.6 18.5c-.1-2.5-.4-4.8-.8-6.8-.8-3.6-2.5-6.7-5.2-9.3h.1c-3.1-3.1-7.3-5.3-12.7-6.4-2.6-.5-5.9-.9-10-1.1-4.3-.3-9.2-.5-14.5-.5-7.3 0-13.4.3-18.2 1-5 .7-8.9 1.7-11.8 3-3 1.5-5.3 3.6-6.8 6.3-1.5 2.7-2.2 5.9-2.2 9.7l.2 3.1c0 .5.3 1 .7 1.3.4.4.8.6 1.4.6h10.9c.6 0 1.1-.2 1.5-.6.4-.4.6-.9.6-1.6v-.9c0-1.9.3-3.4 1-4.5.6-1 1.5-1.8 2.7-2.2.5-.2 1.4-.5 2.8-.8l4.5-.6c3.6-.3 8.1-.4 13.7-.4 4.2 0 7.9.1 10.9.3 2.9.2 5.3.5 7.1.8h.1c1.8.4 3.2 1 4.3 1.6 1.2.7 2.2 1.5 2.9 2.3.8 1 1.5 2.4 2 4.2.5 1.9.7 4.3.7 7V73c-.6-.5-1.2-.9-1.8-1.3-1.9-1.1-3.9-1.9-6.2-2.3-2.2-.3-5.5-.6-10-.9-4.5-.2-10.1-.3-16.9-.3-5.1 0-9.3.1-12.7.3-3.4.2-6.4.6-8.8 1-1.4.2-2.8.6-3.9 1.1v.1c-1.9.7-3.4 1.7-4.7 2.8-1.3 1.2-2.4 2.6-3.3 4.3-1.5 3.1-2.2 7.3-2.2 12.7 0 4.4.5 7.9 1.5 10.5 1 2.7 2.9 5 5.6 6.9 1.3 1 2.9 1.8 4.8 2.5 1.8.6 3.9 1.1 6.3 1.4 2.2.2 5.5.5 9.6.6 5.4.1 10.3.2 14.8.2 4.8 0 9.1-.1 12.8-.4 3.8-.3 6.6-.7 8.3-1.2 2.6-.8 4.9-2.1 7-3.9l-.1 2.4c0 .6.2 1.2.6 1.6.5.4 1 .6 1.5.6H652c.6 0 1.1-.2 1.5-.6.4-.4.6-.9.6-1.5V75c.1-4 0-7.4-.3-10.2zm-16.1 30.1c-.6 1-1.6 1.8-3 2.3-1.6.7-4.1 1.2-7.5 1.5-3.4.3-8 .4-13.6.4-10.1 0-17.2-.2-21.5-.8-1.4-.1-2.5-.3-3.4-.6l-1-.2c-1.2-.6-2.1-1.5-2.7-2.5-.6-1.2-1-2.7-1-4.4 0-1.8.3-3.3.8-4.6.5-1.1 1.3-1.9 2.3-2.5.5-.3 1.3-.6 2.3-.8 1.1-.3 2.4-.5 4.1-.6 3.3-.3 9.3-.4 17.8-.4 6.1 0 11 .2 14.4.6 3.8.3 6.5.8 8.3 1.5 1.6.6 2.7 1.4 3.5 2.5.7 1 1.1 2.4 1.1 4.1.2 1.9-.2 3.3-.9 4.5z"/></g></svg>