<?xml version="1.0" encoding="utf-8"?>
<!-- Generator: Adobe Illustrator 24.0.3, SVG Export Plug-In . SVG Version: 6.00 Build 0)  -->
<svg version="1.1" id="Layer_1" xmlns="http://www.w3.org/2000/svg" xmlns:xlink="http://www.w3.org/1999/xlink" x="0px" y="0px"
	 viewBox="0 0 654.2 161.8" style="enable-background:new 0 0 654.2 161.8;" xml:space="preserve">
<style type="text/css">
	.st0{fill-rule:evenodd;clip-rule:evenodd;fill:#2A80C4;}
	.st1{fill:#F47521;}
</style>
<g id="Layer_7">
	<path class="st0" d="M87.1,61.4c-0.9-2.5-2.3-4.8-4-6.8s-3.8-3.8-6.2-5.2c-3.2-1.9-7.2-3.1-11.9-3.8c-4.8-0.6-11.6-1-20.5-1
		c-5.2,0-9.6,0.2-13.4,0.4c-3.9,0.3-6.9,0.8-8.9,1.5c-2.3,0.7-4.4,1.8-6.2,3.1c-0.4,0.3-0.9,0.7-1.3,1.1v-3.2c0-0.6-0.2-1.1-0.6-1.5
		c-0.4-0.4-0.9-0.6-1.5-0.6H2.2c-0.6,0-1.1,0.2-1.6,0.6C0.2,46.5,0,47,0,47.7v89.5c0,0.6,0.2,1.1,0.6,1.5c0.5,0.4,1,0.6,1.6,0.6
		h10.4c0.6,0,1-0.2,1.5-0.6c0.4-0.4,0.6-0.9,0.6-1.5v-26.6c2.2,1.9,4.8,3.2,7.7,4.1c2.1,0.6,4.9,1.1,8.6,1.4
		c3.5,0.3,7.6,0.4,12.3,0.4c6.6,0,12.2-0.2,16.8-0.6c4.8-0.4,8.5-1,11.1-1.8c2.8-0.8,5.4-2.1,7.7-3.9c2.3-1.8,4.3-3.9,5.9-6.5
		c1.7-2.5,2.9-5.8,3.7-9.8c0.8-3.8,1.2-8.2,1.2-13.3C89.7,72.4,88.8,66,87.1,61.4L87.1,61.4z M72.8,93.5c-0.9,2.8-2.4,4.9-4.5,6.2
		c-1.9,1.2-4.5,2.1-8,2.5c-3.6,0.5-9.4,0.8-17.2,0.8c-5.8,0-10.5-0.2-14.2-0.7c-3.5-0.5-6.1-1.2-7.8-2.1c-1.2-0.7-2.2-1.6-3-2.5
		c-0.9-1-1.5-2.2-2-3.7c-1.1-3-1.6-7.7-1.6-14.1c0-5.4,0.5-9.5,1.5-12.4c1-2.8,2.5-4.8,4.4-6.2c1.8-1.2,4.5-2,8.2-2.5
		c4.2-0.5,10.2-0.8,18.3-0.8c5.1,0,9.6,0.2,13.4,0.8c3.4,0.5,5.9,1.2,7.4,2.1c1.2,0.7,2.2,1.5,3.1,2.5c0.9,1.1,1.6,2.3,2,3.6
		c1.1,3,1.7,7.6,1.7,13.9C74.4,86.3,73.8,90.6,72.8,93.5z M186,68.6c-0.1-2.5-0.4-4.8-0.8-6.8c-0.8-3.5-2.4-6.6-5-9.3
		c-3.1-3.1-7.3-5.3-12.7-6.4c-2.5-0.5-5.9-0.9-10-1.1c-4.4-0.3-9.2-0.5-14.6-0.5c-7.3,0-13.4,0.3-18.3,1c-5,0.7-8.9,1.7-11.8,3
		c-3,1.5-5.2,3.6-6.7,6.3s-2.2,5.9-2.2,9.7l0.1,3.1c0.1,0.5,0.3,0.9,0.7,1.3c0.4,0.4,0.9,0.6,1.5,0.6H117c0.6,0,1.1-0.2,1.5-0.6
		s0.6-0.9,0.6-1.6v-0.9c0-1.9,0.3-3.4,0.9-4.5c0.6-1,1.4-1.7,2.7-2.2c0.6-0.2,1.5-0.5,2.8-0.8l4.5-0.6c3.6-0.3,8.1-0.4,13.7-0.4
		c4.3,0,7.9,0.1,10.9,0.3c2.9,0.2,5.3,0.5,7.2,0.8c1.8,0.4,3.3,1,4.3,1.6c1.2,0.7,2.2,1.5,2.9,2.3c0.9,1,1.5,2.4,1.9,4.2
		c0.5,1.9,0.7,4.3,0.7,7v2.7c-0.6-0.5-1.1-0.9-1.7-1.3c-1.9-1.1-3.9-1.9-6.2-2.3c-2.1-0.3-5.5-0.6-10-0.9
		c-4.5-0.2-10.1-0.3-16.8-0.3c-5.1,0-9.4,0.1-12.7,0.3c-3.4,0.2-6.4,0.6-8.8,1c-1.5,0.2-2.8,0.6-4,1.1v0.1c-1.9,0.8-3.4,1.7-4.7,2.8
		c-1.3,1.2-2.4,2.6-3.2,4.3c-1.5,3.1-2.3,7.3-2.3,12.7c0,4.4,0.5,7.9,1.5,10.5c1,2.7,2.9,4.9,5.5,6.8c1.3,1,2.9,1.9,4.9,2.5
		c1.8,0.6,3.9,1.1,6.3,1.4h0.1c2.2,0.2,5.3,0.5,9.5,0.6c5.3,0.1,10.2,0.2,14.7,0.2c4.8,0,9.1-0.1,12.9-0.4c3.8-0.3,6.5-0.7,8.3-1.2
		c2.6-0.8,5-2.1,7.1-3.9l-0.1,2.4c0,0.6,0.2,1.1,0.6,1.6c0.5,0.4,1,0.6,1.6,0.6h10.4c0.6,0,1-0.2,1.5-0.6s0.7-0.9,0.7-1.5V78.7
		C186.3,74.8,186.2,71.4,186,68.6L186,68.6z M169.9,98.7c-0.6,1-1.6,1.8-3.1,2.3c-1.5,0.7-4.1,1.2-7.6,1.5
		c-3.4,0.3-7.9,0.4-13.6,0.4c-10,0-17.2-0.2-21.4-0.8c-1.5-0.1-2.6-0.3-3.4-0.6l-0.9-0.2c-1.2-0.6-2.1-1.4-2.7-2.5
		c-0.6-1.2-0.9-2.6-0.9-4.4c0-1.9,0.2-3.4,0.8-4.6c0.6-1.1,1.3-1.9,2.2-2.5c0.7-0.3,1.4-0.6,2.3-0.8c1.1-0.2,2.5-0.5,4.1-0.6
		c3.3-0.3,9.2-0.4,17.8-0.4c6.1,0,10.9,0.2,14.4,0.6c3.7,0.3,6.5,0.8,8.3,1.5c1.5,0.6,2.7,1.4,3.4,2.5c0.7,1,1.1,2.4,1.1,4.1
		C170.9,96,170.6,97.5,169.9,98.7L169.9,98.7z M208.2,46.6l30.6,55.1l28.3-55c0.4-0.8,1.1-1.1,1.9-1.1h12.2c0.8,0,1.4,0.3,1.8,1
		c0.4,0.8,0.4,1.5,0.1,2.1l-32,61.2v0.1c-3.9,7.4-7,12.7-9.1,15.8c-2.3,3.3-4.9,5.9-7.8,7.9c-2.7,1.9-5.7,3.2-8.9,3.9
		c-3,0.6-7.3,1-13,1c-2.3,0-4.3,0-6-0.1c-0.6,0-1-0.2-1.4-0.6c-0.4-0.4-0.6-0.9-0.6-1.5v-9.5c0-0.6,0.2-1.2,0.7-1.6s1-0.6,1.7-0.5
		c1.7,0.2,3.3,0.2,4.6,0.2c3.3,0,6.1-0.2,8.4-0.6c2.2-0.4,4-0.9,5.1-1.6v-0.1c1.1-0.6,2.4-1.7,3.8-3.4c0.8-1,1.6-2.2,2.5-3.6
		c-0.7-0.1-1.2-0.4-1.7-1.1l-37-65.6c-0.4-0.7-0.4-1.5,0-2.2s1-1,1.8-1h12.2C207.2,45.5,207.8,45.9,208.2,46.6"/>
	<path class="st1" d="M247.4,156.9h2.3c28.6,0,52.9-2.6,72.8-7.9c1.4-0.4,2.9-0.8,4.3-1.2c27.3-8,42.4-20.8,45.3-38.5
		c1-5.7-1.2-11.8-6.6-18.4c-2.5-3.1-6.2-6.6-10.9-10.6c-2.3-1.8-4.8-3.7-7.6-5.7c-10.3-7.5-16.9-12.5-19.6-15.1
		c-5.8-5.3-8.3-9.9-7.7-13.8c2.4-14.5,19.4-25.5,50.9-32.9c3.4-0.8,7-1.6,10.7-2.3c0.6-0.1,1.1-0.2,1.7-0.3c2.9-0.5,5.7-1,8.5-1.5
		c2.2-0.4,4.4-0.7,6.6-1c1.1-0.2,2.1-0.3,3.2-0.5c2.8-0.4,5.6-0.7,8.4-1c0.3,0,0.7-0.1,1-0.1c3.1-0.3,6.1-0.6,9.2-0.9
		c0.4,0,0.8-0.4,0.8-0.8c0-0.4-0.3-0.8-0.8-0.8h-3.7c-3.1,0-6.2,0-9.2,0.1c-1.7,0-3.4,0.1-5.1,0.2c-1.7,0.1-3.4,0.1-5,0.2
		c-19.8,1-37.2,3.5-52.2,7.4c-1.4,0.4-2.9,0.8-4.3,1.2c-27.3,8-42.4,20.8-45.3,38.5c-1,5.7,1.2,11.8,6.6,18.4
		c2.5,3.1,6.2,6.6,10.9,10.6c2.3,1.8,4.8,3.7,7.6,5.7c10.3,7.5,16.9,12.5,19.6,15.1c5.8,5.3,8.3,9.9,7.7,13.8
		c-2.4,14.5-19.4,25.5-50.9,32.9c-3.4,0.8-7,1.6-10.7,2.3c-0.6,0.1-1.1,0.2-1.7,0.3c-2.9,0.5-5.7,1-8.5,1.5c-2.2,0.4-4.4,0.7-6.6,1
		c-1.1,0.1-2.1,0.3-3.2,0.4c-2.8,0.4-5.6,0.7-8.4,1c-0.3,0-0.7,0.1-1,0.1c-3.1,0.3-9.2,0.9-9.2,0.9c-0.4,0-0.8,0.4-0.8,0.8
		C246.7,156.5,247,156.9,247.4,156.9L247.4,156.9z"/>
	<path class="st1" d="M472,84.4c0.5-0.4,0.7-0.9,0.7-1.5C472.6,75,472,69,471.1,65c-1-4-2.9-7.7-5.7-10.9c-3.4-3.8-7.8-6.3-13.2-7.6
		c-2.5-0.6-5.9-1.1-10.2-1.4c-4.2-0.3-9.1-0.4-14.8-0.4c-6.1,0-11.3,0.2-15.4,0.6c-4.3,0.4-7.9,1-10.6,1.9c-2.9,0.9-5.3,2.3-7.4,4
		s-3.9,3.8-5.4,6.4c-1.5,2.6-2.7,5.9-3.4,9.8c-0.7,3.7-1.1,8.1-1.1,13.2c0,7.2,0.9,13.2,2.5,18.2c1.9,5.1,4.6,8.9,8.3,11.6
		c3.2,2.2,7.8,3.8,13.9,4.7c6,0.8,14.5,1.3,25.4,1.3c6.7,0,12.5-0.4,17.3-1.2c5-0.9,8.9-2.2,11.8-3.8c3-1.8,5.3-4.3,6.9-7.4
		c1.6-3,2.4-6.7,2.5-10.9c0-0.6-0.2-1.2-0.6-1.5c-0.4-0.4-0.9-0.6-1.5-0.6h-11c-0.6,0-1.1,0.2-1.5,0.5c-0.4,0.4-0.6,0.9-0.7,1.4
		c-0.2,1.6-0.4,2.8-0.8,3.8c-0.3,1-0.7,1.7-1.1,2.2c0,0,0,0.1-0.1,0.1c-0.7,0.7-1.6,1.3-2.5,1.8c-1.1,0.6-2.5,1-4,1.3
		c-3.3,0.6-8.6,0.9-16,0.9c-4.5,0-8.8-0.1-12.6-0.2c-3.4-0.2-6.1-0.5-8.4-0.9h0.1c-1.9-0.3-3.6-0.8-5.1-1.5s-2.6-1.5-3.2-2.2
		c-1.3-1.3-2.2-3.1-2.9-5.6c-0.6-2.1-1-4.6-1.2-7.6h71.1C471.1,85,471.6,84.8,472,84.4L472,84.4z M399.9,71.8
		c0.3-2.1,0.8-3.9,1.5-5.5c0.8-1.9,1.8-3.4,3.2-4.5l0.1-0.1c1.7-1.4,4.2-2.3,7.3-2.8c3.5-0.6,8.5-1,15.1-1c7.6,0,13.4,0.3,17.2,1
		c3.7,0.6,6.5,1.7,8.4,3.2c1.4,1.1,2.4,2.5,3.1,4.3c0.6,1.6,1,3.3,1.1,5.3L399.9,71.8L399.9,71.8z M553.2,50.1
		c-2.4-2.1-5.4-3.5-9.1-4.4c-3.4-0.7-8.4-1.1-14.9-1.1c-2.3,0-4.4,0-6.2,0.1c-3.5,0.1-6.4,0.2-8.6,0.5c-3.5,0.4-6.4,1.2-8.6,2.3
		c-1.9,1-3.6,2.1-5,3.5v-3.4c0-0.6-0.2-1.1-0.6-1.5c-0.5-0.4-1-0.6-1.6-0.6h-10.4c-0.5,0-1,0.2-1.5,0.6c-0.4,0.4-0.6,0.9-0.6,1.5
		v65.8c0,0.6,0.2,1.1,0.6,1.5s0.9,0.6,1.5,0.6h10.4c0.6,0,1.1-0.2,1.6-0.6c0.4-0.4,0.6-0.9,0.6-1.5V83.1c0-4.2,0.2-7.8,0.7-10.9
		c0.5-3,1.1-5.4,2-7.2c0.5-1.1,1.2-2,1.9-2.5c0.7-0.6,1.7-1.2,2.9-1.8c1.4-0.5,3-1,4.8-1.4c2.8-0.6,6.2-1,10-1.1
		c1.6,0,3.2-0.1,5-0.1c3.9,0,7.2,0.3,10,0.9c2.4,0.5,4.1,1.2,5.1,2.2c0.9,0.9,1.6,2.1,2,3.6c0.5,1.9,0.7,4.4,0.7,7.8v4.7
		c0,0.6,0.2,1.1,0.6,1.5c0.4,0.4,0.9,0.6,1.5,0.6h10.6c0.6,0,1.1-0.2,1.5-0.6c0.5-0.5,0.7-1,0.7-1.5v-6.8c-0.1-4.7-0.7-8.6-1.8-11.8
		C557.6,55.2,555.7,52.3,553.2,50.1z M653.8,68.6c-0.1-2.5-0.4-4.8-0.8-6.8c-0.8-3.6-2.5-6.7-5.2-9.3h0.1c-3.1-3.1-7.3-5.3-12.7-6.4
		c-2.6-0.5-5.9-0.9-10-1.1c-4.3-0.3-9.2-0.5-14.5-0.5c-7.3,0-13.4,0.3-18.2,1c-5,0.7-8.9,1.7-11.8,3c-3,1.5-5.3,3.6-6.8,6.3
		s-2.2,5.9-2.2,9.7l0.2,3.1c0,0.5,0.3,1,0.7,1.3c0.4,0.4,0.8,0.6,1.4,0.6h10.9c0.6,0,1.1-0.2,1.5-0.6s0.6-0.9,0.6-1.6v-0.9
		c0-1.9,0.3-3.4,1-4.5c0.6-1,1.5-1.8,2.7-2.2c0.5-0.2,1.4-0.5,2.8-0.8l4.5-0.6c3.6-0.3,8.1-0.4,13.7-0.4c4.2,0,7.9,0.1,10.9,0.3
		c2.9,0.2,5.3,0.5,7.1,0.8h0.1c1.8,0.4,3.2,1,4.3,1.6c1.2,0.7,2.2,1.5,2.9,2.3c0.8,1,1.5,2.4,2,4.2c0.5,1.9,0.7,4.3,0.7,7v2.7
		c-0.6-0.5-1.2-0.9-1.8-1.3c-1.9-1.1-3.9-1.9-6.2-2.3c-2.2-0.3-5.5-0.6-10-0.9c-4.5-0.2-10.1-0.3-16.9-0.3c-5.1,0-9.3,0.1-12.7,0.3
		c-3.4,0.2-6.4,0.6-8.8,1c-1.4,0.2-2.8,0.6-3.9,1.1v0.1c-1.9,0.7-3.4,1.7-4.7,2.8c-1.3,1.2-2.4,2.6-3.3,4.3
		c-1.5,3.1-2.2,7.3-2.2,12.7c0,4.4,0.5,7.9,1.5,10.5c1,2.7,2.9,5,5.6,6.9c1.3,1,2.9,1.8,4.8,2.5c1.8,0.6,3.9,1.1,6.3,1.4
		c2.2,0.2,5.5,0.5,9.6,0.6c5.4,0.1,10.3,0.2,14.8,0.2c4.8,0,9.1-0.1,12.8-0.4c3.8-0.3,6.6-0.7,8.3-1.2c2.6-0.8,4.9-2.1,7-3.9
		l-0.1,2.4c0,0.6,0.2,1.2,0.6,1.6c0.5,0.4,1,0.6,1.5,0.6H652c0.6,0,1.1-0.2,1.5-0.6s0.6-0.9,0.6-1.5V78.8
		C654.2,74.8,654.1,71.4,653.8,68.6z M637.7,98.7c-0.6,1-1.6,1.8-3,2.3c-1.6,0.7-4.1,1.2-7.5,1.5s-8,0.4-13.6,0.4
		c-10.1,0-17.2-0.2-21.5-0.8c-1.4-0.1-2.5-0.3-3.4-0.6l-1-0.2c-1.2-0.6-2.1-1.5-2.7-2.5c-0.6-1.2-1-2.7-1-4.4c0-1.8,0.3-3.3,0.8-4.6
		c0.5-1.1,1.3-1.9,2.3-2.5c0.5-0.3,1.3-0.6,2.3-0.8c1.1-0.3,2.4-0.5,4.1-0.6c3.3-0.3,9.3-0.4,17.8-0.4c6.1,0,11,0.2,14.4,0.6
		c3.8,0.3,6.5,0.8,8.3,1.5c1.6,0.6,2.7,1.4,3.5,2.5c0.7,1,1.1,2.4,1.1,4.1C638.8,96.1,638.4,97.5,637.7,98.7L637.7,98.7z"/>
</g>
</svg>
