<?xml version="1.0" encoding="utf-8"?>
<!-- Generator: Adobe Illustrator 17.1.0, SVG Export Plug-In . SVG Version: 6.00 Build 0)  -->
<!DOCTYPE svg PUBLIC "-//W3C//DTD SVG 1.1//EN" "http://www.w3.org/Graphics/SVG/1.1/DTD/svg11.dtd">
<svg version="1.1" id="Layer_1" xmlns="http://www.w3.org/2000/svg" xmlns:xlink="http://www.w3.org/1999/xlink" x="0px" y="0px"
	 width="38px" height="18px" viewBox="0 0 38 18" style="enable-background:new 0 0 38 18;" xml:space="preserve">
<style type="text/css">
	.st0{fill:#FF0000;}
</style>
	<g fill="currentColor">
		<g>
			<path class="st0" d="M37.2,15.5c-0.3,0-0.5,0-0.6-0.1c-0.1-0.1-0.1-0.2-0.1-0.3V9.4c0-0.1,0-0.2,0-0.2c0-0.1,0.1-0.1,0.1-0.1
				c0.1-0.1,0.3-0.1,0.6-0.1c0.3,0,0.5,0,0.6,0.1c0,0,0.1,0.1,0.1,0.1c0,0.1,0,0.1,0,0.2V15c0,0.1,0,0.2,0,0.2c0,0-0.1,0.1-0.1,0.1
				C37.8,15.4,37.6,15.5,37.2,15.5z"/>
			<path class="st0" d="M32.1,15.6c-0.5,0-0.8-0.1-1.2-0.2c-0.3-0.1-0.6-0.3-0.8-0.5c-0.2-0.2-0.4-0.4-0.5-0.7
				c-0.1-0.3-0.1-0.6-0.1-0.9V9.4c0-0.1,0-0.2,0-0.2c0-0.1,0.1-0.1,0.1-0.1c0.1-0.1,0.3-0.1,0.6-0.1c0.3,0,0.5,0,0.6,0.1
				c0.1,0.1,0.1,0.2,0.1,0.3v3.9c0,0.1,0,0.3,0.1,0.4c0,0.1,0.1,0.2,0.2,0.3c0.1,0.1,0.2,0.1,0.3,0.2c0.1,0,0.3,0.1,0.5,0.1
				c0.3,0,0.5,0,0.7-0.1c0.2-0.1,0.3-0.2,0.3-0.4c0.1-0.2,0.1-0.3,0.1-0.4V9.4c0-0.1,0-0.2,0-0.2c0-0.1,0.1-0.1,0.1-0.1
				c0.1-0.1,0.3-0.1,0.6-0.1c0.3,0,0.5,0,0.6,0.1c0.1,0.1,0.1,0.2,0.1,0.3v3.9c0,0.3,0,0.6-0.1,0.9c-0.1,0.3-0.3,0.5-0.5,0.7
				c-0.2,0.2-0.5,0.4-0.8,0.5C33,15.5,32.6,15.6,32.1,15.6z"/>
			<path class="st0" d="M25.7,15.5c-0.3,0-0.5,0-0.6-0.1c-0.1-0.1-0.1-0.2-0.1-0.3v-4.7h-1.5c-0.2,0-0.3,0-0.3-0.1
				c-0.1,0-0.1-0.1-0.1-0.1c0,0,0-0.1,0-0.2c0-0.1,0-0.3,0-0.4c0-0.1,0.1-0.2,0.1-0.3c0-0.1,0.1-0.1,0.2-0.2c0.1,0,0.2,0,0.3,0h4.3
				c0.1,0,0.2,0,0.2,0c0.1,0,0.1,0,0.1,0c0.1,0,0.1,0.1,0.1,0.1c0,0,0,0.1,0,0.2c0,0.1,0,0.2,0,0.4c0,0.2-0.1,0.3-0.1,0.4
				c0,0.1-0.1,0.1-0.2,0.2c-0.1,0-0.2,0-0.3,0h-1.3V15c0,0.1,0,0.2,0,0.2c0,0.1-0.1,0.1-0.1,0.1C26.2,15.4,26,15.5,25.7,15.5z"/>
		</g>
		<path class="st0" d="M20.5,2.5c0,1.1-0.9,2-2,2c-1.1,0-2-0.9-2-2c0-1.1,0.9-2,2-2C19.6,0.5,20.5,1.4,20.5,2.5z M15.5,9.7
			c0.6-1.2,0.8-1.6,1.5-1.4c1,0.2,1.1,0.8,0.7,2.1c-3,9.4-13.2,10.4-15.3-2.1L1.2,8.4c-0.6,0-0.9-0.2-1-0.5C0,7.6,0,7.2,0,7
			c0-1,0.4-1.4,1.1-1.4h5.3c0.5,0,1,0.2,1.1,0.9C7.7,7.3,7.6,8,6.6,8L4.9,8.1C6.1,14.9,12.2,16.9,15.5,9.7z"/>
	</g>

</svg>
